<svg width="16" height="16" viewBox="0 0 16 16" fill="none" xmlns="http://www.w3.org/2000/svg">
<g clip-path="url(#clip0_2535_10372)">
<mask id="path-1-outside-1_2535_10372" maskUnits="userSpaceOnUse" x="0.75" y="0.75" width="13" height="13" fill="black">
<rect fill="white" x="0.75" y="0.75" width="13" height="13"/>
<path d="M11.5 1.75C11.9142 1.75 12.25 2.08579 12.25 2.5V5.5C12.25 5.91421 11.9142 6.25 11.5 6.25H8.81055L6.25 8.81055V11.5C6.25 11.9142 5.91421 12.25 5.5 12.25H2.5C2.08579 12.25 1.75 11.9142 1.75 11.5V8.5C1.75 8.08579 2.08579 7.75 2.5 7.75H5.18945L7.75 5.18945V2.5C7.75 2.08579 8.08579 1.75 8.5 1.75H11.5ZM3.25 10.75H4.75V9.25H3.25V10.75Z"/>
</mask>
<path d="M11.5 1.75C11.9142 1.75 12.25 2.08579 12.25 2.5V5.5C12.25 5.91421 11.9142 6.25 11.5 6.25H8.81055L6.25 8.81055V11.5C6.25 11.9142 5.91421 12.25 5.5 12.25H2.5C2.08579 12.25 1.75 11.9142 1.75 11.5V8.5C1.75 8.08579 2.08579 7.75 2.5 7.75H5.18945L7.75 5.18945V2.5C7.75 2.08579 8.08579 1.75 8.5 1.75H11.5ZM3.25 10.75H4.75V9.25H3.25V10.75Z" fill="#922700"/>
<path d="M12.25 2.5H13.25V2.5L12.25 2.5ZM8.81055 6.25V5.25H8.39633L8.10344 5.54289L8.81055 6.25ZM6.25 8.81055L5.54289 8.10344L5.25 8.39633V8.81055H6.25ZM2.5 12.25L2.5 13.25H2.5V12.25ZM2.5 7.75V6.75H2.5L2.5 7.75ZM5.18945 7.75V8.75H5.60367L5.89656 8.45711L5.18945 7.75ZM7.75 5.18945L8.45711 5.89656L8.75 5.60367V5.18945H7.75ZM7.75 2.5L6.75 2.5V2.5H7.75ZM3.25 10.75H2.25V11.75H3.25V10.75ZM4.75 10.75V11.75H5.75V10.75H4.75ZM4.75 9.25H5.75V8.25H4.75V9.25ZM3.25 9.25V8.25H2.25V9.25H3.25ZM11.5 1.75V2.75C11.3619 2.75 11.25 2.63807 11.25 2.5L12.25 2.5L13.25 2.5C13.25 1.5335 12.4665 0.75 11.5 0.75V1.75ZM12.25 2.5H11.25V5.5H12.25H13.25V2.5H12.25ZM12.25 5.5H11.25C11.25 5.36193 11.3619 5.25 11.5 5.25V6.25V7.25C12.4665 7.25 13.25 6.4665 13.25 5.5H12.25ZM11.5 6.25V5.25H8.81055V6.25V7.25H11.5V6.25ZM8.81055 6.25L8.10344 5.54289L5.54289 8.10344L6.25 8.81055L6.95711 9.51765L9.51765 6.95711L8.81055 6.25ZM6.25 8.81055H5.25V11.5H6.25H7.25V8.81055H6.25ZM6.25 11.5H5.25C5.25 11.3619 5.36193 11.25 5.5 11.25V12.25V13.25C6.4665 13.25 7.25 12.4665 7.25 11.5H6.25ZM5.5 12.25V11.25H2.5V12.25V13.25H5.5V12.25ZM2.5 12.25L2.5 11.25C2.63807 11.25 2.75 11.3619 2.75 11.5H1.75H0.75C0.75 12.4665 1.5335 13.25 2.5 13.25L2.5 12.25ZM1.75 11.5H2.75V8.5H1.75H0.75V11.5H1.75ZM1.75 8.5H2.75C2.75 8.63807 2.63807 8.75 2.5 8.75L2.5 7.75L2.5 6.75C1.5335 6.75 0.75 7.5335 0.75 8.5H1.75ZM2.5 7.75V8.75H5.18945V7.75V6.75H2.5V7.75ZM5.18945 7.75L5.89656 8.45711L8.45711 5.89656L7.75 5.18945L7.04289 4.48235L4.48235 7.04289L5.18945 7.75ZM7.75 5.18945H8.75V2.5H7.75H6.75V5.18945H7.75ZM7.75 2.5L8.75 2.5C8.75 2.63807 8.63807 2.75 8.5 2.75V1.75V0.75C7.5335 0.75 6.75 1.5335 6.75 2.5L7.75 2.5ZM8.5 1.75V2.75H11.5V1.75V0.75H8.5V1.75ZM3.25 10.75V11.75H4.75V10.75V9.75H3.25V10.75ZM4.75 10.75H5.75V9.25H4.75H3.75V10.75H4.75ZM4.75 9.25V8.25H3.25V9.25V10.25H4.75V9.25ZM3.25 9.25H2.25V10.75H3.25H4.25V9.25H3.25Z" fill="#E6E6E6" mask="url(#path-1-outside-1_2535_10372)"/>
<path d="M8.5 2.5H11.5V5.5H8.5V2.5Z" fill="#FE7E00" stroke="#CE4C00" stroke-width="1.5" stroke-linecap="round" stroke-linejoin="round"/>
<path d="M2.5 8.5H5.5V11.5H2.5V8.5Z" fill="#FE7E00" stroke="#CE4C00" stroke-width="1.5" stroke-linecap="round" stroke-linejoin="round"/>
<path d="M5.5 8.5L8.5 5.5" stroke="#CE4C00" stroke-width="1.5" stroke-linecap="round" stroke-linejoin="round"/>
<mask id="path-6-outside-2_2535_10372" maskUnits="userSpaceOnUse" x="7.25" y="6.5" width="8" height="9" fill="black">
<rect fill="white" x="7.25" y="6.5" width="8" height="9"/>
<path fill-rule="evenodd" clip-rule="evenodd" d="M11.2501 14.5C10.8359 14.4999 10.5001 14.1642 10.5001 13.75L10.5001 10.8105L9.53033 11.7803C9.23745 12.0731 8.76267 12.0731 8.46979 11.7803C8.177 11.4874 8.17696 11.0126 8.46979 10.7197L10.7198 8.46973C10.8604 8.3291 11.0512 8.25003 11.2501 8.25C11.4489 8.25 11.6397 8.32913 11.7803 8.46973L14.0303 10.7197C14.3232 11.0126 14.3232 11.4874 14.0303 11.7803C13.7374 12.0731 13.2627 12.0732 12.9698 11.7803L12.0001 10.8105L12.0001 13.75C12.0001 14.1642 11.6643 14.5 11.2501 14.5Z"/>
</mask>
<path fill-rule="evenodd" clip-rule="evenodd" d="M11.2501 14.5C10.8359 14.4999 10.5001 14.1642 10.5001 13.75L10.5001 10.8105L9.53033 11.7803C9.23745 12.0731 8.76267 12.0731 8.46979 11.7803C8.177 11.4874 8.17696 11.0126 8.46979 10.7197L10.7198 8.46973C10.8604 8.3291 11.0512 8.25003 11.2501 8.25C11.4489 8.25 11.6397 8.32913 11.7803 8.46973L14.0303 10.7197C14.3232 11.0126 14.3232 11.4874 14.0303 11.7803C13.7374 12.0731 13.2627 12.0732 12.9698 11.7803L12.0001 10.8105L12.0001 13.75C12.0001 14.1642 11.6643 14.5 11.2501 14.5Z" fill="#333333"/>
<path d="M11.2501 14.5L11.2499 15.5L11.2501 15.5L11.2501 14.5ZM10.5001 10.8105L11.5001 10.8105L11.5001 8.39633L9.79295 10.1034L10.5001 10.8105ZM9.53033 11.7803L10.2374 12.4874L10.2374 12.4874L9.53033 11.7803ZM8.46979 11.7803L7.76256 12.4873L7.76272 12.4874L8.46979 11.7803ZM8.46979 10.7197L7.76268 10.0126L7.76264 10.0127L8.46979 10.7197ZM10.7198 8.46973L10.0127 7.76262L10.0127 7.76262L10.7198 8.46973ZM11.2501 8.25L11.2501 7.25L11.2499 7.25L11.2501 8.25ZM11.7803 8.46973L12.4874 7.76262L12.4873 7.76251L11.7803 8.46973ZM14.0303 10.7197L14.7375 10.0126L14.7374 10.0126L14.0303 10.7197ZM14.0303 11.7803L14.7374 12.4874L14.7374 12.4874L14.0303 11.7803ZM12.9698 11.7803L13.6769 11.0732L13.6769 11.0732L12.9698 11.7803ZM12.0001 10.8105L12.7072 10.1034L11.0001 8.39633L11.0001 10.8105L12.0001 10.8105ZM11.2501 14.5L11.2502 13.5C11.3881 13.5 11.5001 13.6117 11.5001 13.75L10.5001 13.75L9.50006 13.75C9.50006 14.7166 10.2837 15.4998 11.2499 15.5L11.2501 14.5ZM10.5001 13.75L11.5001 13.75L11.5001 10.8105L10.5001 10.8105L9.50006 10.8105L9.50006 13.75L10.5001 13.75ZM10.5001 10.8105L9.79295 10.1034L8.82323 11.0732L9.53033 11.7803L10.2374 12.4874L11.2072 11.5177L10.5001 10.8105ZM9.53033 11.7803L8.82327 11.0731C8.9209 10.9755 9.07922 10.9755 9.17685 11.0731L8.46979 11.7803L7.76272 12.4874C8.44612 13.1707 9.554 13.1707 10.2374 12.4874L9.53033 11.7803ZM8.46979 11.7803L9.17701 11.0733C9.27451 11.1708 9.27465 11.3291 9.17693 11.4268L8.46979 10.7197L7.76264 10.0127C7.07926 10.6961 7.07949 11.804 7.76256 12.4873L8.46979 11.7803ZM8.46979 10.7197L9.17689 11.4268L11.4269 9.17683L10.7198 8.46973L10.0127 7.76262L7.76268 10.0126L8.46979 10.7197ZM10.7198 8.46973L11.4269 9.17683C11.3801 9.22364 11.3166 9.24999 11.2502 9.25L11.2501 8.25L11.2499 7.25C10.7858 7.25008 10.3407 7.43457 10.0127 7.76262L10.7198 8.46973ZM11.2501 8.25L11.2501 9.25C11.1833 9.25 11.1199 9.2235 11.0733 9.17695L11.7803 8.46973L12.4873 7.76251C12.1595 7.43475 11.7145 7.25 11.2501 7.25L11.2501 8.25ZM11.7803 8.46973L11.0732 9.17683L13.3232 11.4268L14.0303 10.7197L14.7374 10.0126L12.4874 7.76262L11.7803 8.46973ZM14.0303 10.7197L13.3232 11.4268C13.2256 11.3292 13.2256 11.1708 13.3232 11.0732L14.0303 11.7803L14.7374 12.4874C15.4209 11.804 15.4208 10.696 14.7375 10.0126L14.0303 10.7197ZM14.0303 11.7803L13.3233 11.0731C13.4208 10.9756 13.5792 10.9755 13.6769 11.0732L12.9698 11.7803L12.2627 12.4874C12.9461 13.1709 14.054 13.1707 14.7374 12.4874L14.0303 11.7803ZM12.9698 11.7803L13.6769 11.0732L12.7072 10.1034L12.0001 10.8105L11.293 11.5177L12.2627 12.4874L12.9698 11.7803ZM12.0001 10.8105L11.0001 10.8105L11.0001 13.75L12.0001 13.75L13.0001 13.75L13.0001 10.8105L12.0001 10.8105ZM12.0001 13.75L11.0001 13.75C11.0001 13.6119 11.112 13.5 11.2501 13.5L11.2501 14.5L11.2501 15.5C12.2166 15.5 13.0001 14.7165 13.0001 13.75L12.0001 13.75Z" fill="#E6E6E6" mask="url(#path-6-outside-2_2535_10372)"/>
</g>
<defs>
<clipPath id="clip0_2535_10372">
<rect width="16" height="16" fill="white"/>
</clipPath>
</defs>
</svg>
