<svg width="16" height="16" viewBox="0 0 16 16" fill="none" xmlns="http://www.w3.org/2000/svg">
<mask id="path-1-inside-1_2535_19391" fill="white">
<path d="M8 1C11.2925 1 14 3.53094 14 6.69824C13.9999 9.09524 12.5393 11.4081 11.1865 13.0537C10.4982 13.891 9.81111 14.5867 9.29688 15.0732C9.03934 15.3169 8.82393 15.5095 8.67188 15.6416C8.5959 15.7076 8.53506 15.7588 8.49316 15.7939C8.47239 15.8113 8.45572 15.8246 8.44434 15.834L8.43164 15.8457L8.42773 15.8486L8.42578 15.8496C8.17903 16.0494 7.82087 16.0496 7.57422 15.8496L7.57227 15.8486L7.56836 15.8457L7.55566 15.834C7.54428 15.8246 7.52761 15.8113 7.50684 15.7939C7.46494 15.7588 7.4041 15.7076 7.32812 15.6416C7.17607 15.5095 6.96066 15.3169 6.70312 15.0732C6.18889 14.5867 5.50182 13.891 4.81348 13.0537C3.46065 11.4081 2.0001 9.09524 2 6.69824C2 3.53094 4.70749 1 8 1ZM8 11.5C7.58579 11.5 7.25 11.8358 7.25 12.25C7.25 12.6642 7.58579 13 8 13C8.41421 13 8.75 12.6642 8.75 12.25C8.75 11.8358 8.41421 11.5 8 11.5ZM9.36426 3.91602C8.50941 3.4277 7.45202 3.46375 6.63281 4.00977L6.08398 4.37598C5.73934 4.60574 5.64621 5.07137 5.87598 5.41602C6.10574 5.76066 6.57137 5.85379 6.91602 5.62402L7.46484 5.25781C7.81138 5.02691 8.25853 5.0122 8.62012 5.21875C9.31658 5.61673 9.3666 6.60212 8.71387 7.06836L7.56445 7.88965C7.36736 8.03043 7.25 8.25779 7.25 8.5V9.5C7.25 9.91421 7.58579 10.25 8 10.25C8.41421 10.25 8.75 9.91421 8.75 9.5V8.88574L9.58594 8.28906C11.1289 7.18693 11.0106 4.85679 9.36426 3.91602Z"/>
</mask>
<path d="M8 1C11.2925 1 14 3.53094 14 6.69824C13.9999 9.09524 12.5393 11.4081 11.1865 13.0537C10.4982 13.891 9.81111 14.5867 9.29688 15.0732C9.03934 15.3169 8.82393 15.5095 8.67188 15.6416C8.5959 15.7076 8.53506 15.7588 8.49316 15.7939C8.47239 15.8113 8.45572 15.8246 8.44434 15.834L8.43164 15.8457L8.42773 15.8486L8.42578 15.8496C8.17903 16.0494 7.82087 16.0496 7.57422 15.8496L7.57227 15.8486L7.56836 15.8457L7.55566 15.834C7.54428 15.8246 7.52761 15.8113 7.50684 15.7939C7.46494 15.7588 7.4041 15.7076 7.32812 15.6416C7.17607 15.5095 6.96066 15.3169 6.70312 15.0732C6.18889 14.5867 5.50182 13.891 4.81348 13.0537C3.46065 11.4081 2.0001 9.09524 2 6.69824C2 3.53094 4.70749 1 8 1ZM8 11.5C7.58579 11.5 7.25 11.8358 7.25 12.25C7.25 12.6642 7.58579 13 8 13C8.41421 13 8.75 12.6642 8.75 12.25C8.75 11.8358 8.41421 11.5 8 11.5ZM9.36426 3.91602C8.50941 3.4277 7.45202 3.46375 6.63281 4.00977L6.08398 4.37598C5.73934 4.60574 5.64621 5.07137 5.87598 5.41602C6.10574 5.76066 6.57137 5.85379 6.91602 5.62402L7.46484 5.25781C7.81138 5.02691 8.25853 5.0122 8.62012 5.21875C9.31658 5.61673 9.3666 6.60212 8.71387 7.06836L7.56445 7.88965C7.36736 8.03043 7.25 8.25779 7.25 8.5V9.5C7.25 9.91421 7.58579 10.25 8 10.25C8.41421 10.25 8.75 9.91421 8.75 9.5V8.88574L9.58594 8.28906C11.1289 7.18693 11.0106 4.85679 9.36426 3.91602Z" fill="#333333"/>
<path d="M14 6.69824L16 6.69833V6.69824H14ZM11.1865 13.0537L12.7315 14.3238L12.7315 14.3238L11.1865 13.0537ZM9.29688 15.0732L10.6714 16.5261L10.6714 16.5261L9.29688 15.0732ZM8.67188 15.6416L9.9836 17.1514L9.98363 17.1513L8.67188 15.6416ZM8.49316 15.7939L9.77762 17.327L9.77771 17.3269L8.49316 15.7939ZM8.44434 15.834L7.17249 14.2905L7.1291 14.3262L7.08778 14.3644L8.44434 15.834ZM8.43164 15.8457L9.63164 17.4457L9.71325 17.3845L9.7882 17.3153L8.43164 15.8457ZM8.42773 15.8486L9.32216 17.6375L9.48346 17.5568L9.62773 17.4486L8.42773 15.8486ZM8.42578 15.8496L7.53135 14.0608L7.33641 14.1582L7.16705 14.2954L8.42578 15.8496ZM7.57422 15.8496L8.83394 14.2962L8.66416 14.1585L8.46865 14.0608L7.57422 15.8496ZM7.57227 15.8486L6.37227 17.4486L6.51654 17.5568L6.67784 17.6375L7.57227 15.8486ZM7.56836 15.8457L6.2118 17.3153L6.28675 17.3845L6.36836 17.4457L7.56836 15.8457ZM7.55566 15.834L8.91222 14.3644L8.8709 14.3262L8.82751 14.2905L7.55566 15.834ZM7.50684 15.7939L6.22229 17.3269L6.22238 17.327L7.50684 15.7939ZM7.32812 15.6416L6.01637 17.1513L6.0164 17.1514L7.32812 15.6416ZM6.70312 15.0732L5.3286 16.5261L5.32862 16.5261L6.70312 15.0732ZM4.81348 13.0537L3.26853 14.3238L3.26853 14.3238L4.81348 13.0537ZM2 6.69824H0V6.69833L2 6.69824ZM9.36426 3.91602L10.3565 2.17953L10.3563 2.17938L9.36426 3.91602ZM6.63281 4.00977L5.52358 2.34555L5.52273 2.34612L6.63281 4.00977ZM6.08398 4.37598L7.19338 6.04008L7.19407 6.03962L6.08398 4.37598ZM5.87598 5.41602L4.21188 6.52542L4.21188 6.52542L5.87598 5.41602ZM6.91602 5.62402L8.02542 7.28812L8.0261 7.28767L6.91602 5.62402ZM7.46484 5.25781L6.35583 3.59345L6.35476 3.59417L7.46484 5.25781ZM8.62012 5.21875L9.61239 3.48226L9.61214 3.48212L8.62012 5.21875ZM8.71387 7.06836L7.55139 5.44089L7.55113 5.44108L8.71387 7.06836ZM7.56445 7.88965L8.72693 9.51711L8.72719 9.51693L7.56445 7.88965ZM8.75 8.88574L7.58806 7.25789L6.75 7.85609V8.88574H8.75ZM9.58594 8.28906L10.7479 9.91691L10.7484 9.91653L9.58594 8.28906ZM8 1V3C10.2959 3 12 4.74047 12 6.69824H14H16C16 2.32141 12.2891 -1 8 -1V1ZM14 6.69824L12 6.69816C11.9999 8.36094 10.9375 10.2073 9.64157 11.7836L11.1865 13.0537L12.7315 14.3238C14.1412 12.609 15.9999 9.82953 16 6.69833L14 6.69824ZM11.1865 13.0537L9.64158 11.7836C9.01984 12.5399 8.39398 13.1742 7.92236 13.6204L9.29688 15.0732L10.6714 16.5261C11.2282 15.9992 11.9765 15.2421 12.7315 14.3238L11.1865 13.0537ZM9.29688 15.0732L7.92237 13.6204C7.68668 13.8434 7.4923 14.017 7.36012 14.1319L8.67188 15.6416L9.98363 17.1513C10.1556 17.002 10.392 16.7904 10.6714 16.5261L9.29688 15.0732ZM8.67188 15.6416L7.36015 14.1318C7.29676 14.1869 7.24596 14.2297 7.20862 14.261L8.49316 15.7939L9.77771 17.3269C9.82416 17.288 9.89504 17.2283 9.9836 17.1514L8.67188 15.6416ZM8.49316 15.7939L7.20871 14.2609C7.20861 14.261 7.20743 14.262 7.20298 14.2656C7.19943 14.2685 7.19884 14.269 7.19284 14.2738C7.18882 14.2771 7.18108 14.2834 7.17249 14.2905L8.44434 15.834L9.71618 17.3775C9.71329 17.3799 9.7119 17.381 9.71485 17.3786C9.71584 17.3778 9.72285 17.3721 9.72749 17.3683C9.7394 17.3586 9.75695 17.3443 9.77762 17.327L8.49316 15.7939ZM8.44434 15.834L7.08778 14.3644L7.07508 14.3761L8.43164 15.8457L9.7882 17.3153L9.8009 17.3036L8.44434 15.834ZM8.43164 15.8457L7.23164 14.2457L7.22773 14.2486L8.42773 15.8486L9.62773 17.4486L9.63164 17.4457L8.43164 15.8457ZM8.42773 15.8486L7.53331 14.0598L7.53135 14.0608L8.42578 15.8496L9.32021 17.6385L9.32216 17.6375L8.42773 15.8486ZM8.42578 15.8496L7.16705 14.2954C7.65333 13.9016 8.34545 13.9001 8.83394 14.2962L7.57422 15.8496L6.3145 17.403C7.29629 18.1992 8.70473 18.1973 9.68452 17.4038L8.42578 15.8496ZM7.57422 15.8496L8.46865 14.0608L8.46669 14.0598L7.57227 15.8486L6.67784 17.6375L6.67979 17.6385L7.57422 15.8496ZM7.57227 15.8486L8.77227 14.2486L8.76836 14.2457L7.56836 15.8457L6.36836 17.4457L6.37227 17.4486L7.57227 15.8486ZM7.56836 15.8457L8.92492 14.3761L8.91222 14.3644L7.55566 15.834L6.1991 17.3036L6.2118 17.3153L7.56836 15.8457ZM7.55566 15.834L8.82751 14.2905C8.81892 14.2834 8.81118 14.2771 8.80716 14.2738C8.80116 14.269 8.80057 14.2685 8.79702 14.2656C8.79257 14.262 8.79139 14.261 8.79129 14.2609L7.50684 15.7939L6.22238 17.327C6.24305 17.3443 6.2606 17.3586 6.27251 17.3683C6.27715 17.3721 6.28416 17.3778 6.28515 17.3786C6.2881 17.381 6.28671 17.3799 6.28382 17.3775L7.55566 15.834ZM7.50684 15.7939L8.79138 14.261C8.75404 14.2297 8.70324 14.1869 8.63985 14.1318L7.32812 15.6416L6.0164 17.1514C6.10496 17.2283 6.17584 17.288 6.22229 17.3269L7.50684 15.7939ZM7.32812 15.6416L8.63988 14.1319C8.5077 14.017 8.31332 13.8434 8.07763 13.6204L6.70312 15.0732L5.32862 16.5261C5.608 16.7904 5.84444 17.002 6.01637 17.1513L7.32812 15.6416ZM6.70312 15.0732L8.07765 13.6204C7.60602 13.1742 6.98016 12.5399 6.35842 11.7836L4.81348 13.0537L3.26853 14.3238C4.02348 15.2421 4.77175 15.9992 5.3286 16.5261L6.70312 15.0732ZM4.81348 13.0537L6.35843 11.7836C5.06252 10.2073 4.00007 8.36094 4 6.69816L2 6.69824L0 6.69833C0.000135422 9.82953 1.85879 12.609 3.26853 14.3238L4.81348 13.0537ZM2 6.69824H4C4 4.74047 5.70409 3 8 3V1V-1C3.71088 -1 0 2.32141 0 6.69824H2ZM8 11.5V9.5C6.48122 9.5 5.25 10.7312 5.25 12.25H7.25H9.25C9.25 12.9404 8.69036 13.5 8 13.5V11.5ZM7.25 12.25H5.25C5.25 13.7688 6.48122 15 8 15V13V11C8.69036 11 9.25 11.5596 9.25 12.25H7.25ZM8 13V15C9.51878 15 10.75 13.7688 10.75 12.25H8.75H6.75C6.75 11.5596 7.30964 11 8 11V13ZM8.75 12.25H10.75C10.75 10.7312 9.51878 9.5 8 9.5V11.5V13.5C7.30964 13.5 6.75 12.9404 6.75 12.25H8.75ZM9.36426 3.91602L10.3563 2.17938C8.84436 1.31574 6.97355 1.37912 5.52358 2.34555L6.63281 4.00977L7.74205 5.67398C7.93049 5.54837 8.17445 5.53967 8.37225 5.65266L9.36426 3.91602ZM6.63281 4.00977L5.52273 2.34612L4.9739 2.71233L6.08398 4.37598L7.19407 6.03962L7.7429 5.67341L6.63281 4.00977ZM6.08398 4.37598L4.97458 2.71188C3.71088 3.55435 3.36941 5.26171 4.21188 6.52542L5.87598 5.41602L7.54008 4.30662C7.92302 4.88103 7.7678 5.65714 7.19338 6.04008L6.08398 4.37598ZM5.87598 5.41602L4.21188 6.52542C5.05435 7.78912 6.76171 8.13059 8.02542 7.28812L6.91602 5.62402L5.80662 3.95992C6.38103 3.57698 7.15714 3.7322 7.54008 4.30662L5.87598 5.41602ZM6.91602 5.62402L8.0261 7.28767L8.57493 6.92146L7.46484 5.25781L6.35476 3.59417L5.80593 3.96038L6.91602 5.62402ZM7.46484 5.25781L8.57385 6.92217C8.28801 7.11264 7.92176 7.12313 7.6281 6.95538L8.62012 5.21875L9.61214 3.48212C8.59529 2.90126 7.33475 2.94117 6.35583 3.59345L7.46484 5.25781ZM8.62012 5.21875L7.62784 6.95524C7.0583 6.62979 7.01665 5.82285 7.55139 5.44089L8.71387 7.06836L9.87634 8.69583C11.7166 7.38139 11.5749 4.60367 9.61239 3.48226L8.62012 5.21875ZM8.71387 7.06836L7.55113 5.44108L6.40172 6.26237L7.56445 7.88965L8.72719 9.51693L9.87661 8.69564L8.71387 7.06836ZM7.56445 7.88965L6.40198 6.26218C5.68093 6.77722 5.25 7.60987 5.25 8.5H7.25H9.25C9.25 8.9057 9.05379 9.28365 8.72693 9.51711L7.56445 7.88965ZM7.25 8.5H5.25V9.5H7.25H9.25V8.5H7.25ZM7.25 9.5H5.25C5.25 11.0188 6.48122 12.25 8 12.25V10.25V8.25C8.69036 8.25 9.25 8.80964 9.25 9.5H7.25ZM8 10.25V12.25C9.51878 12.25 10.75 11.0188 10.75 9.5H8.75H6.75C6.75 8.80964 7.30964 8.25 8 8.25V10.25ZM8.75 9.5H10.75V8.88574H8.75H6.75V9.5H8.75ZM8.75 8.88574L9.91194 10.5136L10.7479 9.91691L9.58594 8.28906L8.424 6.66121L7.58806 7.25789L8.75 8.88574ZM9.58594 8.28906L10.7484 9.91653C13.4789 7.96617 13.2689 3.84371 10.3565 2.17953L9.36426 3.91602L8.37198 5.6525C8.75236 5.86986 8.77894 6.40768 8.42346 6.6616L9.58594 8.28906Z" fill="#333333" mask="url(#path-1-inside-1_2535_19391)"/>
</svg>
