<svg width="18" height="18" viewBox="0 0 18 18" fill="none" xmlns="http://www.w3.org/2000/svg">
<g clip-path="url(#clip0_2535_10526)">
<path d="M1 2C1 1.44772 1.44772 1 2 1H16C16.5523 1 17 1.44772 17 2V16C17 16.5523 16.5523 17 16 17H2C1.44772 17 1 16.5523 1 16V2Z" fill="white"/>
<path d="M9 5.75C11.8995 5.75 14.25 8.10051 14.25 11V16.25H3.75V11C3.75 8.10051 6.10051 5.75 9 5.75Z" stroke="white" stroke-width="1.5"/>
<path d="M17 17H15V11C15 7.68629 12.3137 5 9 5C5.68629 5 3 7.68629 3 11V17H1V1H17V17Z" fill="#333333"/>
<path d="M4.5 15.5L4.5 11.5L8.5 11.5L8.5 15.5L4.5 15.5Z" fill="#999999"/>
<path d="M10.3636 11.399L6.49988 10.3637L7.53516 6.5L11.3989 7.53528L10.3636 11.399Z" fill="#999999"/>
<path d="M13.813 14.8927L9.92035 15.813L9 11.9204L12.8927 11L13.813 14.8927Z" fill="#999999"/>
<path d="M14 17H4V16H14V17Z" fill="#999999"/>
</g>
<path d="M16 0.5C16.8284 0.5 17.5 1.17157 17.5 2V16C17.5 16.8284 16.8284 17.5 16 17.5H2C1.17157 17.5 0.5 16.8284 0.5 16V2C0.5 1.17157 1.17157 0.5 2 0.5H16Z" stroke="#E6E6E6"/>
<defs>
<clipPath id="clip0_2535_10526">
<path d="M1 2C1 1.44772 1.44772 1 2 1H16C16.5523 1 17 1.44772 17 2V16C17 16.5523 16.5523 17 16 17H2C1.44772 17 1 16.5523 1 16V2Z" fill="white"/>
</clipPath>
</defs>
</svg>
