<svg preserveAspectRatio="none" width="100%" height="100%" overflow="visible" style="display: block;" viewBox="0 0 16 16" fill="none" xmlns="http://www.w3.org/2000/svg">
<g id="jbs/fm1d/boundaries/head-times" clip-path="url(#clip0_0_544)">
<rect width="16" height="16" fill="white"/>
<rect id="Rectangle 172" width="16" height="16" fill="var(--fill-0, #D7D7D7)"/>
<path id="Vector 104" d="M-0.75 14.25L16.75 14.25L16.75 16.75L-0.75 16.75L-0.75 14.25Z" fill="var(--fill-0, #E1455B)" stroke="var(--stroke-0, white)" stroke-width="1.5"/>
<path id="Vector 105" d="M1.25 11.75L16.75 11.75L16.75 14.25L1.25 14.25L1.25 11.75Z" fill="var(--fill-0, #E1455B)" stroke="var(--stroke-0, white)" stroke-width="1.5"/>
<path id="Vector 106" d="M3.25 9.25L15.75 9.25L15.75 11.75L3.25 11.75L3.25 9.25Z" fill="var(--fill-0, #E1455B)" stroke="var(--stroke-0, white)" stroke-width="1.5"/>
<path id="Vector 107" d="M4.25 6.75L13.75 6.75L13.75 9.25L4.25 9.25L4.25 6.75Z" fill="var(--fill-0, #E1455B)" stroke="var(--stroke-0, white)" stroke-width="1.5"/>
<path id="Vector 108" d="M5.25 4.25L11.75 4.25L11.75 6.75L5.25 6.75L5.25 4.25Z" fill="var(--fill-0, #E1455B)" stroke="var(--stroke-0, white)" stroke-width="1.5"/>
<path id="Vector 109" d="M5.25 1.75L9.75 1.75L9.75 4.25L5.25 4.25L5.25 1.75Z" fill="var(--fill-0, #E1455B)" stroke="var(--stroke-0, white)" stroke-width="1.5"/>
</g>
<defs>
<clipPath id="clip0_0_544">
<rect width="16" height="16" fill="white"/>
</clipPath>
</defs>
</svg>
