<svg preserveAspectRatio="none" width="100%" height="100%" overflow="visible" style="display: block;" viewBox="0 0 16 16" fill="none" xmlns="http://www.w3.org/2000/svg">
<g id="jbs/fm1d/boundaries/flow-head" clip-path="url(#clip0_0_357)">
<rect width="16" height="16" fill="white"/>
<rect id="Rectangle 172" width="16" height="16" fill="var(--fill-0, #D7D7D7)"/>
<path id="Vector 104" d="M14.25 3.25L14.25 16.75H16.75L16.75 3.25L14.25 3.25Z" fill="var(--fill-0, #912A91)" stroke="var(--stroke-0, white)" stroke-width="1.5"/>
<path id="Vector 105" d="M11.75 3.25L11.75 16.75H14.25L14.25 3.25L11.75 3.25Z" fill="var(--fill-0, #912A91)" stroke="var(--stroke-0, white)" stroke-width="1.5"/>
<path id="Vector 106" d="M9.25 4.25L9.25 16.75H11.75L11.75 4.25L9.25 4.25Z" fill="var(--fill-0, #912A91)" stroke="var(--stroke-0, white)" stroke-width="1.5"/>
<path id="Vector 107" d="M6.75 5.25L6.75 16.75H9.25L9.25 5.25L6.75 5.25Z" fill="var(--fill-0, #912A91)" stroke="var(--stroke-0, white)" stroke-width="1.5"/>
<path id="Vector 109" d="M4.25 7.25L4.25 16.75H6.75L6.75 7.25L4.25 7.25Z" fill="var(--fill-0, #912A91)" stroke="var(--stroke-0, white)" stroke-width="1.5"/>
<path id="Vector 110" d="M1.75 10.25L1.75 16.75L4.25 16.75L4.25 10.25L1.75 10.25Z" fill="var(--fill-0, #912A91)" stroke="var(--stroke-0, white)" stroke-width="1.5"/>
<path id="Vector 111" d="M-0.75 12.25L-0.75 16.75L1.75 16.75L1.75 12.25L-0.75 12.25Z" fill="var(--fill-0, #912A91)" stroke="var(--stroke-0, white)" stroke-width="1.5"/>
</g>
<defs>
<clipPath id="clip0_0_357">
<rect width="16" height="16" fill="white"/>
</clipPath>
</defs>
</svg>
