<svg width="18" height="18" viewBox="0 0 18 18" fill="none" xmlns="http://www.w3.org/2000/svg">
<g clip-path="url(#clip0_2535_10462)">
<path d="M1 2C1 1.44772 1.44772 1 2 1H16C16.5523 1 17 1.44772 17 2V16C17 16.5523 16.5523 17 16 17H2C1.44772 17 1 16.5523 1 16V2Z" fill="white"/>
<path d="M1 1H17V11H3H1L1 1Z" fill="#D7D7D7"/>
<path d="M17.75 10.25V17.75H11.4141L11.2725 17.1816L9.77246 11.1816L9.53906 10.25H17.75Z" fill="#468AF3" stroke="white" stroke-width="1.5"/>
<rect x="0.25" y="5.25" width="6.5" height="12.5" fill="#468AF3" stroke="white" stroke-width="1.5"/>
<path d="M7.47266 5.25C8.71267 5.25011 9.7997 6.08003 10.126 7.27637L12.7236 16.8027L12.9824 17.75H4.25V8C4.25 6.48122 5.48122 5.25 7 5.25H7.47266Z" fill="#333333" stroke="white" stroke-width="1.5"/>
</g>
<path d="M16 0.5C16.8284 0.5 17.5 1.17157 17.5 2V16C17.5 16.8284 16.8284 17.5 16 17.5H2C1.17157 17.5 0.5 16.8284 0.5 16V2C0.5 1.17157 1.17157 0.5 2 0.5H16Z" stroke="#E6E6E6"/>
<defs>
<clipPath id="clip0_2535_10462">
<path d="M1 2C1 1.44772 1.44772 1 2 1H16C16.5523 1 17 1.44772 17 2V16C17 16.5523 16.5523 17 16 17H2C1.44772 17 1 16.5523 1 16V2Z" fill="white"/>
</clipPath>
</defs>
</svg>
