<svg width="12" height="12" viewBox="0 0 12 12" fill="none" xmlns="http://www.w3.org/2000/svg">
<path d="M8.22487 2.9752C8.44539 2.75469 8.80302 2.75493 9.02369 2.9752C9.24434 3.19585 9.24433 3.55339 9.02369 3.77403L6.79811 5.99962L9.02369 8.2252C9.24433 8.44585 9.24434 8.80339 9.02369 9.02403C8.80305 9.24466 8.44551 9.24467 8.22487 9.02403L5.99928 6.79845L3.77369 9.02403C3.55305 9.24467 3.19551 9.24468 2.97487 9.02403C2.75459 8.80336 2.75435 8.44573 2.97487 8.2252L5.20045 5.99962L2.97487 3.77403C2.7546 3.55336 2.75436 3.19573 2.97487 2.9752C3.19539 2.75468 3.55302 2.75493 3.77369 2.9752L5.99928 5.20079L8.22487 2.9752Z" fill="white"/>
</svg>
