<svg width="18" height="18" viewBox="0 0 18 18" fill="none" xmlns="http://www.w3.org/2000/svg">
<g clip-path="url(#clip0_2535_10417)">
<rect x="1" y="1" width="16" height="16" rx="1" fill="white"/>
<path fill-rule="evenodd" clip-rule="evenodd" d="M17 1H1V17H17V1ZM9 15C12.3137 15 15 12.3137 15 9C15 5.68629 12.3137 3 9 3C5.68629 3 3 5.68629 3 9C3 12.3137 5.68629 15 9 15Z" fill="#333333"/>
<path d="M13.5 9C13.5 10.1935 13.0259 11.3381 12.182 12.182C11.3381 13.0259 10.1935 13.5 9 13.5C7.80653 13.5 6.66193 13.0259 5.81802 12.182C4.97411 11.3381 4.5 10.1935 4.5 9L9 9H13.5Z" fill="#468AF3"/>
</g>
<rect x="0.5" y="0.5" width="17" height="17" rx="1.5" stroke="#E6E6E6"/>
<defs>
<clipPath id="clip0_2535_10417">
<rect x="1" y="1" width="16" height="16" rx="1" fill="white"/>
</clipPath>
</defs>
</svg>
