<svg width="16" height="16" viewBox="0 0 16 16" fill="none" xmlns="http://www.w3.org/2000/svg">
<path d="M8 1C11.866 1 15 4.13401 15 8V14.2627C15 14.6696 14.6696 15 14.2627 15H8C4.13401 15 1 11.866 1 8C1 4.13401 4.13401 1 8 1ZM8 2.5C4.96243 2.5 2.5 4.96243 2.5 8C2.5 11.0376 4.96243 13.5 8 13.5H13.5V8C13.5 4.96243 11.0376 2.5 8 2.5ZM11 8.75C11.4142 8.75 11.75 9.08579 11.75 9.5C11.75 9.91421 11.4142 10.25 11 10.25H6C5.58579 10.25 5.25 9.91421 5.25 9.5C5.25 9.08579 5.58579 8.75 6 8.75H11ZM9.5 5.75C9.91421 5.75 10.25 6.08579 10.25 6.5C10.25 6.91421 9.91421 7.25 9.5 7.25H6C5.58579 7.25 5.25 6.91421 5.25 6.5C5.25 6.08579 5.58579 5.75 6 5.75H9.5Z" fill="#333333"/>
</svg>
