<svg preserveAspectRatio="none" width="100%" height="100%" overflow="visible" style="display: block;" viewBox="0 0 16 16" fill="none" xmlns="http://www.w3.org/2000/svg">
<g id="jbs/fm1d/conduits/full-arch" clip-path="url(#clip0_0_431)">
<rect width="16" height="16" fill="white"/>
<path id="Vector 160" d="M14 14H2V8H14V14Z" fill="var(--fill-0, #468AF3)"/>
<path id="Subtract" d="M16 16H0V0H16V16ZM8 2C3.2 2 2 10 2 14H14C14 10 12.8 2 8 2Z" fill="var(--fill-0, #333333)"/>
<path id="Vector 159" d="M8 2.75C9.88559 2.75 11.2139 4.30713 12.0947 6.75391C12.8511 8.85483 13.1689 11.3535 13.2354 13.25H2.76465C2.8311 11.3535 3.14894 8.85483 3.90527 6.75391C4.78611 4.30713 6.11441 2.75 8 2.75Z" stroke="var(--stroke-0, white)" stroke-width="1.5"/>
</g>
<defs>
<clipPath id="clip0_0_431">
<rect width="16" height="16" fill="white"/>
</clipPath>
</defs>
</svg>
