<svg width="18" height="18" viewBox="0 0 18 18" fill="none" xmlns="http://www.w3.org/2000/svg">
<g clip-path="url(#clip0_2535_10400)">
<rect x="0.833496" y="0.833333" width="16" height="16" rx="1" fill="white"/>
<path d="M0.833496 0.833333H16.8335V16.8333H13.8335C12.8335 16.8333 3.8335 16.8333 3.8335 16.8333H0.833496V0.833333Z" fill="#D7D7D7"/>
<path d="M17.7192 8.08333L17.5737 8.95638L16.8335 8.83333C17.5128 8.94655 17.5683 8.95619 17.5728 8.95736V8.96126C17.5724 8.96306 17.5722 8.96562 17.5718 8.9681C17.5709 8.97317 17.5693 8.97985 17.5679 8.98763C17.5649 9.00357 17.5607 9.0254 17.5552 9.05208C17.5442 9.10568 17.5275 9.18022 17.5044 9.27279C17.458 9.45836 17.3842 9.71773 17.2729 10.0257C17.0512 10.6399 16.6755 11.4604 16.0581 12.2835C14.8032 13.9566 12.5883 15.5833 8.8335 15.5833C5.07872 15.5833 2.86381 13.9566 1.60889 12.2835C0.99151 11.4604 0.615838 10.6399 0.394043 10.0257C0.282825 9.71773 0.20899 9.45836 0.162598 9.27279C0.139459 9.18022 0.122839 9.10568 0.111816 9.05208C0.106332 9.0254 0.102079 9.00357 0.0991211 8.98763C0.0976774 8.97985 0.0961084 8.97317 0.0952148 8.9681C0.0947794 8.96562 0.0945461 8.96306 0.0942383 8.96126V8.95736C0.0987082 8.95619 0.154173 8.94655 0.833496 8.83333L0.0932617 8.95638L-0.0522461 8.08333H17.7192Z" fill="#468AF3" stroke="white" stroke-width="1.5"/>
<path d="M0.833496 7.08333C1.7315 7.08333 2.34881 7.75651 2.7749 8.31771C3.00677 8.62313 3.23681 8.97353 3.46436 9.32064C3.6968 9.67522 3.93281 10.0351 4.19189 10.3939C5.21845 11.8153 6.52232 13.0833 8.8335 13.0833C11.1447 13.0833 12.4485 11.8153 13.4751 10.3939C13.7342 10.0351 13.9702 9.67522 14.2026 9.32064C14.4302 8.97353 14.6602 8.62313 14.8921 8.31771C15.3182 7.75651 15.9355 7.08333 16.8335 7.08333H17.5835V17.5833H0.0834961V7.08333H0.833496Z" fill="#333333" stroke="white" stroke-width="1.5"/>
</g>
<rect x="0.416829" y="0.416667" width="16.8333" height="16.8333" rx="1.41667" stroke="#E6E6E6" stroke-width="0.833333"/>
<defs>
<clipPath id="clip0_2535_10400">
<rect x="0.833496" y="0.833333" width="16" height="16" rx="1" fill="white"/>
</clipPath>
</defs>
</svg>
