<svg preserveAspectRatio="none" width="100%" height="100%" overflow="visible" style="display: block;" viewBox="0 0 16 16" fill="none" xmlns="http://www.w3.org/2000/svg">
<g id="jbs/fm1d/weirs/crump-weir" clip-path="url(#clip0_0_367)">
<rect width="16" height="16" fill="white"/>
<path id="Rectangle 249" d="M1 0H16V9L1 0Z" fill="var(--fill-0, #D7D7D7)"/>
<path id="Rectangle 248" d="M16.75 16.75H-0.75V-0.75H0C0.516039 -0.75 1.10523 -0.583741 1.69629 -0.355469C2.30243 -0.121344 2.98061 0.20621 3.69629 0.587891C5.12718 1.35104 6.77444 2.36495 8.39355 3.36133C10.0241 4.36476 11.6274 5.35112 13.0088 6.08789C13.699 6.45602 14.3183 6.75372 14.8447 6.95703C15.3863 7.16614 15.7661 7.25 16 7.25H16.75V16.75Z" fill="var(--fill-0, #468AF3)" stroke="var(--stroke-0, white)" stroke-width="1.5"/>
<path id="Rectangle 247" d="M2.80469 7.84277C3.26131 6.81537 4.55466 6.47874 5.4541 7.15332L16.4502 15.4004L18.25 16.75H-1.1543L-0.685547 15.6953L2.80469 7.84277Z" fill="var(--fill-0, #333333)" stroke="var(--stroke-0, white)" stroke-width="1.5"/>
</g>
<defs>
<clipPath id="clip0_0_367">
<rect width="16" height="16" fill="white"/>
</clipPath>
</defs>
</svg>
