<svg width="12" height="12" viewBox="0 0 12 12" fill="none" xmlns="http://www.w3.org/2000/svg">
<path d="M2.25 4.43457C2.56204 4.43457 2.81543 4.68796 2.81543 5V9.18457H8C8.31204 9.18457 8.56543 9.43796 8.56543 9.75C8.56543 10.062 8.31204 10.3154 8 10.3154H2.25C1.93796 10.3154 1.68457 10.062 1.68457 9.75V5C1.68457 4.68796 1.93796 4.43457 2.25 4.43457ZM10.5 1.93457C10.812 1.93457 11.0654 2.18796 11.0654 2.5V7.625C11.0654 7.93704 10.812 8.19043 10.5 8.19043H4.375C4.06296 8.19043 3.80957 7.93704 3.80957 7.625V2.5C3.80957 2.18796 4.06296 1.93457 4.375 1.93457H10.5ZM4.94043 7.05957H9.93457V3.06543H4.94043V7.05957Z" fill="white"/>
</svg>
