<svg width="16" height="16" viewBox="0 0 16 16" fill="none" xmlns="http://www.w3.org/2000/svg">
<path fill-rule="evenodd" clip-rule="evenodd" d="M9.3457 4.73151C9.446 4.69897 9.554 4.69897 9.6543 4.73151C9.76842 4.76859 9.86757 4.86763 10.0654 5.0655L10.9346 5.93464C11.1324 6.13245 11.2315 6.23166 11.2686 6.34577C11.3011 6.44605 11.3011 6.55409 11.2686 6.65436C11.2315 6.76849 11.1324 6.86763 10.9346 7.0655L4.23438 13.7657C4.1479 13.8522 4.10417 13.8949 4.05371 13.9258C4.009 13.9532 3.96016 13.9742 3.90918 13.9864C3.85182 14.0001 3.7907 14.0001 3.66895 14.0001H2.7998C2.52017 14.0001 2.38033 13.9997 2.27344 13.9454C2.17936 13.8974 2.10262 13.8207 2.05469 13.7266C2.00031 13.6197 2 13.4799 2 13.2003V12.3311C2 12.209 1.99987 12.1474 2.01367 12.0899C2.02593 12.039 2.0459 11.99 2.07324 11.9454C2.10416 11.895 2.14798 11.8521 2.23438 11.7657L8.93457 5.0655C9.13243 4.86763 9.23158 4.76859 9.3457 4.73151ZM11.8457 2.23151C11.946 2.19897 12.054 2.19897 12.1543 2.23151C12.2684 2.26859 12.3676 2.36763 12.5654 2.5655L13.4346 3.43464C13.6324 3.63245 13.7315 3.73166 13.7686 3.84577C13.8011 3.94605 13.8011 4.05409 13.7686 4.15436C13.7315 4.26849 13.6324 4.36763 13.4346 4.5655L13.0654 4.93464C12.8676 5.13245 12.7684 5.23155 12.6543 5.26862C12.554 5.30114 12.446 5.30114 12.3457 5.26862C12.2316 5.23155 12.1324 5.13245 11.9346 4.93464L11.0654 4.0655C10.8676 3.86763 10.7685 3.76849 10.7314 3.65436C10.6989 3.55409 10.6989 3.44605 10.7314 3.34577C10.7685 3.23166 10.8676 3.13245 11.0654 2.93464L11.4346 2.5655C11.6324 2.36763 11.7316 2.26859 11.8457 2.23151Z" fill="#333333"/>
</svg>
