<svg preserveAspectRatio="none" width="100%" height="100%" overflow="visible" style="display: block;" viewBox="0 0 16 16" fill="none" xmlns="http://www.w3.org/2000/svg">
<g id="jbs/fm1d/weirs/flat-V-weir" clip-path="url(#clip0_0_333)">
<rect width="16" height="16" fill="white"/>
<path id="Rectangle 249" d="M0 0H16V8H8.5H0V0Z" fill="var(--fill-0, #D7D7D7)"/>
<path id="Rectangle 248" d="M16.75 16.75H-0.75V3.25H5C6.58824 3.25 7.75712 3.51554 8.71094 3.93945C9.65439 4.35877 10.3487 4.918 10.9688 5.41406C11.5987 5.918 12.1544 6.35877 12.8984 6.68945C13.6321 7.01554 14.5882 7.25 16 7.25H16.75V16.75Z" fill="var(--fill-0, #468AF3)" stroke="var(--stroke-0, white)" stroke-width="1.5"/>
<path id="Rectangle 247" d="M6.86133 9.98828C7.51663 9.42674 8.48337 9.42674 9.13867 9.98828L15.4883 15.4307L17.0273 16.75H-1.02734L0.511719 15.4307L6.86133 9.98828Z" fill="var(--fill-0, #333333)" stroke="var(--stroke-0, white)" stroke-width="1.5"/>
</g>
<defs>
<clipPath id="clip0_0_333">
<rect width="16" height="16" fill="white"/>
</clipPath>
</defs>
</svg>
