<svg width="18" height="18" viewBox="0 0 18 18" fill="none" xmlns="http://www.w3.org/2000/svg">
<g clip-path="url(#clip0_2535_10441)">
<path d="M1 2C1 1.44772 1.44772 1 2 1H16C16.5523 1 17 1.44772 17 2V16C17 16.5523 16.5523 17 16 17H2C1.44772 17 1 16.5523 1 16V2Z" fill="white"/>
<rect x="1" y="1" width="16" height="16" fill="#D7D7D7"/>
<path d="M2.75 17.75L0.25 17.75L0.25 14.25L2.75 14.25L2.75 17.75Z" fill="#0A8058" stroke="white" stroke-width="1.5"/>
<path d="M7.75 17.75L5.25 17.75L5.25 5.25L7.75 5.25L7.75 17.75Z" fill="#0A8058" stroke="white" stroke-width="1.5"/>
<path d="M5.25 17.75L2.75 17.75L2.75 11.25L5.25 11.25L5.25 17.75Z" fill="#0A8058" stroke="white" stroke-width="1.5"/>
<path d="M10.25 17.75L7.75 17.75L7.75 6.25L10.25 6.25L10.25 17.75Z" fill="#0A8058" stroke="white" stroke-width="1.5"/>
<path d="M12.75 17.75L10.25 17.75L10.25 9.25L12.75 9.25L12.75 17.75Z" fill="#0A8058" stroke="white" stroke-width="1.5"/>
<path d="M15.25 17.75L12.75 17.75L12.75 11.25L15.25 11.25L15.25 17.75Z" fill="#0A8058" stroke="white" stroke-width="1.5"/>
<path d="M17.75 17.75L15.25 17.75L15.25 12.25L17.75 12.25L17.75 17.75Z" fill="#0A8058" stroke="white" stroke-width="1.5"/>
</g>
<path d="M16 0.5C16.8284 0.5 17.5 1.17157 17.5 2V16C17.5 16.8284 16.8284 17.5 16 17.5H2C1.17157 17.5 0.5 16.8284 0.5 16V2C0.5 1.17157 1.17157 0.5 2 0.5H16Z" stroke="#E6E6E6"/>
<defs>
<clipPath id="clip0_2535_10441">
<path d="M1 2C1 1.44772 1.44772 1 2 1H16C16.5523 1 17 1.44772 17 2V16C17 16.5523 16.5523 17 16 17H2C1.44772 17 1 16.5523 1 16V2Z" fill="white"/>
</clipPath>
</defs>
</svg>
