<svg preserveAspectRatio="none" width="100%" height="100%" overflow="visible" style="display: block;" viewBox="0 0 16 16" fill="none" xmlns="http://www.w3.org/2000/svg">
<g id="FP-workspace-hydrology">
<path id="icon" d="M14.6667 7.33333C13 7.33333 12.8148 9.33333 11.3333 9.33333C9.85186 9.33333 9.48149 7.33333 8.00001 7.33333C6.51853 7.33333 6.14816 9.33333 4.66668 9.33333C3.1852 9.33333 3.00001 7.33333 1.33334 7.33333M14.6667 12C13 12 12.8148 14 11.3333 14C9.85186 14 9.48149 12 8.00001 12C6.51853 12 6.14816 14 4.66668 14C3.1852 14 3.00001 12 1.33334 12M14.6667 2.66666C13 2.66666 12.8148 4.66666 11.3333 4.66666C9.85186 4.66666 9.48149 2.66666 8.00001 2.66666C6.51853 2.66666 6.14816 4.66666 4.66668 4.66666C3.1852 4.66666 3.00001 2.66666 1.33334 2.66666" stroke="var(--stroke-0, black)" stroke-width="1.5" stroke-linecap="round" stroke-linejoin="round"/>
</g>
</svg>
