<svg preserveAspectRatio="none" width="100%" height="100%" overflow="visible" style="display: block;" viewBox="0 0 16 16" fill="none" xmlns="http://www.w3.org/2000/svg">
<g id="jbs/gui/freeform-select">
<path id="icon" d="M10.696 0.780579C12.1244 0.830898 13.4731 1.3721 14.1667 2.57355C14.86 3.77487 14.6546 5.21297 13.9841 6.47491C13.3074 7.74817 12.1081 8.95756 10.571 9.84503C10.1373 10.0955 9.69389 10.3082 9.24976 10.4857C10.3342 11.7527 10.0388 13.8191 8.42456 14.6263L8.33472 14.6712C7.96442 14.8559 7.51402 14.7054 7.32886 14.3353C7.14397 13.965 7.29469 13.5147 7.66479 13.3294L7.75366 13.2845C8.53942 12.8916 8.62577 11.7695 7.87769 11.2513C7.75884 11.169 7.64946 11.0801 7.54956 10.9857C6.99839 11.0892 6.4593 11.1336 5.94604 11.1155C4.51773 11.0653 3.16917 10.5247 2.47534 9.32355C1.78169 8.1221 1.98737 6.68335 2.65796 5.4212C3.33466 4.14796 4.53303 2.93758 6.07007 2.05011C7.60723 1.16263 9.25496 0.729993 10.696 0.780579ZM10.6423 2.2796C9.5241 2.24044 8.15251 2.57965 6.82007 3.34894C5.4877 4.11821 4.50833 5.13637 3.98315 6.12433C3.45223 7.12337 3.43223 7.9813 3.77417 8.57355C4.11621 9.16552 4.86851 9.57677 5.99878 9.61652C6.24708 9.62523 6.50804 9.6135 6.77808 9.58429C6.51011 8.23396 7.2861 6.73169 8.88452 6.44073C9.74092 6.28503 10.6196 6.55962 11.2351 7.17511L11.4187 7.3587C11.9542 6.85019 12.3733 6.30723 12.658 5.77179C13.1888 4.77307 13.2095 3.9158 12.8679 3.32355C12.526 2.73128 11.773 2.31931 10.6423 2.2796ZM9.15308 7.91632C8.49358 8.03641 8.14026 8.67155 8.24097 9.25812C8.76145 9.08516 9.29462 8.85014 9.82104 8.5462C9.9621 8.46476 10.0982 8.37897 10.2312 8.2923L10.1746 8.23566C9.90712 7.96821 9.5252 7.84866 9.15308 7.91632Z" fill="var(--fill-0, black)"/>
</g>
</svg>
