<svg width="16" height="16" viewBox="0 0 16 16" fill="none" xmlns="http://www.w3.org/2000/svg">
<rect width="16" height="16" fill="#1E1E1E"/>
<g id="Flood Iconography">
<g id="Ribbon">
<path d="M-120 -642C-120 -644.209 -118.209 -646 -116 -646H516C518.209 -646 520 -644.209 520 -642V1523C520 1525.21 518.209 1527 516 1527H-116C-118.209 1527 -120 1525.21 -120 1523V-642Z" fill="white"/>
<g id="Advanced dropdown">
<g id="jbs/fm1d/advanced/general-loss" clip-path="url(#clip0_1_136)">
<rect width="16" height="16" fill="white"/>
<path id="Rectangle 249" d="M0 0H16V8H0V0Z" fill="#D7D7D7"/>
<path id="Rectangle 251" d="M8.75 5.25V8.25H16.75V12.75H-0.75V5.25H8.75Z" fill="#468AF3" stroke="white" stroke-width="1.5"/>
<path id="Rectangle 247" d="M17 13V17H-1V13H17Z" fill="#333333" stroke="white" stroke-width="2"/>
<path id="Rectangle 250" d="M16.75 12.25V16.75H-0.75V12.25H16.75Z" fill="#333333" stroke="white" stroke-width="1.5"/>
</g>
</g>
</g>
</g>
<defs>
<clipPath id="clip0_1_136">
<rect width="16" height="16" fill="white"/>
</clipPath>
</defs>
</svg>
