<svg preserveAspectRatio="none" width="100%" height="100%" overflow="visible" style="display: block;" viewBox="0 0 12 12" fill="none" xmlns="http://www.w3.org/2000/svg">
<g id="LHS icon">
<path id="icon" d="M2.4501 9.3251C2.61557 9.15963 2.88422 9.15966 3.04971 9.3251C3.2152 9.49059 3.2152 9.75923 3.04971 9.92471L2.36221 10.6122C2.19673 10.7777 1.92809 10.7777 1.7626 10.6122C1.59716 10.4467 1.59713 10.1781 1.7626 10.0126L2.4501 9.3251ZM5.2001 6.5751C5.36557 6.40963 5.63422 6.40966 5.79971 6.5751C5.9652 6.74059 5.9652 7.00923 5.79971 7.17471L4.42471 8.54971C4.25923 8.7152 3.99059 8.7152 3.8251 8.54971C3.65966 8.38422 3.65963 8.11557 3.8251 7.9501L5.2001 6.5751ZM7.9501 3.8251C8.11557 3.65963 8.38422 3.65966 8.54971 3.8251C8.7152 3.99059 8.7152 4.25923 8.54971 4.42471L7.17471 5.79971C7.00923 5.9652 6.74059 5.9652 6.5751 5.79971C6.40966 5.63422 6.40963 5.36557 6.5751 5.2001L7.9501 3.8251ZM10.0126 1.7626C10.1781 1.59713 10.4467 1.59716 10.6122 1.7626C10.7777 1.92809 10.7777 2.19673 10.6122 2.36221L9.92471 3.04971C9.75923 3.2152 9.49059 3.2152 9.3251 3.04971C9.15966 2.88422 9.15963 2.61557 9.3251 2.4501L10.0126 1.7626Z" fill="var(--fill-0, #0A7DFF)"/>
</g>
</svg>
