<svg preserveAspectRatio="none" width="100%" height="100%" overflow="visible" style="display: block;" viewBox="0 0 12 12" fill="none" xmlns="http://www.w3.org/2000/svg">
<g id="jbs/general/polygon">
<path id="icon" d="M3.75 1.07617C3.98403 1.07617 4.17383 1.26597 4.17383 1.5V2.20117H7.82617V1.5C7.82617 1.38761 7.87073 1.27966 7.9502 1.2002C8.02966 1.12073 8.13761 1.07617 8.25 1.07617H10.5C10.734 1.07617 10.9238 1.26597 10.9238 1.5V3.75C10.9238 3.86239 10.8793 3.97034 10.7998 4.0498C10.7203 4.12927 10.6124 4.17383 10.5 4.17383H9.79883V7.82617H10.5C10.734 7.82617 10.9238 8.01597 10.9238 8.25V10.5C10.9238 10.734 10.734 10.9238 10.5 10.9238H8.25C8.01597 10.9238 7.82617 10.734 7.82617 10.5V9.79883H4.17383V10.5C4.17383 10.734 3.98403 10.9238 3.75 10.9238H1.5C1.26597 10.9238 1.07617 10.734 1.07617 10.5V8.25C1.07617 8.01597 1.26597 7.82617 1.5 7.82617H2.20117V4.17383H1.5C1.26597 4.17383 1.07617 3.98403 1.07617 3.75V1.5C1.07617 1.26597 1.26597 1.07617 1.5 1.07617H3.75ZM1.92383 10.0762H3.32617V8.67383H1.92383V10.0762ZM8.67383 10.0762H10.0762V8.67383H8.67383V10.0762ZM4.17383 3.75C4.17383 3.98403 3.98403 4.17383 3.75 4.17383H3.04883V7.82617H3.75C3.98403 7.82617 4.17383 8.01597 4.17383 8.25V8.95117H7.82617V8.25C7.82617 8.01597 8.01597 7.82617 8.25 7.82617H8.95117V4.17383H8.25C8.01597 4.17383 7.82617 3.98403 7.82617 3.75V3.04883H4.17383V3.75ZM1.92383 3.32617H3.32617V1.92383H1.92383V3.32617ZM8.67383 3.32617H10.0762V1.92383H8.67383V3.32617Z" fill="var(--fill-0, #0A7DFF)"/>
</g>
</svg>
