<svg preserveAspectRatio="none" width="100%" height="100%" overflow="visible" style="display: block;" viewBox="0 0 16 16" fill="none" xmlns="http://www.w3.org/2000/svg">
<g id="jbs/home/marker">
<path id="BG" d="M12.1348 2.5239C12.6583 2.13161 13.3908 2.1835 13.8535 2.64597C14.3164 3.10881 14.3683 3.84204 13.9756 4.36569L11.6299 7.49362C11.8497 7.89351 11.8386 8.3931 11.5752 8.78854L9.91602 11.2778L9.88867 11.3188L6.88379 14.3237C6.3957 14.8115 5.60429 14.8115 5.11621 14.3237L2.17676 11.3842C1.6886 10.8961 1.6886 10.1038 2.17676 9.61569L5.14648 6.64597L5.18164 6.61179L5.22266 6.58444L7.71094 4.92526C8.10637 4.66164 8.60587 4.65076 9.00586 4.87057L12.1348 2.5239Z" fill="var(--fill-0, white)" stroke="var(--stroke-0, #E6E6E6)"/>
<path id="Nib" d="M11 7.5L13.5757 4.06569C13.8192 3.7411 13.7869 3.2869 13.5 3C13.2131 2.71311 12.7589 2.68083 12.4343 2.92427L9 5.5L11 7.5Z" fill="var(--fill-0, #001E55)"/>
<path id="Pen" d="M9.5 11L11.1362 8.54569C11.2658 8.35131 11.3306 8.25412 11.3489 8.15125C11.365 8.06053 11.3558 7.96712 11.3222 7.88133C11.284 7.78404 11.2014 7.70144 11.0363 7.53625L11.0362 7.53625L8.96375 5.46375C8.79856 5.29856 8.71596 5.21596 8.61867 5.17785C8.53288 5.14424 8.43947 5.13499 8.34875 5.15112C8.24588 5.16941 8.14869 5.23421 7.95431 5.3638L5.5 7L9.5 11Z" fill="var(--fill-0, #4FA8FB)"/>
<path id="Pen_2" d="M6.56569 13.9343L9.5 11L5.5 7L2.56569 9.93431C2.36768 10.1323 2.26867 10.2313 2.23158 10.3455C2.19895 10.4459 2.19895 10.5541 2.23158 10.6545C2.26867 10.7687 2.36768 10.8677 2.56569 11.0657L5.43432 13.9343C5.63233 14.1323 5.73134 14.2313 5.8455 14.2684C5.94592 14.301 6.0541 14.301 6.15452 14.2684C6.26868 14.2313 6.36769 14.1323 6.56569 13.9343Z" fill="var(--fill-0, #1F3AB5)"/>
<path id="Tint" d="M13.115 2.78377L3.3504 11.8511L2.56524 11.066C2.36741 10.8682 2.2684 10.7689 2.23126 10.6549C2.19865 10.5545 2.1987 10.4457 2.23126 10.3453C2.26842 10.2313 2.36755 10.1319 2.56524 9.93416L5.49981 7.00056L7.95392 5.36384C8.14809 5.23439 8.2457 5.16933 8.34845 5.15095C8.4391 5.13483 8.53321 5.14474 8.61896 5.1783C8.71601 5.21649 8.79881 5.29956 8.96368 5.46443L8.99981 5.50056L12.4344 2.92439C12.635 2.774 12.8855 2.72841 13.115 2.78377Z" fill="var(--fill-0, white)" fill-opacity="0.3"/>
</g>
</svg>
