<svg preserveAspectRatio="none" width="100%" height="100%" overflow="visible" style="display: block;" viewBox="0 0 16 16" fill="none" xmlns="http://www.w3.org/2000/svg">
<g id="jbs/home/add-gis">
<g id="bg">
<mask id="path-1-outside-1_0_7123" maskUnits="userSpaceOnUse" x="0.250153" y="1.2504" width="13" height="14" fill="black">
<rect fill="white" x="0.250153" y="1.2504" width="13" height="14"/>
<path d="M10.6359 9.84512C10.9979 9.644 11.4542 9.77418 11.6554 10.1361C11.8563 10.4981 11.7262 10.9545 11.3644 11.1557C10.4736 11.6506 9.32972 12.2869 8.41812 12.7934C7.89371 13.0847 7.49344 13.3152 7.05386 13.4057C6.68856 13.4808 6.31175 13.4807 5.94644 13.4057C5.50695 13.3153 5.10669 13.0838 4.58218 12.7924L1.63589 11.1557C1.27401 10.9545 1.14394 10.4981 1.34488 10.1361C1.54609 9.77418 2.00238 9.64399 2.36441 9.84512L5.3107 11.4818C5.91963 11.8201 6.08724 11.9038 6.2482 11.9369C6.41426 11.971 6.58605 11.9711 6.75211 11.9369C6.91308 11.9038 7.08065 11.8201 7.68961 11.4818C8.60114 10.9754 9.7451 10.34 10.6359 9.84512ZM6.22281 2.30313C6.43036 2.22057 6.66623 2.23502 6.86441 2.34512L11.3644 4.84512C11.6022 4.97747 11.7502 5.2282 11.7502 5.5004C11.75 5.77255 11.6023 6.02343 11.3644 6.15567L6.86441 8.65567C6.638 8.78143 6.36234 8.78134 6.13589 8.65567L1.63589 6.15567C1.39801 6.02343 1.2503 5.77255 1.25015 5.5004C1.25015 5.2281 1.39792 4.97743 1.63589 4.84512L6.13589 2.34512L6.22281 2.30313ZM4.33023 5.06317C3.98724 5.2537 3.9873 5.74698 4.33034 5.93742L6.25743 7.00725C6.40839 7.09106 6.59191 7.09104 6.74286 7.00721L8.66931 5.93739C9.01227 5.74693 9.01233 5.25375 8.66942 5.06321L6.74297 3.99274C6.59196 3.90883 6.40834 3.90882 6.25732 3.99271L4.33023 5.06317Z"/>
</mask>
<path d="M10.6359 9.84512L11.1215 10.7193L10.6359 9.84512ZM11.6554 10.1361L12.5299 9.65099L12.5295 9.65028L11.6554 10.1361ZM11.3644 11.1557L11.85 12.0298L11.8503 12.0297L11.3644 11.1557ZM8.41812 12.7934L7.93248 11.9192L7.93248 11.9192L8.41812 12.7934ZM7.05386 13.4057L7.25527 14.3852L7.25535 14.3852L7.05386 13.4057ZM5.94644 13.4057L5.74498 14.3852L5.74516 14.3852L5.94644 13.4057ZM4.58218 12.7924L5.06784 11.9182L5.0678 11.9182L4.58218 12.7924ZM1.63589 11.1557L1.15004 12.0297L1.15028 12.0298L1.63589 11.1557ZM1.34488 10.1361L0.470842 9.65028L0.470553 9.6508L1.34488 10.1361ZM2.36441 9.84512L1.87876 10.7193L1.87879 10.7193L2.36441 9.84512ZM5.3107 11.4818L5.79634 10.6077L5.79632 10.6077L5.3107 11.4818ZM6.2482 11.9369L6.04667 12.9164L6.04693 12.9165L6.2482 11.9369ZM6.75211 11.9369L6.95355 12.9164L6.95386 12.9164L6.75211 11.9369ZM7.68961 11.4818L8.17524 12.356H8.17524L7.68961 11.4818ZM6.22281 2.30313L5.85319 1.37395L5.81997 1.38716L5.78778 1.40272L6.22281 2.30313ZM6.86441 2.34512L7.35005 1.47097L7.35005 1.47096L6.86441 2.34512ZM11.3644 4.84512L11.8507 3.97131L11.8501 3.97097L11.3644 4.84512ZM11.7502 5.5004L12.7502 5.50093V5.5004H11.7502ZM11.3644 6.15567L11.8501 7.02983L11.8503 7.02971L11.3644 6.15567ZM6.86441 8.65567L7.34999 9.52986L7.35005 9.52983L6.86441 8.65567ZM6.13589 8.65567L5.65025 9.52983L5.65064 9.53004L6.13589 8.65567ZM1.63589 6.15567L1.15003 7.02971L1.15025 7.02983L1.63589 6.15567ZM1.25015 5.5004H0.250152L0.250153 5.50093L1.25015 5.5004ZM1.63589 4.84512L1.15025 3.97097L1.14997 3.97112L1.63589 4.84512ZM6.13589 2.34512L5.70086 1.44471L5.67518 1.45712L5.65025 1.47097L6.13589 2.34512ZM6.74297 3.99274L7.22869 3.11863L6.74297 3.99274ZM6.25732 3.99271L5.77172 3.11853L6.25732 3.99271ZM8.66931 5.93739L8.18382 5.06315L8.66931 5.93739ZM8.66942 5.06321L8.18371 5.93733L8.66942 5.06321ZM6.74286 7.00721L7.22836 7.88145L6.74286 7.00721ZM4.33034 5.93742L3.84496 6.81173L4.33034 5.93742ZM10.6359 9.84512L11.1215 10.7193C11.0011 10.7862 10.8486 10.743 10.7814 10.622L11.6554 10.1361L12.5295 9.65028C12.0598 8.80541 10.9947 8.50183 10.1503 8.97096L10.6359 9.84512ZM11.6554 10.1361L10.781 10.6213C10.7146 10.5016 10.757 10.3492 10.8786 10.2816L11.3644 11.1557L11.8503 12.0297C12.6955 11.5599 12.9979 10.4947 12.5299 9.65099L11.6554 10.1361ZM11.3644 11.1557L10.8788 10.2815C10.4332 10.5291 9.92435 10.812 9.41312 11.0962C8.90182 11.3805 8.38811 11.6661 7.93248 11.9192L8.41812 12.7934L8.90376 13.6675C9.35973 13.4142 9.87375 13.1284 10.385 12.8442C10.8963 12.5599 11.4048 12.2772 11.85 12.0298L11.3644 11.1557ZM8.41812 12.7934L7.93248 11.9192C7.35859 12.238 7.10822 12.3736 6.85238 12.4262L7.05386 13.4057L7.25535 14.3852C7.87865 14.2569 8.42884 13.9314 8.90376 13.6675L8.41812 12.7934ZM7.05386 13.4057L6.85246 12.4262C6.62012 12.4739 6.38032 12.4739 6.14772 12.4261L5.94644 13.4057L5.74516 14.3852C6.24319 14.4875 6.757 14.4876 7.25527 14.3852L7.05386 13.4057ZM5.94644 13.4057L6.1479 12.4262C5.89263 12.3737 5.64347 12.238 5.06784 11.9182L4.58218 12.7924L4.09653 13.6665C4.5699 13.9295 5.12127 14.2569 5.74498 14.3852L5.94644 13.4057ZM4.58218 12.7924L5.0678 11.9182L2.12151 10.2815L1.63589 11.1557L1.15028 12.0298L4.09657 13.6666L4.58218 12.7924ZM1.63589 11.1557L2.12175 10.2816C2.24308 10.3491 2.28581 10.5015 2.21921 10.6215L1.34488 10.1361L0.470553 9.6508C0.00206482 10.4948 0.304939 11.5599 1.15004 12.0297L1.63589 11.1557ZM1.34488 10.1361L2.21892 10.622C2.15169 10.7429 1.99916 10.7862 1.87876 10.7193L2.36441 9.84512L2.85006 8.97097C2.0056 8.50182 0.940487 8.80541 0.470842 9.65028L1.34488 10.1361ZM2.36441 9.84512L1.87879 10.7193L4.82508 12.356L5.3107 11.4818L5.79632 10.6077L2.85003 8.97095L2.36441 9.84512ZM5.3107 11.4818L4.82506 12.356C5.36936 12.6584 5.69801 12.8447 6.04667 12.9164L6.2482 11.9369L6.44972 10.9574C6.48349 10.9644 6.48548 10.9736 6.38565 10.9249C6.27573 10.8714 6.10522 10.7793 5.79634 10.6077L5.3107 11.4818ZM6.2482 11.9369L6.04693 12.9165C6.34567 12.9778 6.65447 12.9779 6.95355 12.9164L6.75211 11.9369L6.55066 10.9574C6.51763 10.9642 6.48286 10.9642 6.44947 10.9574L6.2482 11.9369ZM6.75211 11.9369L6.95386 12.9164C7.30235 12.8446 7.63074 12.6585 8.17524 12.356L7.68961 11.4818L7.20397 10.6077C6.8951 10.7793 6.72458 10.8714 6.61468 10.9249C6.51488 10.9736 6.51677 10.9644 6.55035 10.9575L6.75211 11.9369ZM7.68961 11.4818L8.17524 12.356C8.63099 12.1028 9.14485 11.8174 9.65614 11.5333C10.1674 11.2493 10.6761 10.9667 11.1215 10.7193L10.6359 9.84512L10.1503 8.97096C9.70488 9.21839 9.1962 9.50096 8.68492 9.78499C8.17364 10.069 7.65975 10.3545 7.20397 10.6077L7.68961 11.4818ZM6.22281 2.30313L6.59242 3.23232C6.52109 3.26069 6.44298 3.25496 6.37877 3.21928L6.86441 2.34512L7.35005 1.47096C6.88947 1.21509 6.33962 1.18045 5.85319 1.37395L6.22281 2.30313ZM6.86441 2.34512L6.37877 3.21928L10.8788 5.71928L11.3644 4.84512L11.8501 3.97097L7.35005 1.47097L6.86441 2.34512ZM11.3644 4.84512L10.8782 5.71894C10.8 5.67542 10.7502 5.59237 10.7502 5.5004H11.7502H12.7502C12.7502 4.86403 12.4045 4.27951 11.8507 3.97131L11.3644 4.84512ZM11.7502 5.5004L10.7502 5.49986C10.7502 5.40901 10.7994 5.32565 10.8785 5.28164L11.3644 6.15567L11.8503 7.02971C12.4052 6.72122 12.7498 6.1361 12.7502 5.50093L11.7502 5.5004ZM11.3644 6.15567L10.8788 5.28151L6.37877 7.78151L6.86441 8.65567L7.35005 9.52983L11.8501 7.02983L11.3644 6.15567ZM6.86441 8.65567L6.37883 7.78148C6.45466 7.73936 6.54602 7.7396 6.62115 7.7813L6.13589 8.65567L5.65064 9.53004C6.17866 9.82308 6.82134 9.8235 7.34999 9.52986L6.86441 8.65567ZM6.13589 8.65567L6.62154 7.78151L2.12154 5.28151L1.63589 6.15567L1.15025 7.02983L5.65025 9.52983L6.13589 8.65567ZM1.63589 6.15567L2.12176 5.28164C2.20094 5.32565 2.2501 5.40901 2.25015 5.49986L1.25015 5.5004L0.250153 5.50093C0.250492 6.1361 0.595081 6.72122 1.15003 7.02971L1.63589 6.15567ZM1.25015 5.5004H2.25015C2.25015 5.59197 2.20044 5.67541 2.12182 5.71912L1.63589 4.84512L1.14997 3.97112C0.595403 4.27945 0.250153 4.86423 0.250153 5.5004H1.25015ZM1.63589 4.84512L2.12154 5.71928L6.62154 3.21928L6.13589 2.34512L5.65025 1.47097L1.15025 3.97097L1.63589 4.84512ZM6.13589 2.34512L6.57093 3.24554L6.65784 3.20355L6.22281 2.30313L5.78778 1.40272L5.70086 1.44471L6.13589 2.34512ZM4.33034 5.93742L3.84496 6.81173L5.77205 7.88156L6.25743 7.00725L6.7428 6.13294L4.81571 5.06311L4.33034 5.93742ZM6.74286 7.00721L7.22836 7.88145L9.15481 6.81163L8.66931 5.93739L8.18382 5.06315L6.25736 6.13298L6.74286 7.00721ZM8.66942 5.06321L9.15514 4.18909L7.22869 3.11863L6.74297 3.99274L6.25725 4.86686L8.18371 5.93733L8.66942 5.06321ZM6.25732 3.99271L5.77172 3.11853L3.84463 4.18899L4.33023 5.06317L4.81582 5.93736L6.74291 4.86689L6.25732 3.99271ZM6.74297 3.99274L7.22869 3.11863C6.77566 2.8669 6.22478 2.86686 5.77172 3.11853L6.25732 3.99271L6.74291 4.86689C6.59189 4.95078 6.40826 4.95077 6.25725 4.86686L6.74297 3.99274ZM8.66931 5.93739L9.15481 6.81163C10.1837 6.24026 10.1839 4.76072 9.15514 4.18909L8.66942 5.06321L8.18371 5.93733C7.8408 5.74678 7.84087 5.2536 8.18382 5.06315L8.66931 5.93739ZM6.25743 7.00725L5.77205 7.88156C6.22494 8.13298 6.7755 8.13294 7.22836 7.88145L6.74286 7.00721L6.25736 6.13298C6.40832 6.04915 6.59184 6.04913 6.7428 6.13294L6.25743 7.00725ZM4.33034 5.93742L4.81571 5.06311C5.15875 5.25355 5.1588 5.74684 4.81582 5.93736L4.33023 5.06317L3.84463 4.18899C2.81567 4.76056 2.81586 6.24042 3.84496 6.81173L4.33034 5.93742Z" fill="var(--stroke-0, #E6E6E6)" mask="url(#path-1-outside-1_0_7123)"/>
</g>
<g id="layer">
<path d="M6.49993 8L2 5.5L6.49993 3L11 5.5L6.49993 8Z" fill="var(--fill-0, #BFEFFF)"/>
<path d="M2 10.5L4.94587 12.1366C5.51308 12.4517 5.79668 12.6093 6.09703 12.6711C6.36285 12.7257 6.63701 12.7258 6.90283 12.6711C7.20317 12.6093 7.48678 12.4518 8.05399 12.1366L11 10.5M2 5.5L6.49993 8L11 5.5L6.49993 3L2 5.5Z" stroke="var(--stroke-0, #1F3AB5)" stroke-width="1.5" stroke-linecap="round" stroke-linejoin="round"/>
</g>
<g id="Add">
<mask id="path-5-outside-2_0_7123" maskUnits="userSpaceOnUse" x="7.00098" y="8" width="9" height="8" fill="black">
<rect fill="white" x="7.00098" y="8" width="9" height="8"/>
<path d="M11.75 9C12.1642 9 12.501 9.33579 12.501 9.75V11H13.751C14.165 11.0003 14.501 11.3359 14.501 11.75C14.501 12.1642 14.1642 12.5 13.75 12.5H12.501V13.75C12.501 14.1641 12.165 14.4997 11.751 14.5C11.3368 14.5 11.001 14.1642 11.001 13.75V12.5H9.75C9.33602 12.4997 9.00002 12.164 9 11.75C9 11.3358 9.33676 11 9.75098 11H11.001V9.75C11.001 9.33595 11.336 9.00026 11.75 9Z"/>
</mask>
<path d="M11.75 9C12.1642 9 12.501 9.33579 12.501 9.75V11H13.751C14.165 11.0003 14.501 11.3359 14.501 11.75C14.501 12.1642 14.1642 12.5 13.75 12.5H12.501V13.75C12.501 14.1641 12.165 14.4997 11.751 14.5C11.3368 14.5 11.001 14.1642 11.001 13.75V12.5H9.75C9.33602 12.4997 9.00002 12.164 9 11.75C9 11.3358 9.33676 11 9.75098 11H11.001V9.75C11.001 9.33595 11.336 9.00026 11.75 9Z" fill="var(--fill-0, #333333)"/>
<path d="M11.75 9V8L11.7494 8L11.75 9ZM12.501 9.75H13.501H12.501ZM12.501 11H11.501V12H12.501V11ZM13.751 11L13.7516 10H13.751V11ZM14.501 11.75L15.501 11.75V11.75H14.501ZM13.75 12.5V11.5V11.5V12.5ZM12.501 12.5V11.5H11.501V12.5H12.501ZM12.501 13.75H11.501H12.501ZM11.751 14.5V15.5H11.7516L11.751 14.5ZM11.001 13.75H10.001H11.001ZM11.001 12.5H12.001V11.5H11.001V12.5ZM9.75 12.5L9.74936 13.5H9.75V12.5ZM9 11.75H8V11.75L9 11.75ZM9.75098 11L9.75098 12H9.75098V11ZM11.001 11V12H12.001V11H11.001ZM11.001 9.75H12.001H11.001ZM11.75 9V10C11.6136 10 11.501 9.88976 11.501 9.75H12.501H13.501C13.501 8.78181 12.7148 8 11.75 8V9ZM12.501 9.75H11.501V11H12.501H13.501V9.75H12.501ZM12.501 11V12H13.751V11V10H12.501V11ZM13.751 11L13.7503 12C13.6132 11.9999 13.501 11.8889 13.501 11.75H14.501H15.501C15.501 10.783 14.7168 10.0006 13.7516 10L13.751 11ZM14.501 11.75L13.501 11.75C13.501 11.6103 13.6136 11.5 13.75 11.5V12.5V13.5C14.7148 13.5 15.5009 12.7181 15.501 11.75L14.501 11.75ZM13.75 12.5V11.5H12.501V12.5V13.5H13.75V12.5ZM12.501 12.5H11.501V13.75H12.501H13.501V12.5H12.501ZM12.501 13.75H11.501C11.501 13.6111 11.6132 13.5001 11.7503 13.5L11.751 14.5L11.7516 15.5C12.7168 15.4994 13.501 14.717 13.501 13.75H12.501ZM11.751 14.5V13.5C11.889 13.5 12.001 13.6119 12.001 13.75H11.001H10.001C10.001 14.7165 10.7845 15.5 11.751 15.5V14.5ZM11.001 13.75H12.001V12.5H11.001H10.001V13.75H11.001ZM11.001 12.5V11.5H9.75V12.5V13.5H11.001V12.5ZM9.75 12.5L9.75064 11.5C9.88785 11.5001 9.99999 11.6111 10 11.75L9 11.75L8 11.75C8.00004 12.7169 8.78419 13.4994 9.74936 13.5L9.75 12.5ZM9 11.75H10C10 11.8898 9.88735 12 9.75098 12L9.75098 11L9.75098 10C8.78617 10 8 10.7818 8 11.75H9ZM9.75098 11V12H11.001V11V10H9.75098V11ZM11.001 11H12.001V9.75H11.001H10.001V11H11.001ZM11.001 9.75H12.001C12.001 9.88717 11.8895 9.99991 11.7506 10L11.75 9L11.7494 8C10.7825 8.00062 10.001 8.78473 10.001 9.75H11.001Z" fill="var(--stroke-0, #E6E6E6)" mask="url(#path-5-outside-2_0_7123)"/>
</g>
</g>
</svg>
