<svg preserveAspectRatio="none" width="100%" height="100%" overflow="visible" style="display: block;" viewBox="0 0 16 16" fill="none" xmlns="http://www.w3.org/2000/svg">
<g id="jbs/home/highlighter">
<path id="BG" d="M9.72949 3.06348C10.1664 2.62696 10.8909 2.68686 11.25 3.18945L13.1611 5.86426C13.4453 6.26204 13.3994 6.80766 13.0537 7.15332L12.1758 8.03027C12.3771 8.40837 12.3186 8.88839 12 9.20703L6.70703 14.5C6.31651 14.8905 5.68348 14.8905 5.29297 14.5L2 11.207C1.60953 10.8165 1.60953 10.1835 2 9.79297L7.29297 4.5C7.61128 4.18172 8.09084 4.12265 8.46875 4.32324L9.72949 3.06348Z" fill="var(--fill-0, white)" stroke="var(--stroke-0, #E6E6E6)"/>
<path id="Neck" d="M10.5 9.99997L11.4343 9.06569C11.6323 8.86768 11.7313 8.76867 11.7684 8.65451C11.8011 8.55409 11.8011 8.44591 11.7684 8.34549C11.7313 8.23132 11.6323 8.13232 11.4343 7.93431L8.56569 5.06568C8.36768 4.86767 8.26868 4.76867 8.15451 4.73157C8.05409 4.69895 7.94592 4.69894 7.8455 4.73157C7.73134 4.76867 7.63233 4.86767 7.43432 5.06567L7.43432 5.06567L6.5 5.99997L10.5 9.99997Z" fill="var(--fill-0, #333333)"/>
<path id="Nib" d="M11.5 8.00002L12.5208 6.97923L12.5208 6.97922C12.691 6.80898 12.7762 6.72385 12.8142 6.62384C12.8478 6.53568 12.8557 6.43982 12.8371 6.34734C12.816 6.24243 12.746 6.14447 12.6061 5.94855L12.6061 5.94855L11.0489 3.76847L11.0489 3.76847C10.86 3.50408 10.7656 3.37189 10.6445 3.31638C10.5382 3.26767 10.4183 3.25774 10.3054 3.28832C10.1768 3.32316 10.062 3.43803 9.83222 3.66778L8.49999 5.00002L11.5 8.00002Z" fill="var(--fill-0, #F8A62C)"/>
<path id="Pen" d="M6.56568 13.9343L9.50002 11L5.50002 7.00001L2.56568 9.93432C2.36767 10.1323 2.26866 10.2313 2.23157 10.3455C2.19894 10.4459 2.19894 10.5541 2.23157 10.6545C2.26866 10.7687 2.36767 10.8677 2.56567 11.0657L5.43431 13.9343C5.63232 14.1323 5.73132 14.2313 5.84549 14.2684C5.94591 14.3011 6.05408 14.3011 6.1545 14.2684C6.26867 14.2313 6.36767 14.1323 6.56568 13.9343Z" fill="var(--fill-0, #F8A62C)"/>
<path id="Tint" d="M10.083 3.41768C10.3014 3.19928 10.6631 3.22897 10.8427 3.48018L11.4502 4.33077L3.35154 11.8513L2.35349 10.8532C2.15842 10.6579 2.15829 10.3414 2.35349 10.1462L7.64646 4.85323C7.84167 4.6582 8.15827 4.65822 8.35349 4.85323L8.49997 4.99971L10.083 3.41768Z" fill="var(--fill-0, white)" fill-opacity="0.3"/>
</g>
</svg>
