<svg preserveAspectRatio="none" width="100%" height="100%" overflow="visible" style="display: block;" viewBox="0 0 16 16" fill="none" xmlns="http://www.w3.org/2000/svg">
<g id="jbs/home/note">
<g id="BG">
<mask id="path-1-outside-1_0_8224" maskUnits="userSpaceOnUse" x="1" y="1" width="14" height="14" fill="black">
<rect fill="white" x="1" y="1" width="14" height="14"/>
<path d="M11.6484 2C11.9159 2 12.1619 1.99991 12.3662 2.0166C12.5793 2.03403 12.8128 2.07314 13.043 2.19043C13.372 2.35818 13.6399 2.626 13.8076 2.95508C13.9248 3.18519 13.964 3.41886 13.9814 3.63184C13.9981 3.83605 13.998 4.08224 13.998 4.34961V10.1992C13.9981 10.408 14.0024 10.6351 13.9492 10.8564C13.9064 11.0348 13.8361 11.2059 13.7402 11.3623C13.6212 11.5564 13.4572 11.7137 13.3096 11.8613L11.3926 13.7783C11.252 13.9188 11.0611 13.998 10.8623 13.998H4.34961C4.08204 13.998 3.83616 13.9991 3.63184 13.9824C3.41875 13.965 3.18534 13.9249 2.95508 13.8076C2.62598 13.6399 2.3582 13.372 2.19043 13.043C2.07315 12.8128 2.03305 12.5792 2.01562 12.3662C1.99894 12.162 2 11.9159 2 11.6484V4.34961C2 4.08225 1.99896 3.83605 2.01562 3.63184C2.03304 3.41886 2.07324 3.1852 2.19043 2.95508C2.35818 2.62601 2.62599 2.35816 2.95508 2.19043C3.18533 2.07311 3.41875 2.03402 3.63184 2.0166C3.83616 1.99991 4.08204 2 4.34961 2H11.6484ZM4.34961 3.5C4.05733 3.5 3.883 3.50019 3.75391 3.51074C3.72652 3.51298 3.70464 3.51547 3.68737 3.51787C3.6534 3.5226 3.62022 3.53384 3.59351 3.55535C3.57943 3.56668 3.5666 3.57951 3.55527 3.59359C3.53382 3.62025 3.52262 3.65337 3.51789 3.68726C3.51548 3.70457 3.51299 3.72649 3.51074 3.75391C3.50022 3.88294 3.5 4.05768 3.5 4.34961V11.6484C3.5 11.9406 3.5002 12.1151 3.51074 12.2441C3.51299 12.2715 3.51548 12.2934 3.51788 12.3107C3.52261 12.3447 3.53384 12.3778 3.55533 12.4045C3.56669 12.4186 3.57956 12.4315 3.59367 12.4428C3.62029 12.4642 3.65333 12.4754 3.68716 12.4802C3.70446 12.4826 3.7264 12.4851 3.75391 12.4873C3.883 12.4979 4.05733 12.498 4.34961 12.498H10.3447C10.4773 12.498 10.6044 12.4454 10.6982 12.3516L12.249 10.8008C12.34 10.7098 12.391 10.6584 12.4277 10.6182C12.4493 10.5946 12.4582 10.5829 12.4609 10.5791C12.4745 10.5569 12.4851 10.5321 12.4912 10.5068C12.4918 10.5038 12.4935 10.4898 12.4951 10.4551C12.4976 10.4006 12.498 10.3278 12.498 10.1992V4.34961C12.498 4.05767 12.4978 3.88295 12.4873 3.75391C12.4775 3.63384 12.4624 3.62034 12.4707 3.63672C12.454 3.60392 12.4302 3.57531 12.4014 3.55287C12.3764 3.53341 12.346 3.52284 12.3146 3.51837C12.2968 3.51583 12.2737 3.51316 12.2441 3.51074C12.1151 3.5002 11.9406 3.5 11.6484 3.5H4.34961Z"/>
</mask>
<path d="M11.6484 2V3H11.6484L11.6484 2ZM12.3662 2.0166L12.4477 1.01993L12.4476 1.01992L12.3662 2.0166ZM13.043 2.19043L13.4971 1.29952L13.497 1.29942L13.043 2.19043ZM13.8076 2.95508L14.6987 2.50125L14.6986 2.50096L13.8076 2.95508ZM13.9814 3.63184L14.9781 3.5505L14.9781 3.5503L13.9814 3.63184ZM13.998 4.34961L12.998 4.34961V4.34961H13.998ZM13.998 10.1992H12.998V10.1992L13.998 10.1992ZM13.9492 10.8564L14.9215 11.0901L14.9216 11.0899L13.9492 10.8564ZM13.7402 11.3623L14.5928 11.885L14.5929 11.8847L13.7402 11.3623ZM13.3096 11.8613L12.6025 11.1542V11.1542L13.3096 11.8613ZM11.3926 13.7783L12.0995 14.4857L12.0997 14.4854L11.3926 13.7783ZM10.8623 13.998V14.998H10.8626L10.8623 13.998ZM4.34961 13.998V12.998H4.34961L4.34961 13.998ZM3.63184 13.9824L3.55039 14.9791L3.5504 14.9791L3.63184 13.9824ZM2.95508 13.8076L2.50101 14.6986L2.50115 14.6987L2.95508 13.8076ZM2.19043 13.043L1.29942 13.497L1.29953 13.4972L2.19043 13.043ZM2.01562 12.3662L1.01895 12.4476L1.01895 12.4478L2.01562 12.3662ZM2 11.6484L3 11.6484V11.6484H2ZM2 4.34961H3V4.34961L2 4.34961ZM2.01562 3.63184L1.01895 3.55032L1.01894 3.55051L2.01562 3.63184ZM2.19043 2.95508L1.29952 2.50091L1.29933 2.50127L2.19043 2.95508ZM2.95508 2.19043L2.50109 1.29942L2.50098 1.29948L2.95508 2.19043ZM3.63184 2.0166L3.5504 1.01992L3.55036 1.01993L3.63184 2.0166ZM4.34961 2L4.34961 3H4.34961V2ZM4.34961 3.5V2.5H4.34961L4.34961 3.5ZM3.75391 3.51074L3.67247 2.51406L3.67237 2.51407L3.75391 3.51074ZM3.51074 3.75391L2.51408 3.67226L2.51405 3.67265L3.51074 3.75391ZM3.5 4.34961L2.5 4.34961V4.34961H3.5ZM3.5 11.6484H2.5V11.6484L3.5 11.6484ZM3.51074 12.2441L2.51406 12.3256L2.51409 12.3258L3.51074 12.2441ZM3.75391 12.4873L3.67239 13.484L3.67247 13.484L3.75391 12.4873ZM4.34961 12.498L4.34961 13.498H4.34961V12.498ZM12.249 10.8008L11.5419 10.0937V10.0937L12.249 10.8008ZM12.4277 10.6182L13.1663 11.2924L13.1664 11.2922L12.4277 10.6182ZM12.4609 10.5791L13.2738 11.1616L13.2948 11.1323L13.3136 11.1016L12.4609 10.5791ZM12.4912 10.5068L13.4629 10.743L13.469 10.718L13.4738 10.6927L12.4912 10.5068ZM12.4951 10.4551L13.4941 10.5011L13.4941 10.5008L12.4951 10.4551ZM12.498 10.1992L13.498 10.1992V10.1992H12.498ZM12.498 4.34961H13.498V4.34961L12.498 4.34961ZM12.4873 3.75391L13.484 3.67264L13.484 3.67227L12.4873 3.75391ZM12.2441 3.51074L12.3258 2.51408L12.3256 2.51406L12.2441 3.51074ZM11.6484 3.5L11.6484 2.5H11.6484V3.5ZM12.4014 3.55287L11.7868 4.34171L12.4014 3.55287ZM12.3146 3.51837L12.4559 2.5284L12.3146 3.51837ZM3.59367 12.4428L4.22043 11.6636L3.59367 12.4428ZM3.68716 12.4802L3.54909 13.4706L3.68716 12.4802ZM3.51788 12.3107L2.52743 12.4486L3.51788 12.3107ZM3.55533 12.4045L4.33433 11.7775L3.55533 12.4045ZM3.55527 3.59359L4.33436 4.2205L3.55527 3.59359ZM3.51789 3.68726L2.52747 3.54923L3.51789 3.68726ZM3.68737 3.51787L3.54953 2.52741L3.68737 3.51787ZM11.6484 2L11.6484 3C11.9294 3 12.1299 3.00063 12.2848 3.01328L12.3662 2.0166L12.4476 1.01992C12.194 0.999197 11.9025 1 11.6484 1L11.6484 2ZM12.3662 2.0166L12.2847 3.01327C12.4385 3.02585 12.5247 3.04866 12.589 3.08144L13.043 2.19043L13.497 1.29942C13.1009 1.09763 12.72 1.04221 12.4477 1.01993L12.3662 2.0166ZM13.043 2.19043L12.5888 3.08134C12.7299 3.15327 12.8448 3.26822 12.9167 3.4092L13.8076 2.95508L14.6986 2.50096C14.435 1.98379 14.0142 1.5631 13.4971 1.29952L13.043 2.19043ZM13.8076 2.95508L12.9165 3.40891C12.9493 3.47335 12.9722 3.55984 12.9848 3.71337L13.9814 3.63184L14.9781 3.5503C14.9558 3.27789 14.9003 2.89704 14.6987 2.50125L13.8076 2.95508ZM13.9814 3.63184L12.9848 3.71317C12.9974 3.86806 12.998 4.06887 12.998 4.34961L13.998 4.34961L14.998 4.34961C14.998 4.09562 14.9988 3.80404 14.9781 3.5505L13.9814 3.63184ZM13.998 4.34961H12.998V10.1992H13.998H14.998V4.34961H13.998ZM13.998 10.1992L12.998 10.1992C12.9981 10.4457 12.9965 10.5411 12.9768 10.623L13.9492 10.8564L14.9216 11.0899C15.0082 10.7291 14.9981 10.3703 14.998 10.1992L13.998 10.1992ZM13.9492 10.8564L12.9769 10.6228C12.9581 10.7012 12.9276 10.7745 12.8875 10.8399L13.7402 11.3623L14.5929 11.8847C14.7446 11.6372 14.8546 11.3685 14.9215 11.0901L13.9492 10.8564ZM13.7402 11.3623L12.8877 10.8396C12.8439 10.9111 12.7783 10.9783 12.6025 11.1542L13.3096 11.8613L14.0167 12.5684C14.1361 12.449 14.3986 12.2017 14.5928 11.885L13.7402 11.3623ZM13.3096 11.8613L12.6025 11.1542L10.6855 13.0712L11.3926 13.7783L12.0997 14.4854L14.0167 12.5684L13.3096 11.8613ZM11.3926 13.7783L10.6857 13.071C10.7324 13.0244 10.7954 12.9981 10.862 12.998L10.8623 13.998L10.8626 14.998C11.3267 14.9979 11.7716 14.8133 12.0995 14.4857L11.3926 13.7783ZM10.8623 13.998V12.998H4.34961V13.998V14.998H10.8623V13.998ZM4.34961 13.998L4.34961 12.998C4.06421 12.998 3.86712 12.9983 3.71327 12.9857L3.63184 13.9824L3.5504 14.9791C3.80521 14.9999 4.09986 14.998 4.34961 14.998L4.34961 13.998ZM3.63184 13.9824L3.71328 12.9857C3.56301 12.9735 3.47538 12.9504 3.409 12.9166L2.95508 13.8076L2.50115 14.6987C2.89529 14.8994 3.27448 14.9566 3.55039 14.9791L3.63184 13.9824ZM2.95508 13.8076L3.40914 12.9166C3.26824 12.8448 3.1533 12.7299 3.08133 12.5888L2.19043 13.043L1.29953 13.4972C1.56309 14.0141 1.98371 14.435 2.50101 14.6986L2.95508 13.8076ZM2.19043 13.043L3.08144 12.589C3.0477 12.5228 3.0246 12.4351 3.0123 12.2847L2.01562 12.3662L1.01895 12.4478C1.04151 12.7234 1.09859 13.1028 1.29942 13.497L2.19043 13.043ZM2.01562 12.3662L3.0123 12.2848C2.99974 12.131 3 11.9337 3 11.6484L2 11.6484L1 11.6484C0.999999 11.8981 0.998134 12.1929 1.01895 12.4476L2.01562 12.3662ZM2 11.6484H3V4.34961H2H1V11.6484H2ZM2 4.34961L3 4.34961C3 4.06455 2.99976 3.86699 3.01231 3.71316L2.01562 3.63184L1.01894 3.55051C0.998163 3.80511 1 4.09995 1 4.34961L2 4.34961ZM2.01562 3.63184L3.0123 3.71335C3.02457 3.56325 3.04773 3.47526 3.08153 3.40888L2.19043 2.95508L1.29933 2.50127C1.09874 2.89515 1.04151 3.27447 1.01895 3.55032L2.01562 3.63184ZM2.19043 2.95508L3.08134 3.40925C3.15328 3.26815 3.26822 3.15323 3.40918 3.08138L2.95508 2.19043L2.50098 1.29948C1.98377 1.56309 1.56309 1.98386 1.29952 2.50091L2.19043 2.95508ZM2.95508 2.19043L3.40907 3.08144C3.47346 3.04863 3.55954 3.02585 3.71332 3.01328L3.63184 2.0166L3.55036 1.01993C3.27796 1.0422 2.89719 1.0976 2.50109 1.29942L2.95508 2.19043ZM3.63184 2.0166L3.71327 3.01328C3.86819 3.00062 4.06855 3 4.34961 3L4.34961 2L4.34961 1C4.09552 1 3.80414 0.999192 3.5504 1.01992L3.63184 2.0166ZM4.34961 2V3H11.6484V2V1H4.34961V2ZM4.34961 3.5L4.34961 2.5C4.07713 2.5 3.85248 2.49936 3.67247 2.51406L3.75391 3.51074L3.83534 4.50742C3.91353 4.50103 4.03753 4.5 4.34961 4.5L4.34961 3.5ZM3.75391 3.51074L3.67237 2.51407C3.62846 2.51766 3.58766 2.52211 3.54953 2.52741L3.68737 3.51787L3.8252 4.50832C3.82161 4.50882 3.82458 4.5083 3.83544 4.50741L3.75391 3.51074ZM3.59351 3.55535L2.96644 2.77638C2.89644 2.83273 2.83263 2.89652 2.77618 2.96667L3.55527 3.59359L4.33436 4.2205C4.30057 4.26249 4.26242 4.30063 4.22058 4.33431L3.59351 3.55535ZM3.51789 3.68726L2.52747 3.54923C2.52215 3.58738 2.51769 3.62825 2.51408 3.67226L3.51074 3.75391L4.5074 3.83556C4.50829 3.82473 4.50881 3.82175 4.50832 3.8253L3.51789 3.68726ZM3.51074 3.75391L2.51405 3.67265C2.49939 3.85246 2.5 4.07731 2.5 4.34961L3.5 4.34961L4.5 4.34961C4.5 4.03805 4.50105 3.91343 4.50744 3.83516L3.51074 3.75391ZM3.5 4.34961H2.5V11.6484H3.5H4.5V4.34961H3.5ZM3.5 11.6484L2.5 11.6484C2.5 11.9208 2.49936 12.1456 2.51406 12.3256L3.51074 12.2441L4.50742 12.1627C4.50104 12.0846 4.5 11.9604 4.5 11.6484L3.5 11.6484ZM3.51074 12.2441L2.51409 12.3258C2.51768 12.3697 2.52213 12.4105 2.52743 12.4486L3.51788 12.3107L4.50833 12.1728C4.50882 12.1763 4.50829 12.1733 4.5074 12.1624L3.51074 12.2441ZM3.55533 12.4045L2.77633 13.0315C2.83273 13.1016 2.89662 13.1655 2.96692 13.222L3.59367 12.4428L4.22043 11.6636C4.26249 11.6974 4.30065 11.7356 4.33433 11.7775L3.55533 12.4045ZM3.68716 12.4802L3.54909 13.4706C3.58736 13.4759 3.62831 13.4804 3.67239 13.484L3.75391 12.4873L3.83542 11.4906C3.8245 11.4897 3.82155 11.4892 3.82523 11.4897L3.68716 12.4802ZM3.75391 12.4873L3.67247 13.484C3.85248 13.4987 4.07713 13.498 4.34961 13.498L4.34961 12.498L4.34961 11.498C4.03753 11.498 3.91353 11.497 3.83534 11.4906L3.75391 12.4873ZM4.34961 12.498V13.498H10.3447V12.498V11.498H4.34961V12.498ZM10.6982 12.3516L11.4053 13.0587L12.9561 11.5079L12.249 10.8008L11.5419 10.0937L9.9911 11.6445L10.6982 12.3516ZM12.249 10.8008L12.9561 11.5079C13.0413 11.4227 13.1108 11.3532 13.1663 11.2924L12.4277 10.6182L11.6892 9.94396C11.6712 9.96368 11.6386 9.99698 11.5419 10.0937L12.249 10.8008ZM12.4277 10.6182L13.1664 11.2922C13.2019 11.2533 13.2394 11.2095 13.2738 11.1616L12.4609 10.5791L11.6481 9.99659C11.6643 9.97398 11.6769 9.95851 11.6823 9.95212C11.6885 9.94466 11.6912 9.94173 11.689 9.94411L12.4277 10.6182ZM12.4609 10.5791L13.3136 11.1016C13.3787 10.9953 13.431 10.8744 13.4629 10.743L12.4912 10.5068L11.5195 10.2707C11.5391 10.1899 11.5703 10.1186 11.6083 10.0566L12.4609 10.5791ZM12.4912 10.5068L13.4738 10.6927C13.4891 10.6118 13.4926 10.5323 13.4941 10.5011L12.4951 10.4551L11.4962 10.409C11.4958 10.4166 11.4958 10.4153 11.4964 10.4074C11.4968 10.4035 11.4975 10.396 11.4987 10.3857C11.4993 10.3806 11.5002 10.3733 11.5014 10.3644C11.5025 10.3572 11.5048 10.3413 11.5086 10.321L12.4912 10.5068ZM12.4951 10.4551L13.4941 10.5008C13.4978 10.4189 13.498 10.3216 13.498 10.1992L12.498 10.1992L11.498 10.1992C11.498 10.334 11.4974 10.3823 11.4962 10.4094L12.4951 10.4551ZM12.498 10.1992H13.498V4.34961H12.498H11.498V10.1992H12.498ZM12.498 4.34961L13.498 4.34961C13.498 4.07731 13.4987 3.85246 13.484 3.67264L12.4873 3.75391L11.4906 3.83517C11.497 3.91343 11.498 4.03804 11.498 4.34961L12.498 4.34961ZM12.4873 3.75391L13.484 3.67227C13.4762 3.5772 13.4637 3.48952 13.444 3.40833C13.441 3.39583 13.4201 3.30462 13.3723 3.20352C13.3667 3.19166 13.3529 3.16295 13.3325 3.12789C13.3228 3.11118 13.3026 3.07762 13.2733 3.03786C13.2616 3.0219 13.177 2.90238 13.0255 2.80071C12.9507 2.7505 12.7534 2.63144 12.4696 2.63106C12.1177 2.63059 11.8354 2.80967 11.6702 3.0285C11.5371 3.20478 11.4985 3.37744 11.4856 3.44551C11.47 3.52837 11.4682 3.59583 11.4683 3.63241C11.4684 3.75291 11.492 3.84749 11.4928 3.85132C11.5099 3.92674 11.5329 3.98491 11.5338 3.98737C11.5487 4.02644 11.5646 4.06108 11.5797 4.09071L12.4707 3.63672L13.3617 3.18273C13.3747 3.20826 13.3893 3.23974 13.4034 3.27688C13.404 3.27838 13.4268 3.33589 13.4438 3.411C13.4446 3.41475 13.4681 3.50928 13.4683 3.62974C13.4683 3.66632 13.4666 3.73378 13.4509 3.81663C13.4381 3.88469 13.3994 4.05735 13.2664 4.23362C13.1011 4.45246 12.8189 4.63153 12.467 4.63106C12.1832 4.63068 11.9859 4.51162 11.9111 4.46141C11.7596 4.35975 11.675 4.24024 11.6633 4.2243C11.634 4.18456 11.6139 4.15102 11.6042 4.13434C11.5838 4.09933 11.57 4.07071 11.5645 4.05895C11.532 3.99041 11.5152 3.93311 11.5144 3.93073C11.508 3.91006 11.5035 3.89278 11.5004 3.87997C11.4886 3.83145 11.4886 3.81055 11.4906 3.83554L12.4873 3.75391ZM12.4707 3.63672L13.3617 3.18273C13.2778 3.0181 13.1592 2.87558 13.016 2.76403L12.4014 3.55287L11.7868 4.34171C11.7013 4.27504 11.6302 4.18973 11.5797 4.09071L12.4707 3.63672ZM12.3146 3.51837L12.4559 2.5284C12.4154 2.52262 12.3722 2.51788 12.3258 2.51408L12.2441 3.51074L12.1625 4.5074C12.1752 4.50845 12.1782 4.50903 12.1733 4.50833L12.3146 3.51837ZM12.2441 3.51074L12.3256 2.51406C12.1456 2.49936 11.9208 2.5 11.6484 2.5L11.6484 3.5L11.6484 4.5C11.9604 4.5 12.0845 4.50104 12.1627 4.50742L12.2441 3.51074ZM11.6484 3.5V2.5H4.34961V3.5V4.5H11.6484V3.5ZM12.4014 3.55287L13.016 2.76403C12.818 2.60973 12.609 2.55026 12.4559 2.5284L12.3146 3.51837L12.1733 4.50833C12.0829 4.49543 11.9349 4.45709 11.7868 4.34171L12.4014 3.55287ZM3.59367 12.4428L2.96692 13.222C3.17601 13.3902 3.39791 13.4495 3.54909 13.4706L3.68716 12.4802L3.82523 11.4897C3.90875 11.5014 4.06457 11.5382 4.22043 11.6636L3.59367 12.4428ZM3.51788 12.3107L2.52743 12.4486C2.54854 12.6002 2.60795 12.8223 2.77633 13.0315L3.55533 12.4045L4.33433 11.7775C4.45974 11.9333 4.49668 12.0891 4.50833 12.1728L3.51788 12.3107ZM3.55527 3.59359L2.77618 2.96667C2.60763 3.17614 2.54849 3.39839 2.52747 3.54923L3.51789 3.68726L4.50832 3.8253C4.49675 3.90834 4.46 4.06436 4.33436 4.2205L3.55527 3.59359ZM10.3447 12.498V13.498C10.7425 13.498 11.124 13.34 11.4053 13.0587L10.6982 12.3516L9.9911 11.6445C10.0849 11.5507 10.212 11.498 10.3447 11.498V12.498ZM3.68737 3.51787L3.54953 2.52741C3.39794 2.54851 3.17572 2.60791 2.96644 2.77638L3.59351 3.55535L4.22058 4.33431C4.06473 4.45977 3.90886 4.49668 3.8252 4.50832L3.68737 3.51787Z" fill="var(--stroke-0, #E6E6E6)" mask="url(#path-1-outside-1_0_8224)"/>
</g>
<path id="Page" d="M14 11L11 14L4.8 14C3.81991 14 3.32986 14 2.95552 13.8093C2.62623 13.6415 2.35852 13.3738 2.19074 13.0445C2 12.6701 2 12.1801 2 11.2L2 4.8C2 3.81991 2 3.32986 2.19074 2.95552C2.35852 2.62623 2.62623 2.35852 2.95552 2.19074C3.32986 2 3.81991 2 4.8 2L11.2 2C12.1801 2 12.6701 2 13.0445 2.19074C13.3738 2.35852 13.6415 2.62623 13.8093 2.95552C14 3.32986 14 3.81991 14 4.8L14 11Z" fill="var(--fill-0, #FEB83C)"/>
<path id="Text" d="M5 6L11 6M5 9.5L7.4 9.5" stroke="var(--stroke-0, #C05C27)" stroke-width="1.5" stroke-linecap="round" stroke-linejoin="round"/>
<path id="Lip" d="M11 12.6L11 14C11.1601 14 11.3136 13.9364 11.4268 13.8232L13.8232 11.4268C13.9364 11.3136 14 11.1601 14 11L12.6 11C12.0399 11 11.7599 11 11.546 11.109C11.3578 11.2049 11.2049 11.3578 11.109 11.546C11 11.7599 11 12.0399 11 12.6Z" fill="var(--fill-0, #C05C27)"/>
</g>
</svg>
