<svg preserveAspectRatio="none" width="100%" height="100%" overflow="visible" style="display: block;" viewBox="0 0 16 16" fill="none" xmlns="http://www.w3.org/2000/svg">
<g id="jbs/home/arrow-tool">
<g id="BG">
<mask id="path-1-outside-1_0_350" maskUnits="userSpaceOnUse" x="1.75006" y="1.75" width="13" height="13" fill="black">
<rect fill="white" x="1.75006" y="1.75" width="13" height="13"/>
<path d="M12.5001 2.75C12.9142 2.75003 13.2501 3.08581 13.2501 3.5V8.5C13.2501 8.91419 12.9142 9.24997 12.5001 9.25C12.0858 9.25 11.7501 8.91421 11.7501 8.5V5.31055L4.03033 13.0303C3.73745 13.3232 3.26268 13.3231 2.96979 13.0303C2.67689 12.7374 2.67689 12.2626 2.96979 11.9697L10.6895 4.25H7.50006C7.08585 4.25 6.75006 3.91421 6.75006 3.5C6.75006 3.08579 7.08585 2.75 7.50006 2.75H12.5001Z"/>
</mask>
<path d="M12.5001 2.75C12.9142 2.75003 13.2501 3.08581 13.2501 3.5V8.5C13.2501 8.91419 12.9142 9.24997 12.5001 9.25C12.0858 9.25 11.7501 8.91421 11.7501 8.5V5.31055L4.03033 13.0303C3.73745 13.3232 3.26268 13.3231 2.96979 13.0303C2.67689 12.7374 2.67689 12.2626 2.96979 11.9697L10.6895 4.25H7.50006C7.08585 4.25 6.75006 3.91421 6.75006 3.5C6.75006 3.08579 7.08585 2.75 7.50006 2.75H12.5001Z" fill="var(--fill-0, white)"/>
<path d="M12.5001 2.75L12.5001 1.75H12.5001V2.75ZM12.5001 9.25V10.25H12.5001L12.5001 9.25ZM11.7501 5.31055H12.7501V2.89633L11.043 4.60344L11.7501 5.31055ZM4.03033 13.0303L4.73744 13.7374L4.03033 13.0303ZM2.96979 13.0303L2.26268 13.7374L2.26272 13.7374L2.96979 13.0303ZM10.6895 4.25L11.3966 4.95711L13.1037 3.25H10.6895V4.25ZM12.5001 2.75L12.5 3.75C12.362 3.74999 12.2501 3.63816 12.2501 3.5H13.2501H14.2501C14.2501 2.53345 13.4665 1.75007 12.5001 1.75L12.5001 2.75ZM13.2501 3.5H12.2501V8.5H13.2501H14.2501V3.5H13.2501ZM13.2501 8.5H12.2501C12.2501 8.36184 12.362 8.25001 12.5 8.25L12.5001 9.25L12.5001 10.25C13.4665 10.2499 14.2501 9.46655 14.2501 8.5H13.2501ZM12.5001 9.25V8.25C12.6381 8.25 12.7501 8.36193 12.7501 8.5H11.7501H10.7501C10.7501 9.4665 11.5336 10.25 12.5001 10.25V9.25ZM11.7501 8.5H12.7501V5.31055H11.7501H10.7501V8.5H11.7501ZM11.7501 5.31055L11.043 4.60344L3.32323 12.3232L4.03033 13.0303L4.73744 13.7374L12.4572 6.01765L11.7501 5.31055ZM4.03033 13.0303L3.32323 12.3232C3.42091 12.2255 3.57927 12.2256 3.67686 12.3231L2.96979 13.0303L2.26272 13.7374C2.94609 14.4207 4.054 14.4208 4.73744 13.7374L4.03033 13.0303ZM2.96979 13.0303L3.67689 12.3232C3.77453 12.4208 3.77453 12.5792 3.67689 12.6768L2.96979 11.9697L2.26268 11.2626C1.57926 11.946 1.57926 13.054 2.26268 13.7374L2.96979 13.0303ZM2.96979 11.9697L3.67689 12.6768L11.3966 4.95711L10.6895 4.25L9.98241 3.54289L2.26268 11.2626L2.96979 11.9697ZM10.6895 4.25V3.25H7.50006V4.25V5.25H10.6895V4.25ZM7.50006 4.25V3.25C7.63813 3.25 7.75006 3.36193 7.75006 3.5H6.75006H5.75006C5.75006 4.4665 6.53356 5.25 7.50006 5.25V4.25ZM6.75006 3.5H7.75006C7.75006 3.63807 7.63813 3.75 7.50006 3.75V2.75V1.75C6.53356 1.75 5.75006 2.5335 5.75006 3.5H6.75006ZM7.50006 2.75V3.75H12.5001V2.75V1.75H7.50006V2.75Z" fill="var(--stroke-0, #E6E6E6)" mask="url(#path-1-outside-1_0_350)"/>
</g>
<path id="Arrow" d="M12.5001 2.75C12.9142 2.75003 13.2501 3.08581 13.2501 3.5V8.5C13.2501 8.91419 12.9142 9.24997 12.5001 9.25C12.0858 9.25 11.7501 8.91421 11.7501 8.5V5.31055L4.03033 13.0303C3.73745 13.3232 3.26268 13.3231 2.96979 13.0303C2.67689 12.7374 2.67689 12.2626 2.96979 11.9697L10.6895 4.25H7.50006C7.08585 4.25 6.75006 3.91421 6.75006 3.5C6.75006 3.08579 7.08585 2.75 7.50006 2.75H12.5001Z" fill="var(--fill-0, #333333)"/>
</g>
</svg>
