<svg preserveAspectRatio="none" width="100%" height="100%" overflow="visible" style="display: block;" viewBox="0 0 16 16" fill="none" xmlns="http://www.w3.org/2000/svg">
<g id="jbs/fm1d/boundaries/FRQSIM-rainfall" clip-path="url(#clip0_0_325)">
<rect width="16" height="16" fill="white"/>
<rect id="Rectangle 172" width="16" height="16" fill="var(--fill-0, #D7D7D7)"/>
<path id="Vector 163" d="M10.75 -0.75V1.75H8.75V2.75H5.25V1.75H4.75V4.75H1.25V2.75H-0.75V-0.75H10.75Z" fill="var(--fill-0, #468AF3)" stroke="var(--stroke-0, white)" stroke-width="1.5"/>
<path id="black (Stroke)" d="M1.75 16.75L-0.75 16.75L-0.75 13.25L1.75 13.25L1.75 16.75Z" fill="var(--fill-0, #1F3AB5)" stroke="var(--stroke-0, white)" stroke-width="1.5"/>
<path id="black (Stroke)_2" d="M6.75 16.75L4.25 16.75L4.25 10.25L6.75 10.25L6.75 16.75Z" fill="var(--fill-0, #1F3AB5)" stroke="var(--stroke-0, white)" stroke-width="1.5"/>
<path id="black (Stroke)_3" d="M4.25 16.75L1.75 16.75L1.75 12.25L4.25 12.25L4.25 16.75Z" fill="var(--fill-0, #1F3AB5)" stroke="var(--stroke-0, white)" stroke-width="1.5"/>
<path id="black (Stroke)_4" d="M9.25 16.75L6.75 16.75L6.75 6.25L9.25 6.25L9.25 16.75Z" fill="var(--fill-0, #1F3AB5)" stroke="var(--stroke-0, white)" stroke-width="1.5"/>
<path id="black (Stroke)_5" d="M11.75 16.75L9.25 16.75L9.25 4.25L11.75 4.25L11.75 16.75Z" fill="var(--fill-0, #1F3AB5)" stroke="var(--stroke-0, white)" stroke-width="1.5"/>
<path id="black (Stroke)_6" d="M14.25 16.75L11.75 16.75L11.75 5.25L14.25 5.25L14.25 16.75Z" fill="var(--fill-0, #1F3AB5)" stroke="var(--stroke-0, white)" stroke-width="1.5"/>
<path id="black (Stroke)_7" d="M16.75 16.75L14.25 16.75L14.25 8.25L16.75 8.25L16.75 16.75Z" fill="var(--fill-0, #1F3AB5)" stroke="var(--stroke-0, white)" stroke-width="1.5"/>
</g>
<defs>
<clipPath id="clip0_0_325">
<rect width="16" height="16" fill="white"/>
</clipPath>
</defs>
</svg>
