<svg width="16" height="16" viewBox="0 0 16 16" fill="none" xmlns="http://www.w3.org/2000/svg">
<path d="M7.28878 2.30201C7.56396 2.42033 7.74326 2.69549 7.74326 3.00028L7.74257 13C7.74256 13.3051 7.56364 13.5801 7.2881 13.6983C7.01239 13.8163 6.69363 13.7544 6.48029 13.5406L1.48038 8.52925C1.33803 8.38657 1.25804 8.19087 1.25827 7.98723C1.25857 7.78374 1.33919 7.58888 1.48175 7.44662L6.48234 2.45827L6.5664 2.38502C6.77411 2.23211 7.04792 2.19853 7.28878 2.30201Z" fill="#333333" stroke="white" stroke-width="1.5" stroke-linejoin="round"/>
<path d="M14.5196 7.46587C14.6624 7.60851 14.7432 7.80398 14.7431 8.00788C14.7429 8.21171 14.6618 8.40678 14.5189 8.5492L9.50809 13.5424C9.29441 13.7553 8.97612 13.8163 8.70096 13.698C8.42608 13.5796 8.24734 13.3049 8.24717 13.0004V3C8.24717 2.69506 8.42627 2.41996 8.70165 2.30173C8.97708 2.18353 9.29526 2.24533 9.50877 2.45869L14.5196 7.46587Z" fill="#B1B1B1" stroke="white" stroke-width="1.5" stroke-linejoin="round"/>
</svg>
