<svg width="12" height="12" viewBox="0 0 12 12" fill="none" xmlns="http://www.w3.org/2000/svg">
<path d="M9.75 1.68848C9.89903 1.68854 10.042 1.7472 10.1475 1.85254C10.2529 1.958 10.3125 2.10089 10.3125 2.25V3.375L10.3047 3.46777C10.2894 3.55938 10.251 3.64663 10.1934 3.7207L7.68848 6.94238V10.5C7.68842 10.6806 7.60059 10.8504 7.4541 10.9561C7.30744 11.0617 7.11877 11.0903 6.94727 11.0332L4.69727 10.2842C4.46778 10.2076 4.31263 9.99192 4.3125 9.75L4.31348 6.94238L1.80664 3.7207C1.72992 3.62207 1.68759 3.49995 1.6875 3.375V2.25C1.68753 2.10093 1.74717 1.95799 1.85254 1.85254C1.95791 1.74726 2.10105 1.68761 2.25 1.6875L9.75 1.68848ZM2.81348 3.18066L5.31934 6.40527L5.37012 6.48242C5.41427 6.56411 5.43747 6.65618 5.4375 6.75L5.43848 9.34375L6.5625 9.71875V6.75C6.56254 6.62502 6.60493 6.50395 6.68164 6.40527L9.18848 3.18164V2.8125L2.8125 2.81152L2.81348 3.18066Z" fill="#999999"/>
</svg>
