<svg width="16" height="16" viewBox="0 0 16 16" fill="none" xmlns="http://www.w3.org/2000/svg">
<g clip-path="url(#clip0_2535_10552)">
<mask id="path-1-outside-1_2535_10552" maskUnits="userSpaceOnUse" x="-0.0185547" y="1.13257" width="16" height="13" fill="black">
<rect fill="white" x="-0.0185547" y="1.13257" width="16" height="13"/>
<path d="M10.6758 3.13257C10.9755 3.13257 11.1256 3.13266 11.2627 3.17261C11.3842 3.20807 11.4979 3.26665 11.5977 3.34448C11.7103 3.43243 11.7983 3.55411 11.9736 3.79761L14.3262 7.06519C14.5681 7.40122 14.6895 7.56924 14.7363 7.75269C14.7776 7.91472 14.7776 8.08478 14.7363 8.24683C14.6895 8.43038 14.5682 8.5991 14.3262 8.9353L11.9736 12.2019C11.7982 12.4455 11.7104 12.568 11.5977 12.656C11.4979 12.7337 11.3841 12.7915 11.2627 12.8269C11.1256 12.8669 10.9756 12.8669 10.6758 12.8669H2.58105C2.02126 12.8669 1.74121 12.8675 1.52734 12.7585C1.3392 12.6627 1.18669 12.5092 1.09082 12.321C0.981896 12.1071 0.981445 11.8273 0.981445 11.2673V4.73218C0.981445 4.17239 0.981852 3.89233 1.09082 3.67847C1.18666 3.4905 1.33937 3.33778 1.52734 3.24194C1.74121 3.13297 2.02126 3.13257 2.58105 3.13257H10.6758ZM11.3271 6.99976C10.775 6.99976 10.3274 7.44768 10.3271 7.99976C10.3271 8.55204 10.7749 8.99976 11.3271 8.99976C11.8793 8.99966 12.3271 8.55198 12.3271 7.99976C12.3269 7.44774 11.8792 6.99985 11.3271 6.99976Z"/>
</mask>
<path d="M10.6758 3.13257C10.9755 3.13257 11.1256 3.13266 11.2627 3.17261C11.3842 3.20807 11.4979 3.26665 11.5977 3.34448C11.7103 3.43243 11.7983 3.55411 11.9736 3.79761L14.3262 7.06519C14.5681 7.40122 14.6895 7.56924 14.7363 7.75269C14.7776 7.91472 14.7776 8.08478 14.7363 8.24683C14.6895 8.43038 14.5682 8.5991 14.3262 8.9353L11.9736 12.2019C11.7982 12.4455 11.7104 12.568 11.5977 12.656C11.4979 12.7337 11.3841 12.7915 11.2627 12.8269C11.1256 12.8669 10.9756 12.8669 10.6758 12.8669H2.58105C2.02126 12.8669 1.74121 12.8675 1.52734 12.7585C1.3392 12.6627 1.18669 12.5092 1.09082 12.321C0.981896 12.1071 0.981445 11.8273 0.981445 11.2673V4.73218C0.981445 4.17239 0.981852 3.89233 1.09082 3.67847C1.18666 3.4905 1.33937 3.33778 1.52734 3.24194C1.74121 3.13297 2.02126 3.13257 2.58105 3.13257H10.6758ZM11.3271 6.99976C10.775 6.99976 10.3274 7.44768 10.3271 7.99976C10.3271 8.55204 10.7749 8.99976 11.3271 8.99976C11.8793 8.99966 12.3271 8.55198 12.3271 7.99976C12.3269 7.44774 11.8792 6.99985 11.3271 6.99976Z" fill="#0A7DFF"/>
<path d="M10.6758 3.13257V2.13257V3.13257ZM11.2627 3.17261L11.5429 2.21267L11.5424 2.21253L11.2627 3.17261ZM11.5977 3.34448L12.2129 2.55617L12.2127 2.55603L11.5977 3.34448ZM11.9736 3.79761L12.7852 3.21332L12.7852 3.2133L11.9736 3.79761ZM14.3262 7.06519L13.5146 7.64947L13.5146 7.64949L14.3262 7.06519ZM14.7363 7.75269L15.7053 7.50566L15.7052 7.50526L14.7363 7.75269ZM14.7363 8.24683L15.7053 8.49385L15.7054 8.49369L14.7363 8.24683ZM14.3262 8.9353L15.1376 9.5197L15.1377 9.51961L14.3262 8.9353ZM11.9736 12.2019L11.1622 11.6175L11.1621 11.6176L11.9736 12.2019ZM11.5977 12.656L12.2125 13.4446L12.2129 13.4443L11.5977 12.656ZM11.2627 12.8269L11.5426 13.7869L11.5429 13.7868L11.2627 12.8269ZM10.6758 12.8669V13.8669V12.8669ZM2.58105 12.8669V13.8669V12.8669ZM1.52734 12.7585L1.07331 13.6495L1.07335 13.6496L1.52734 12.7585ZM1.09082 12.321L0.199712 12.7748L0.199814 12.775L1.09082 12.321ZM0.981445 4.73218H-0.0185547H0.981445ZM1.09082 3.67847L0.199937 3.22423L0.199814 3.22448L1.09082 3.67847ZM1.52734 3.24194L1.07335 2.35094L1.07311 2.35106L1.52734 3.24194ZM2.58105 3.13257V2.13257V3.13257ZM11.3271 6.99976L11.3273 5.99976H11.3271V6.99976ZM10.3271 7.99976L9.32715 7.99931V7.99976H10.3271ZM11.3271 8.99976V9.99976H11.3273L11.3271 8.99976ZM12.3271 7.99976H13.3271V7.99931L12.3271 7.99976ZM10.6758 3.13257V4.13257C10.8359 4.13257 10.9171 4.13293 10.9759 4.13613C11.0241 4.13875 11.0135 4.14159 10.983 4.13269L11.2627 3.17261L11.5424 2.21253C11.2362 2.1233 10.9167 2.13257 10.6758 2.13257V3.13257ZM11.2627 3.17261L10.9825 4.13254L10.9826 4.13294L11.5977 3.34448L12.2127 2.55603C12.0145 2.40139 11.7874 2.28406 11.5429 2.21267L11.2627 3.17261ZM11.5977 3.34448L10.9824 4.13279C10.9575 4.11339 10.9538 4.10336 10.984 4.1408C11.0208 4.18644 11.0687 4.25213 11.1621 4.38191L11.9736 3.79761L12.7852 3.2133C12.6436 3.01665 12.4645 2.75254 12.2129 2.55617L11.5977 3.34448ZM11.9736 3.79761L11.1621 4.38189L13.5146 7.64947L14.3262 7.06519L15.1377 6.4809L12.7852 3.21332L11.9736 3.79761ZM14.3262 7.06519L13.5146 7.64949C13.6437 7.82879 13.7108 7.92268 13.755 7.99388C13.7927 8.05453 13.7789 8.04487 13.7674 8.00011L14.7363 7.75269L15.7052 7.50526C15.6002 7.09377 15.3291 6.74666 15.1377 6.48088L14.3262 7.06519ZM14.7363 7.75269L13.7673 7.99971L13.7673 7.99996L14.7363 8.24683L15.7054 8.49369C15.7879 8.16977 15.788 7.8299 15.7053 7.50566L14.7363 7.75269ZM14.7363 8.24683L13.7673 7.9998C13.7786 7.95549 13.7922 7.94621 13.7546 8.00689C13.7105 8.07795 13.6434 8.1721 13.5146 8.351L14.3262 8.9353L15.1377 9.51961C15.3302 9.25221 15.6004 8.90532 15.7053 8.49385L14.7363 8.24683ZM14.3262 8.9353L13.5147 8.3509L11.1622 11.6175L11.9736 12.2019L12.7851 12.7863L15.1376 9.5197L14.3262 8.9353ZM11.9736 12.2019L11.1621 11.6176C11.068 11.7483 11.0202 11.8142 10.9829 11.8605C10.9523 11.8987 10.9564 11.888 10.9824 11.8677L11.5977 12.656L12.2129 13.4443C12.4652 13.2474 12.6456 12.9801 12.7852 12.7862L11.9736 12.2019ZM11.5977 12.656L10.9828 11.8674L10.9825 11.867L11.2627 12.8269L11.5429 13.7868C11.783 13.7167 12.011 13.6018 12.2125 13.4446L11.5977 12.656ZM11.2627 12.8269L10.9828 11.8669C11.0134 11.8579 11.024 11.8608 10.9759 11.8634C10.9172 11.8666 10.836 11.8669 10.6758 11.8669V12.8669V13.8669C10.9166 13.8669 11.2362 13.8763 11.5426 13.7869L11.2627 12.8269ZM10.6758 12.8669V11.8669H2.58105V12.8669V13.8669H10.6758V12.8669ZM2.58105 12.8669V11.8669C2.28412 11.8669 2.12197 11.8663 2.00506 11.8569C1.89985 11.8484 1.92317 11.8379 1.98133 11.8675L1.52734 12.7585L1.07335 13.6496C1.34538 13.7882 1.61566 13.8319 1.84389 13.8504C2.06043 13.8679 2.31819 13.8669 2.58105 13.8669V12.8669ZM1.52734 12.7585L1.98137 11.8676L1.98183 11.8671L1.09082 12.321L0.199814 12.775C0.390512 13.1493 0.695005 13.4568 1.07331 13.6495L1.52734 12.7585ZM1.09082 12.321L1.98193 11.8673C2.01093 11.9242 2.00053 11.9465 1.99191 11.8419C1.98234 11.7256 1.98145 11.5634 1.98145 11.2673H0.981445H-0.0185547C-0.0185547 11.5312 -0.0192209 11.7889 -0.00133985 12.006C0.0175003 12.2348 0.0617823 12.504 0.199712 12.7748L1.09082 12.321ZM0.981445 11.2673H1.98145V4.73218H0.981445H-0.0185547V11.2673H0.981445ZM0.981445 4.73218H1.98145C1.98145 4.43617 1.98233 4.27394 1.9919 4.15763C2.00052 4.05292 2.01094 4.07533 1.98183 4.13246L1.09082 3.67847L0.199814 3.22448C0.0617372 3.49547 0.0174669 3.76483 -0.00135994 3.99357C-0.0192322 4.2107 -0.0185547 4.46839 -0.0185547 4.73218H0.981445ZM1.09082 3.67847L1.9817 4.1327L1.98158 4.13283L1.52734 3.24194L1.07311 2.35106C0.69717 2.54274 0.391617 2.84829 0.199937 3.22423L1.09082 3.67847ZM1.52734 3.24194L1.98133 4.13295C1.92421 4.16206 1.9018 4.15164 2.00651 4.14302C2.12282 4.13345 2.28505 4.13257 2.58105 4.13257V3.13257V2.13257C2.31727 2.13257 2.05958 2.13189 1.84244 2.14976C1.61371 2.16859 1.34434 2.21286 1.07335 2.35094L1.52734 3.24194ZM2.58105 3.13257V4.13257H10.6758V3.13257V2.13257H2.58105V3.13257ZM11.3271 6.99976V5.99976C10.2223 5.99976 9.32764 6.89574 9.32715 7.99931L10.3271 7.99976L11.3271 8.0002V7.99976V6.99976ZM10.3271 7.99976H9.32715C9.32715 9.10432 10.2226 9.99976 11.3271 9.99976V8.99976V7.99976H10.3271ZM11.3271 8.99976L11.3273 9.99976C12.4315 9.99956 13.3271 9.10444 13.3271 7.99976H12.3271H11.3271H11.327L11.3271 8.99976ZM12.3271 7.99976L13.3271 7.99931C13.3267 6.89563 12.4318 5.99995 11.3273 5.99976L11.3271 6.99976L11.327 7.99976L11.3271 8.0002L12.3271 7.99976Z" fill="#E6E6E6" mask="url(#path-1-outside-1_2535_10552)"/>
</g>
<defs>
<clipPath id="clip0_2535_10552">
<rect width="16" height="16" fill="white"/>
</clipPath>
</defs>
</svg>
