<svg width="12" height="12" viewBox="0 0 12 12" fill="none" xmlns="http://www.w3.org/2000/svg">
<path d="M9.10209 8.1327C9.37359 7.98215 9.71692 8.08002 9.86771 8.35145C10.0184 8.62287 9.92019 8.96611 9.64896 9.11708L6.27396 10.9921C6.10419 11.0864 5.89691 11.0863 5.72709 10.9921L2.35209 9.11708C2.08052 8.9662 1.98247 8.62301 2.13334 8.35145C2.28429 8.08011 2.6275 7.98188 2.89896 8.1327L6.00053 9.85536L9.10209 8.1327ZM9.10209 5.5077C9.37359 5.35715 9.71692 5.45502 9.86771 5.72645C10.0184 5.99787 9.92019 6.34111 9.64896 6.49208L6.27396 8.36708C6.10419 8.46139 5.89691 8.46127 5.72709 8.36708L2.35209 6.49208C2.08052 6.3412 1.98247 5.99801 2.13334 5.72645C2.28429 5.45511 2.6275 5.35688 2.89896 5.5077L6.00053 7.23036L9.10209 5.5077ZM5.79252 0.977427C5.94812 0.915623 6.12541 0.925172 6.27396 1.0077L9.64896 2.8827C9.82733 2.98193 9.93798 3.17077 9.93803 3.37489C9.93803 3.57902 9.8273 3.76781 9.64896 3.86708L6.27396 5.74208C6.10419 5.83639 5.89691 5.83627 5.72709 5.74208L2.35209 3.86708C2.17352 3.76787 2.06303 3.57917 2.06303 3.37489C2.06307 3.17066 2.17355 2.98189 2.35209 2.8827L5.72709 1.0077L5.79252 0.977427ZM3.7847 3.37489L6.00053 4.60536L8.21537 3.37489L6.00053 2.14344L3.7847 3.37489Z" fill="#999999"/>
</svg>
