<svg width="12" height="12" viewBox="0 0 12 12" fill="none" xmlns="http://www.w3.org/2000/svg">
<g clip-path="url(#clip0_2535_2473)">
<path d="M9.75 7.68457C10.062 7.68457 10.3154 7.93796 10.3154 8.25V9.18457H11.25C11.562 9.18457 11.8154 9.43796 11.8154 9.75C11.8154 10.062 11.562 10.3154 11.25 10.3154H10.3154V11.25C10.3154 11.562 10.062 11.8154 9.75 11.8154C9.43796 11.8154 9.18457 11.562 9.18457 11.25V10.3154H8.25C7.93796 10.3154 7.68457 10.062 7.68457 9.75C7.68457 9.43796 7.93796 9.18457 8.25 9.18457H9.18457V8.25C9.18457 7.93796 9.43796 7.68457 9.75 7.68457ZM4.5 0.515625C4.64688 0.515625 4.82791 0.531352 4.98828 0.583984C5.36735 0.708441 5.57319 0.93025 5.79395 1.1543C6.69629 2.07018 8.06543 3.77837 8.06543 5.8125C8.06543 7.91459 6.49439 9.56543 4.5 9.56543C2.50561 9.56543 0.93457 7.91459 0.93457 5.8125C0.93457 3.77837 2.30371 2.07018 3.20605 1.1543C3.42681 0.93025 3.63265 0.708441 4.01172 0.583984C4.17209 0.531352 4.35312 0.515625 4.5 0.515625ZM4.40234 1.65137C4.37862 1.65436 4.36647 1.65766 4.36426 1.6582C4.31467 1.6745 4.28627 1.6904 4.24902 1.71973C4.19607 1.76143 4.13613 1.821 4.01172 1.94727C3.14527 2.82665 2.06543 4.25302 2.06543 5.8125C2.06543 7.34274 3.18068 8.43457 4.5 8.43457C5.81932 8.43457 6.93457 7.34274 6.93457 5.8125C6.93457 4.25302 5.85473 2.82665 4.98828 1.94727C4.86387 1.821 4.80393 1.76143 4.75098 1.71973C4.71373 1.6904 4.68533 1.6745 4.63574 1.6582C4.63353 1.65766 4.62138 1.65436 4.59766 1.65137C4.57008 1.64789 4.5363 1.64551 4.5 1.64551C4.4637 1.64551 4.42992 1.64789 4.40234 1.65137Z" fill="#0A7DFF"/>
</g>
<defs>
<clipPath id="clip0_2535_2473">
<rect width="12" height="12" fill="white"/>
</clipPath>
</defs>
</svg>
