<svg width="12" height="12" viewBox="0 0 12 12" fill="none" xmlns="http://www.w3.org/2000/svg">
<g clip-path="url(#clip0_2535_2510)">
<path d="M7.98535 0.196289C8.09407 0.217958 8.19487 0.271042 8.27441 0.350586L10.5244 2.60059C10.6304 2.70654 10.6904 2.85015 10.6904 3V11.25C10.6904 11.562 10.437 11.8154 10.125 11.8154H1.875C1.56296 11.8154 1.30957 11.562 1.30957 11.25V0.75C1.30957 0.437959 1.56296 0.18457 1.875 0.18457H7.875L7.98535 0.196289ZM2.44043 10.6846H9.55957V3.2334L7.6416 1.31543H2.44043V10.6846ZM8.25 3.93457C8.39985 3.93457 8.54346 3.99463 8.64941 4.10059C8.75537 4.20654 8.81543 4.35015 8.81543 4.5V9C8.81543 9.31204 8.56204 9.56543 8.25 9.56543H3.75C3.43796 9.56543 3.18457 9.31204 3.18457 9V4.5C3.18457 4.18796 3.43796 3.93457 3.75 3.93457H8.25ZM4.31543 8.43457H5.43457V7.31543H4.31543V8.43457ZM6.56543 8.43457H7.68457V7.31543H6.56543V8.43457ZM4.31543 6.18457H5.43457V5.06543H4.31543V6.18457ZM6.56543 6.18457H7.68457V5.06543H6.56543V6.18457Z" fill="#0A7DFF"/>
</g>
<defs>
<clipPath id="clip0_2535_2510">
<rect width="12" height="12" fill="white"/>
</clipPath>
</defs>
</svg>
