<svg width="32" height="32" viewBox="0 0 32 32" fill="none" xmlns="http://www.w3.org/2000/svg">
<g clip-path="url(#clip0_2535_14202)">
<path d="M12.7022 25.9645C7.51111 25.5111 10.3111 20 5.22667 19.6356C3.43932 19.527 1.65097 19.8311 0 20.5245L0 32H32V20.7822C28.8089 22.08 17.7778 26.4089 12.7022 25.9645Z" fill="#0A7DFF"/>
<path d="M0 0V16.3644C2.22222 15.5644 6.88889 14.0356 9.77778 14.24C14.8622 14.6044 13.0933 19.1733 18.2844 19.5733C21.84 19.8578 29.2178 17.2444 32.0356 16.1778V0H0Z" fill="#0A7DFF"/>
<path d="M31.9999 16.1867V20.7822C28.8088 22.08 17.7777 26.4089 12.7021 25.9645C7.51101 25.5111 10.311 20 5.22657 19.6356C3.44215 19.5277 1.65685 19.8319 0.00878906 20.5245V16.3467C2.23101 15.5467 6.88879 14.0178 9.78657 14.2222C14.871 14.5867 13.1021 19.1556 18.2932 19.5556C21.8132 19.8667 29.1821 17.2533 31.9999 16.1867Z" fill="white"/>
</g>
<defs>
<clipPath id="clip0_2535_14202">
<rect width="32" height="32" fill="white"/>
</clipPath>
</defs>
</svg>
