<svg width="16" height="16" viewBox="0 0 16 16" fill="none" xmlns="http://www.w3.org/2000/svg">
<path fill-rule="evenodd" clip-rule="evenodd" d="M11.0263 0.917923C11.3209 0.677694 11.7556 0.695124 12.0302 0.969681L15.0302 3.96968C15.3231 4.26255 15.323 4.73733 15.0302 5.03023L5.03021 15.0302C4.73731 15.3231 4.26255 15.3231 3.96966 15.0302L0.96966 12.0302C0.676787 11.7373 0.676773 11.2626 0.96966 10.9697L10.9697 0.969681L11.0263 0.917923ZM10.0605 3.99995L10.5302 4.46968C10.8231 4.76255 10.823 5.23733 10.5302 5.53023C10.2373 5.82312 9.76255 5.82312 9.46966 5.53023L8.99993 5.0605L7.56048 6.49995L8.03021 6.96968C8.32307 7.26255 8.32302 7.73733 8.03021 8.03023C7.73731 8.32312 7.26255 8.32312 6.96966 8.03023L6.49993 7.5605L5.06048 8.99995L5.53021 9.46968C5.82307 9.76255 5.82302 10.2373 5.53021 10.5302C5.23731 10.8231 4.76255 10.8231 4.46966 10.5302L3.99993 10.0605L2.56048 11.5L4.49993 13.4394L13.4394 4.49995L11.4999 2.5605L10.0605 3.99995Z" fill="#333333"/>
</svg>
