<svg preserveAspectRatio="none" width="100%" height="100%" overflow="visible" style="display: block;" viewBox="0 0 16 16" fill="none" xmlns="http://www.w3.org/2000/svg">
<g id="jbs/gui/divide-shape">
<path id="icon" d="M9.89648 2C10.3107 2 10.6465 2.33579 10.6465 2.75V5.43945C12.5513 5.89119 13.9687 7.60255 13.9688 9.64551C13.9686 12.033 12.033 13.9686 9.64551 13.9688C7.60254 13.9687 5.89118 12.5513 5.43945 10.6465H2.75C2.33579 10.6465 2 10.3107 2 9.89648V2.75C2 2.33579 2.33579 2 2.75 2H9.89648ZM10.6465 9.89648C10.6465 10.3107 10.3107 10.6465 9.89648 10.6465H7.00879C7.41317 11.7108 8.43933 12.4687 9.64551 12.4688C11.2046 12.4686 12.4686 11.2046 12.4688 9.64551C12.4687 8.43921 11.711 7.41211 10.6465 7.00781V9.89648ZM9.14648 6.86816C7.98745 7.07496 7.07601 7.98747 6.86914 9.14648H9.14648V6.86816ZM3.5 9.14648H5.35156C5.58013 7.15755 7.15755 5.58013 9.14648 5.35156V3.5H3.5V9.14648Z" fill="var(--fill-0, #0A7DFF)"/>
</g>
</svg>
