<svg preserveAspectRatio="none" width="100%" height="100%" overflow="visible" style="display: block;" viewBox="0 0 16 16" fill="none" xmlns="http://www.w3.org/2000/svg">
<g id="jbs/gui/subtract-shape">
<path id="icon" d="M9.89648 2C10.3107 2 10.6465 2.33579 10.6465 2.75V5.43945C12.5513 5.89119 13.9687 7.60255 13.9688 9.64551C13.9686 12.033 12.033 13.9686 9.64551 13.9688C7.60254 13.9687 5.89118 12.5513 5.43945 10.6465H2.75C2.33579 10.6465 2 10.3107 2 9.89648V2.75C2 2.33579 2.33579 2 2.75 2H9.89648ZM9.64551 6.82227C8.08628 6.82228 6.82228 8.08628 6.82227 9.64551C6.82237 11.2047 8.08634 12.4687 9.64551 12.4688C11.2046 12.4686 12.4686 11.2046 12.4688 9.64551C12.4687 8.08634 11.2047 6.82238 9.64551 6.82227Z" fill="var(--fill-0, #0A7DFF)"/>
</g>
</svg>
