<svg preserveAspectRatio="none" width="100%" height="100%" overflow="visible" style="display: block;" viewBox="0 0 12 12" fill="none" xmlns="http://www.w3.org/2000/svg">
<g id="fm-mouse-left">
<path id="icon" fill-rule="evenodd" clip-rule="evenodd" d="M9.1875 5.09804V5.09961V6.90039V6.90196C9.1875 7.54025 9.1875 7.98541 9.15918 8.33203C9.1314 8.67204 9.07924 8.86755 9.00391 9.01562C8.84212 9.33315 8.58315 9.59212 8.26563 9.75391C8.11755 9.82924 7.92204 9.8814 7.58203 9.90918C7.23541 9.9375 6.79024 9.9375 6.15194 9.9375H6.15039H5.84961H5.84806C5.20976 9.9375 4.76459 9.9375 4.41797 9.90918C4.07796 9.8814 3.88245 9.82924 3.73437 9.75391C3.41685 9.59212 3.15788 9.33315 2.99609 9.01562C2.92076 8.86755 2.8686 8.67204 2.84082 8.33203C2.8125 7.98541 2.8125 7.54025 2.8125 6.90195V6.90039V6H4.8C5.22004 6 5.43006 6 5.59049 5.91825C5.73161 5.84635 5.84635 5.73161 5.91825 5.59049C6 5.43006 6 5.22004 6 4.8V2.0625H6.15039H6.15195C6.79025 2.0625 7.23541 2.0625 7.58203 2.09082C7.92204 2.1186 8.11755 2.17076 8.26563 2.24609C8.58315 2.40788 8.84212 2.66685 9.00391 2.98437C9.07924 3.13245 9.1314 3.32796 9.15918 3.66797C9.1875 4.01459 9.1875 4.45975 9.1875 5.09804ZM10.3125 6.93962V6.90039V5.09961V5.06038C10.3125 4.45792 10.3125 3.97096 10.2803 3.57617C10.2468 3.16642 10.1755 2.80665 10.0059 2.47363C9.73622 1.94443 9.30557 1.51378 8.77637 1.24414C8.44335 1.07454 8.08358 1.00322 7.67383 0.969727C7.27905 0.937472 6.79212 0.937484 6.18969 0.9375H6.15039H5.84961H5.81031C5.20788 0.937484 4.72095 0.937472 4.32617 0.969727C3.91642 1.00322 3.55665 1.07454 3.22363 1.24414C2.69443 1.51378 2.26378 1.94443 1.99414 2.47363C1.82454 2.80665 1.75322 3.16642 1.71973 3.57617C1.68747 3.97095 1.68748 4.45788 1.6875 5.06031V5.09961V6.90039V6.93969C1.68748 7.54212 1.68747 8.02905 1.71973 8.42383C1.75322 8.83358 1.82454 9.19335 1.99414 9.52637C2.26378 10.0556 2.69443 10.4862 3.22363 10.7559C3.55665 10.9255 3.91642 10.9968 4.32617 11.0303C4.72096 11.0625 5.20792 11.0625 5.81038 11.0625H5.84961H6.15039H6.18962C6.79208 11.0625 7.27904 11.0625 7.67383 11.0303C8.08358 10.9968 8.44335 10.9255 8.77637 10.7559C9.30557 10.4862 9.73622 10.0556 10.0059 9.52637C10.1755 9.19335 10.2468 8.83358 10.2803 8.42383C10.3125 8.02904 10.3125 7.54208 10.3125 6.93962Z" fill="var(--fill-0, #333333)"/>
</g>
</svg>
