<svg preserveAspectRatio="none" width="100%" height="100%" overflow="visible" style="display: block;" viewBox="0 0 12 12" fill="none" xmlns="http://www.w3.org/2000/svg">
<g id="fm-mouse-left">
<path id="icon" fill-rule="evenodd" clip-rule="evenodd" d="M9.29687 3.65625C9.32579 4.01011 9.32617 4.46276 9.32617 5.09961V6.90039C9.32617 7.53724 9.32579 7.98989 9.29687 8.34375C9.26835 8.69246 9.21402 8.90822 9.12695 9.0791C8.95188 9.42265 8.67265 9.70188 8.3291 9.87695C8.15822 9.96402 7.94246 10.0184 7.59375 10.0469C7.23989 10.0758 6.78724 10.0762 6.15039 10.0762H5.84961C5.21276 10.0762 4.76011 10.0758 4.40625 10.0469C4.05754 10.0184 3.84178 9.96402 3.6709 9.87695C3.32735 9.70188 3.04812 9.42265 2.87305 9.0791C2.78598 8.90822 2.73165 8.69246 2.70312 8.34375C2.67421 7.98989 2.67383 7.53724 2.67383 6.90039V6H4.8C5.22004 6 5.43006 6 5.59049 5.91825C5.73161 5.84635 5.84635 5.73161 5.91825 5.59049C6 5.43006 6 5.22004 6 4.8V1.92383H6.15039C6.78724 1.92383 7.23989 1.92421 7.59375 1.95312C7.94246 1.98165 8.15822 2.03598 8.3291 2.12305C8.67265 2.29812 8.95188 2.57735 9.12695 2.9209C9.21402 3.09178 9.26835 3.30754 9.29687 3.65625ZM10.1738 6.90857V6.90039V5.09961V5.09142C10.1738 4.47251 10.1738 3.98249 10.1416 3.58789C10.1088 3.18657 10.0409 2.84643 9.88281 2.53613C9.62647 2.03303 9.21697 1.62353 8.71387 1.36719C8.40357 1.20913 8.06343 1.14119 7.66211 1.1084C7.26751 1.07617 6.77748 1.07617 6.15856 1.07617H6.15039H5.84961H5.84144C5.22252 1.07617 4.73249 1.07617 4.33789 1.1084C3.93657 1.14119 3.59643 1.20913 3.28613 1.36719C2.78303 1.62353 2.37353 2.03303 2.11719 2.53613C1.95913 2.84643 1.89119 3.18657 1.8584 3.58789C1.82617 3.98249 1.82617 4.47252 1.82617 5.09144V5.09961V6.90039V6.90856C1.82617 7.52748 1.82617 8.01751 1.8584 8.41211C1.89119 8.81343 1.95913 9.15357 2.11719 9.46387C2.37353 9.96697 2.78303 10.3765 3.28613 10.6328C3.59643 10.7909 3.93657 10.8588 4.33789 10.8916C4.73249 10.9238 5.22251 10.9238 5.84142 10.9238H5.84961H6.15039H6.15857C6.77749 10.9238 7.26751 10.9238 7.66211 10.8916C8.06343 10.8588 8.40357 10.7909 8.71387 10.6328C9.21697 10.3765 9.62647 9.96697 9.88281 9.46387C10.0409 9.15357 10.1088 8.81343 10.1416 8.41211C10.1738 8.01751 10.1738 7.52749 10.1738 6.90857Z" fill="var(--fill-0, #333333)"/>
</g>
</svg>
