<svg preserveAspectRatio="none" width="100%" height="100%" overflow="visible" style="display: block;" viewBox="0 0 12 12" fill="none" xmlns="http://www.w3.org/2000/svg">
<g id="jbs/gui/mouse-left">
<path id="icon" d="M6.15039 1.07617C6.77318 1.07617 7.26577 1.07603 7.66211 1.1084C8.06343 1.14119 8.40357 1.20913 8.71387 1.36719C9.21697 1.62353 9.62647 2.03303 9.88281 2.53613C10.0409 2.84643 10.1088 3.18657 10.1416 3.58789C10.174 3.98423 10.1738 4.47682 10.1738 5.09961V6.90039C10.1738 7.52318 10.174 8.01577 10.1416 8.41211C10.1088 8.81343 10.0409 9.15357 9.88281 9.46387C9.62647 9.96697 9.21697 10.3765 8.71387 10.6328C8.40357 10.7909 8.06343 10.8588 7.66211 10.8916C7.26577 10.924 6.77318 10.9238 6.15039 10.9238H5.84961C5.22682 10.9238 4.73423 10.924 4.33789 10.8916C3.93657 10.8588 3.59643 10.7909 3.28613 10.6328C2.78303 10.3765 2.37353 9.96697 2.11719 9.46387C1.95913 9.15357 1.89119 8.81343 1.8584 8.41211C1.82603 8.01577 1.82617 7.52318 1.82617 6.90039V5.09961C1.82617 4.47682 1.82603 3.98423 1.8584 3.58789C1.89119 3.18657 1.95913 2.84643 2.11719 2.53613C2.37353 2.03303 2.78303 1.62353 3.28613 1.36719C3.59643 1.20913 3.93657 1.14119 4.33789 1.1084C4.73423 1.07603 5.22682 1.07617 5.84961 1.07617H6.15039ZM6 4.7998C6 5.21984 5.99971 5.43039 5.91797 5.59082C5.84612 5.73164 5.73164 5.84612 5.59082 5.91797C5.43039 5.99971 5.21984 6 4.7998 6H2.67383V6.90039C2.67383 7.53724 2.67421 7.98989 2.70312 8.34375C2.73165 8.69246 2.78598 8.90822 2.87305 9.0791C3.04812 9.42265 3.32735 9.70188 3.6709 9.87695C3.84178 9.96402 4.05754 10.0184 4.40625 10.0469C4.76011 10.0758 5.21276 10.0762 5.84961 10.0762H6.15039C6.78724 10.0762 7.23989 10.0758 7.59375 10.0469C7.94246 10.0184 8.15822 9.96402 8.3291 9.87695C8.67265 9.70188 8.95188 9.42265 9.12695 9.0791C9.21402 8.90822 9.26835 8.69246 9.29687 8.34375C9.32579 7.98989 9.32617 7.53724 9.32617 6.90039V5.09961C9.32617 4.46276 9.32579 4.01011 9.29687 3.65625C9.26835 3.30754 9.21402 3.09178 9.12695 2.9209C8.95188 2.57735 8.67265 2.29812 8.3291 2.12305C8.15822 2.03598 7.94246 1.98165 7.59375 1.95312C7.23989 1.92421 6.78724 1.92383 6.15039 1.92383H6V4.7998Z" fill="var(--fill-0, #333333)"/>
</g>
</svg>
