<svg width="16" height="16" viewBox="0 0 16 16" fill="none" xmlns="http://www.w3.org/2000/svg">
<path d="M7.50142 1.9292C7.77552 1.78991 8.09433 1.77194 8.37935 1.87647L8.49947 1.9292L8.5981 1.9878C8.81472 2.13399 8.92972 2.34085 8.98482 2.44581C9.05888 2.58692 9.13407 2.7708 9.20943 2.95167L13.0102 12.0718C13.1044 12.2977 13.1909 12.5063 13.2456 12.6685C13.273 12.7499 13.3048 12.8541 13.3208 12.9634C13.3348 13.0603 13.3522 13.2602 13.2583 13.4741C13.1097 13.8116 12.7871 14.0406 12.4194 14.0689C12.1858 14.0868 12.0032 14.0029 11.9165 13.9575C11.8186 13.9063 11.7313 13.8424 11.6635 13.7896C11.5286 13.6842 11.3611 13.5334 11.1792 13.3696L8.03365 10.5386C8.02194 10.528 8.01089 10.5177 8.00045 10.5083C7.99001 10.5177 7.97894 10.528 7.96724 10.5386L4.82174 13.3696C4.63977 13.5334 4.47224 13.6842 4.33736 13.7896C4.26961 13.8424 4.1823 13.9063 4.08443 13.9575C3.99768 14.0029 3.81505 14.0868 3.5815 14.0689C3.21381 14.0406 2.89123 13.8116 2.74263 13.4741C2.64863 13.2602 2.66608 13.0604 2.68013 12.9634C2.69605 12.8541 2.72792 12.7499 2.75533 12.6685C2.80998 12.5063 2.89654 12.2977 2.99068 12.0718L6.79146 2.95167C6.86682 2.77081 6.94202 2.58692 7.01607 2.44581C7.07902 2.3259 7.2197 2.07265 7.50142 1.9292Z" fill="#333333"/>
</svg>
