<svg width="18" height="18" viewBox="0 0 18 18" fill="none" xmlns="http://www.w3.org/2000/svg">
<g clip-path="url(#clip0_2535_10511)">
<path d="M1 2C1 1.44772 1.44772 1 2 1H16C16.5523 1 17 1.44772 17 2V16C17 16.5523 16.5523 17 16 17H2C1.44772 17 1 16.5523 1 16V2Z" fill="white"/>
<path d="M17.5 0.5V17.5H0.5V0.5H17.5Z" fill="#D7D7D7" stroke="white"/>
<path d="M2.07422 17.75L2.88184 16.5752L5.94043 12.127C7.21708 10.27 7.16653 7.80473 5.81445 6.00195L2.40039 1.45019L1.5 0.249999L6.86719 0.249999L7.0918 0.539062L9.82324 4.05078L11.3145 0.695312L11.5127 0.249999L16.582 0.25L16.2021 1.26367L14.9209 4.68066C13.758 7.78159 12.221 10.7289 10.3447 13.458L7.61816 17.4248L7.39453 17.75L2.07422 17.75Z" fill="#468AF3" stroke="white" stroke-width="1.5"/>
</g>
<path d="M16 0.5C16.8284 0.5 17.5 1.17157 17.5 2V16C17.5 16.8284 16.8284 17.5 16 17.5H2C1.17157 17.5 0.5 16.8284 0.5 16V2C0.5 1.17157 1.17157 0.5 2 0.5H16Z" stroke="#E6E6E6"/>
<defs>
<clipPath id="clip0_2535_10511">
<path d="M1 2C1 1.44772 1.44772 1 2 1H16C16.5523 1 17 1.44772 17 2V16C17 16.5523 16.5523 17 16 17H2C1.44772 17 1 16.5523 1 16V2Z" fill="white"/>
</clipPath>
</defs>
</svg>
