<svg width="16" height="16" viewBox="0 0 16 16" fill="none" xmlns="http://www.w3.org/2000/svg">
<path fill-rule="evenodd" clip-rule="evenodd" d="M7.99994 9.5C8.41415 9.5 8.74994 9.83579 8.74994 10.25V12.6895L9.46967 11.9697C9.76256 11.6768 10.2373 11.6768 10.5302 11.9697C10.8231 12.2626 10.8231 12.7374 10.5302 13.0303L8.53021 15.0303C8.23732 15.3232 7.76256 15.3232 7.46967 15.0303L5.46967 13.0303C5.17678 12.7374 5.17678 12.2626 5.46967 11.9697C5.76256 11.6768 6.23732 11.6768 6.53021 11.9697L7.24994 12.6895V10.25C7.24994 9.83579 7.58573 9.5 7.99994 9.5ZM2.96967 5.46973C3.26256 5.17684 3.73732 5.17683 4.03021 5.46973C4.3231 5.76262 4.3231 6.23738 4.03021 6.53027L3.31049 7.25H5.99994C6.41416 7.25 6.74994 7.58579 6.74994 8C6.74994 8.41421 6.41415 8.75 5.99994 8.75H3.31049L4.03021 9.46973C4.32311 9.76262 4.32311 10.2374 4.03021 10.5303C3.73732 10.8232 3.26256 10.8232 2.96967 10.5303L0.969668 8.53027C0.676776 8.23738 0.676779 7.76262 0.969668 7.46973L2.96967 5.46973ZM11.9697 5.46973C12.2626 5.17683 12.7373 5.17683 13.0302 5.46973L15.0302 7.46973C15.1709 7.61038 15.2499 7.80109 15.2499 8C15.2499 8.19891 15.1709 8.38962 15.0302 8.53027L13.0302 10.5303C12.7373 10.8232 12.2626 10.8232 11.9697 10.5303C11.6768 10.2374 11.6768 9.76262 11.9697 9.46973L12.6894 8.75H9.99994C9.58573 8.75 9.24994 8.41421 9.24994 8C9.24994 7.58579 9.58573 7.25 9.99994 7.25H12.6894L11.9697 6.53027C11.6768 6.23738 11.6768 5.76262 11.9697 5.46973ZM7.99994 0.75C8.19885 0.75 8.38956 0.829078 8.53021 0.969727L10.5302 2.96973C10.8231 3.26262 10.8231 3.73738 10.5302 4.03027C10.2373 4.32316 9.76256 4.32316 9.46967 4.03027L8.74994 3.31055V6C8.74994 6.41421 8.41415 6.75 7.99994 6.75C7.58573 6.75 7.24994 6.41421 7.24994 6V3.31055L6.53021 4.03027C6.23732 4.32317 5.76256 4.32317 5.46967 4.03027C5.17678 3.73738 5.17678 3.26262 5.46967 2.96973L7.46967 0.969727L7.58393 0.875977C7.70622 0.794445 7.85079 0.750002 7.99994 0.75Z" fill="#333333"/>
</svg>
