<svg width="12" height="12" viewBox="0 0 12 12" fill="none" xmlns="http://www.w3.org/2000/svg">
<path fill-rule="evenodd" clip-rule="evenodd" d="M8.25 3.18774C9.80329 3.18774 11.0625 4.44696 11.0625 6.00024C11.0624 7.55342 9.80322 8.81274 8.25 8.81274H7.35742L7.89746 9.35278C8.11701 9.57246 8.11709 9.92808 7.89746 10.1477C7.67782 10.3672 7.32218 10.3672 7.10254 10.1477L5.60254 8.64771C5.49711 8.54227 5.43757 8.39934 5.4375 8.25024C5.4375 8.10112 5.49713 7.95826 5.60254 7.85278L7.10254 6.35278C7.32221 6.13312 7.67779 6.13312 7.89746 6.35278C8.11701 6.57246 8.11709 6.92808 7.89746 7.14771L7.35742 7.68774H8.25C9.18189 7.68774 9.93736 6.93211 9.9375 6.00024C9.9375 5.06827 9.18197 4.31274 8.25 4.31274C7.93942 4.31274 7.68763 4.06079 7.6875 3.75024C7.6875 3.43958 7.93934 3.18774 8.25 3.18774ZM4.10254 1.85278C4.32221 1.63312 4.67779 1.63312 4.89746 1.85278L6.39746 3.35278C6.617 3.57246 6.61708 3.92808 6.39746 4.14771L4.89746 5.64771C4.67782 5.86721 4.32218 5.86721 4.10254 5.64771C3.88291 5.42808 3.88299 5.07246 4.10254 4.85278L4.64258 4.31274H3.75C2.81803 4.31275 2.0625 5.06827 2.0625 6.00024C2.06264 6.9321 2.81811 7.68774 3.75 7.68774C4.06066 7.68774 4.3125 7.93958 4.3125 8.25024C4.31237 8.56079 4.06058 8.81274 3.75 8.81274C2.19679 8.81274 0.93764 7.55342 0.9375 6.00024C0.937503 4.44695 2.1967 3.18775 3.75 3.18774H4.64258L4.10254 2.64771C3.88291 2.42808 3.88299 2.07246 4.10254 1.85278Z" fill="#666666"/>
</svg>
