<svg preserveAspectRatio="none" width="100%" height="100%" overflow="visible" style="display: block;" viewBox="0 0 16 16" fill="none" xmlns="http://www.w3.org/2000/svg">
<g id="jbs/fm2d/define-topo-2">
<g id="BG">
<mask id="path-1-outside-1_0_7549" maskUnits="userSpaceOnUse" x="1.20705" y="1.20705" width="14" height="14" fill="black">
<rect fill="white" x="1.20705" y="1.20705" width="14" height="14"/>
<path d="M7.84572 2.23146C7.946 2.19893 8.05403 2.19893 8.15431 2.23146C8.26843 2.26854 8.3676 2.3676 8.56545 2.56545L13.4346 7.43459C13.6324 7.63241 13.7315 7.73161 13.7686 7.84572C13.8011 7.946 13.8011 8.05404 13.7686 8.15431C13.7315 8.26843 13.6324 8.36761 13.4346 8.56545L8.56545 13.4346C8.36762 13.6324 8.26843 13.7315 8.15431 13.7686C8.05404 13.8011 7.946 13.8011 7.84572 13.7686C7.7316 13.7315 7.63243 13.6324 7.43459 13.4346L2.56545 8.56545C2.3676 8.3676 2.26854 8.26843 2.23146 8.15431C2.19893 8.05403 2.19893 7.946 2.23146 7.84572C2.26854 7.73161 2.36761 7.63243 2.56545 7.43459L7.43459 2.56545C7.63243 2.36761 7.7316 2.26854 7.84572 2.23146Z"/>
</mask>
<path d="M7.84572 2.23146C7.946 2.19893 8.05403 2.19893 8.15431 2.23146C8.26843 2.26854 8.3676 2.3676 8.56545 2.56545L13.4346 7.43459C13.6324 7.63241 13.7315 7.73161 13.7686 7.84572C13.8011 7.946 13.8011 8.05404 13.7686 8.15431C13.7315 8.26843 13.6324 8.36761 13.4346 8.56545L8.56545 13.4346C8.36762 13.6324 8.26843 13.7315 8.15431 13.7686C8.05404 13.8011 7.946 13.8011 7.84572 13.7686C7.7316 13.7315 7.63243 13.6324 7.43459 13.4346L2.56545 8.56545C2.3676 8.3676 2.26854 8.26843 2.23146 8.15431C2.19893 8.05403 2.19893 7.946 2.23146 7.84572C2.26854 7.73161 2.36761 7.63243 2.56545 7.43459L7.43459 2.56545C7.63243 2.36761 7.7316 2.26854 7.84572 2.23146Z" fill="var(--fill-0, #333333)"/>
<path d="M7.84572 2.23146L7.53718 1.28025L7.5367 1.28041L7.84572 2.23146ZM8.15431 2.23146L8.46333 1.28041L8.46291 1.28027L8.15431 2.23146ZM8.56545 2.56545L9.27255 1.85834V1.85834L8.56545 2.56545ZM13.4346 7.43459L12.7275 8.14169L12.7275 8.1417L13.4346 7.43459ZM13.7686 7.84572L14.7198 7.53721L14.7196 7.5367L13.7686 7.84572ZM13.7686 8.15431L14.7196 8.46333L14.7198 8.46289L13.7686 8.15431ZM13.4346 8.56545L12.7275 7.85834L12.7275 7.85834L13.4346 8.56545ZM8.56545 13.4346L7.85834 12.7275L7.85834 12.7275L8.56545 13.4346ZM8.15431 13.7686L8.46284 14.7198L8.46334 14.7196L8.15431 13.7686ZM7.84572 13.7686L7.53671 14.7196L7.53715 14.7198L7.84572 13.7686ZM7.43459 13.4346L6.72748 14.1417L6.72748 14.1417L7.43459 13.4346ZM2.56545 8.56545L1.85834 9.27255L1.85834 9.27255L2.56545 8.56545ZM2.23146 8.15431L1.28027 8.46291L1.2804 8.46333L2.23146 8.15431ZM2.23146 7.84572L1.28041 7.5367L1.28025 7.53718L2.23146 7.84572ZM2.56545 7.43459L1.85834 6.72748V6.72748L2.56545 7.43459ZM7.43459 2.56545L6.72748 1.85834V1.85834L7.43459 2.56545ZM7.84572 2.23146L8.15426 3.18268C8.05403 3.21518 7.94606 3.21521 7.84572 3.18266L8.15431 2.23146L8.46291 1.28027C8.162 1.18264 7.83797 1.18269 7.53718 1.28025L7.84572 2.23146ZM8.15431 2.23146L7.8453 3.18252C7.78729 3.16367 7.74242 3.14023 7.71276 3.12188C7.68586 3.10524 7.67397 3.09428 7.68145 3.10063C7.68922 3.10723 7.70589 3.12215 7.73798 3.15323C7.77004 3.18429 7.80731 3.22152 7.85834 3.27255L8.56545 2.56545L9.27255 1.85834C9.18518 1.77097 9.07773 1.66244 8.97551 1.5757C8.86447 1.48148 8.69588 1.35597 8.46333 1.28041L8.15431 2.23146ZM8.56545 2.56545L7.85834 3.27255L12.7275 8.14169L13.4346 7.43459L14.1417 6.72748L9.27255 1.85834L8.56545 2.56545ZM13.4346 7.43459L12.7275 8.1417C12.7785 8.19272 12.8157 8.22999 12.8468 8.26205C12.8779 8.29413 12.8928 8.3108 12.8994 8.31857C12.9057 8.32606 12.8948 8.31418 12.8782 8.28729C12.8598 8.25764 12.8364 8.21277 12.8175 8.15474L13.7686 7.84572L14.7196 7.5367C14.6441 7.30414 14.5185 7.13553 14.4243 7.02452C14.3376 6.92229 14.2291 6.81485 14.1417 6.72748L13.4346 7.43459ZM13.7686 7.84572L12.8174 8.15423C12.7848 8.05402 12.7848 7.94608 12.8174 7.84574L13.7686 8.15431L14.7198 8.46289C14.8174 8.162 14.8173 7.83797 14.7198 7.53721L13.7686 7.84572ZM13.7686 8.15431L12.8175 7.84529C12.8364 7.78727 12.8598 7.7424 12.8782 7.71275C12.8948 7.68585 12.9057 7.67397 12.8994 7.68146C12.8928 7.68923 12.8779 7.7059 12.8468 7.73798C12.8157 7.77004 12.7785 7.80731 12.7275 7.85834L13.4346 8.56545L14.1417 9.27256C14.2291 9.18518 14.3376 9.07774 14.4243 8.97551C14.5185 8.86449 14.6441 8.69589 14.7196 8.46333L13.7686 8.15431ZM13.4346 8.56545L12.7275 7.85834L7.85834 12.7275L8.56545 13.4346L9.27255 14.1417L14.1417 9.27255L13.4346 8.56545ZM8.56545 13.4346L7.85834 12.7275C7.80731 12.7785 7.77005 12.8157 7.73799 12.8468C7.7059 12.8779 7.68923 12.8928 7.68146 12.8994C7.67397 12.9057 7.68585 12.8948 7.71275 12.8782C7.74239 12.8598 7.78726 12.8364 7.84529 12.8175L8.15431 13.7686L8.46334 14.7196C8.6959 14.6441 8.8645 14.5185 8.97551 14.4243C9.07774 14.3376 9.18518 14.2291 9.27256 14.1417L8.56545 13.4346ZM8.15431 13.7686L7.84579 12.8174C7.94602 12.7848 8.05397 12.7848 8.15429 12.8174L7.84572 13.7686L7.53715 14.7198C7.83803 14.8174 8.16205 14.8173 8.46284 14.7198L8.15431 13.7686ZM7.84572 13.7686L8.15473 12.8175C8.21276 12.8364 8.25763 12.8598 8.28728 12.8782C8.31419 12.8948 8.32607 12.9058 8.31858 12.8994C8.31081 12.8928 8.29414 12.8779 8.26205 12.8468C8.22999 12.8157 8.19272 12.7785 8.14169 12.7275L7.43459 13.4346L6.72748 14.1417C6.81485 14.2291 6.9223 14.3376 7.02452 14.4243C7.13554 14.5185 7.30414 14.6441 7.53671 14.7196L7.84572 13.7686ZM7.43459 13.4346L8.14169 12.7275L3.27255 7.85834L2.56545 8.56545L1.85834 9.27255L6.72748 14.1417L7.43459 13.4346ZM2.56545 8.56545L3.27256 7.85834C3.22152 7.80731 3.1843 7.77004 3.15323 7.73798C3.12214 7.70589 3.10722 7.68922 3.10063 7.68145C3.09428 7.67397 3.10523 7.68585 3.12188 7.71276C3.14023 7.74242 3.16367 7.78729 3.18252 7.8453L2.23146 8.15431L1.2804 8.46333C1.35597 8.69588 1.48148 8.86448 1.5757 8.97551C1.66244 9.07773 1.77097 9.18518 1.85834 9.27255L2.56545 8.56545ZM2.23146 8.15431L3.18266 7.84572C3.21521 7.94606 3.21518 8.05403 3.18267 8.15426L2.23146 7.84572L1.28025 7.53718C1.18268 7.83798 1.18265 8.162 1.28027 8.46291L2.23146 8.15431ZM2.23146 7.84572L3.18252 8.15474C3.16367 8.21276 3.14022 8.25763 3.12188 8.28728C3.10523 8.31418 3.09428 8.32606 3.10063 8.31858C3.10723 8.31081 3.12215 8.29414 3.15324 8.26205C3.1843 8.22999 3.22152 8.19272 3.27255 8.14169L2.56545 7.43459L1.85834 6.72748C1.77097 6.81485 1.66245 6.9223 1.5757 7.02452C1.48149 7.13555 1.35597 7.30414 1.28041 7.5367L2.23146 7.84572ZM2.56545 7.43459L3.27255 8.14169L8.14169 3.27255L7.43459 2.56545L6.72748 1.85834L1.85834 6.72748L2.56545 7.43459ZM7.43459 2.56545L8.14169 3.27255C8.19272 3.22153 8.22999 3.1843 8.26205 3.15324C8.29414 3.12215 8.31081 3.10723 8.31858 3.10063C8.32606 3.09428 8.31418 3.10523 8.28728 3.12188C8.25763 3.14022 8.21276 3.16367 8.15474 3.18252L7.84572 2.23146L7.5367 1.28041C7.30414 1.35597 7.13555 1.48149 7.02452 1.5757C6.9223 1.66245 6.81485 1.77097 6.72748 1.85834L7.43459 2.56545Z" fill="var(--stroke-0, #E6E6E6)" mask="url(#path-1-outside-1_0_7549)"/>
</g>
<g id="Cells">
<path id="Cell" d="M11 5L8 8L5 5L7.43431 2.56569C7.63232 2.36768 7.73133 2.26867 7.84549 2.23158C7.94591 2.19895 8.05409 2.19895 8.15451 2.23158C8.26867 2.26867 8.36768 2.36768 8.56569 2.56569L11 5Z" fill="var(--fill-0, #001E55)"/>
<path id="Cell_2" d="M11 11L8.56572 13.4343C8.36771 13.6323 8.2687 13.7313 8.15454 13.7684C8.05412 13.8011 7.94595 13.8011 7.84552 13.7684C7.73136 13.7313 7.63235 13.6323 7.43434 13.4343L5 11L8.00002 8L11 11Z" fill="var(--fill-0, #4FA8FB)"/>
<path id="Cell_3" d="M13.4343 7.43431C13.6323 7.63232 13.7313 7.73133 13.7684 7.84549C13.801 7.94591 13.801 8.05409 13.7684 8.15451C13.7313 8.26867 13.6323 8.36768 13.4343 8.56569L11 11L8 8L11 5L13.4343 7.43431Z" fill="var(--fill-0, #2D52D2)"/>
<path id="Cell_4" d="M8 8L4.99997 11L2.56568 8.56569C2.36767 8.36768 2.26867 8.26867 2.23158 8.15451C2.19895 8.05409 2.19895 7.94591 2.23158 7.84549C2.26867 7.73133 2.36768 7.63232 2.56568 7.43432L5 5L8 8Z" fill="var(--fill-0, #A4E5FF)"/>
</g>
</g>
</svg>
