<svg preserveAspectRatio="none" width="100%" height="100%" overflow="visible" style="display: block;" viewBox="0 0 16 16" fill="none" xmlns="http://www.w3.org/2000/svg">
<g id="jbs/fm-2d/z-polygon">
<path id="Vector 263 (Stroke)" d="M8.1084 9.60498C8.11734 9.60802 8.12408 9.61025 8.12793 9.61182C8.12457 9.6102 8.11871 9.60737 8.11035 9.60303C8.09817 9.59669 8.0856 9.58814 8.07031 9.57959C8.07462 9.57956 8.07887 9.57952 8.08301 9.57959C8.1027 9.59041 8.12105 9.60287 8.13867 9.61572C8.13758 9.61524 8.13653 9.61507 8.13574 9.61475C8.1307 9.61274 8.12241 9.61009 8.11914 9.60889C8.11354 9.60685 8.10864 9.60539 8.10742 9.60498C8.10439 9.60396 8.1018 9.6031 8.10156 9.60303C8.10248 9.60333 8.10446 9.60367 8.10547 9.604C8.10647 9.60434 8.10745 9.60466 8.1084 9.60498ZM8.11035 9.60303L8.1084 9.60498M8.11035 9.60303L8.1084 9.60498M8.00977 9.58545C8.00665 9.58517 8.00341 9.58474 8 9.58447C7.99624 9.58477 7.99266 9.58514 7.98926 9.58545L7.94629 9.59033C7.937 9.59238 7.92893 9.59359 7.92285 9.59521L7.94043 9.59131C7.94437 9.59043 7.95526 9.58867 7.96191 9.5874C7.96678 9.58661 7.97664 9.58658 7.98926 9.58545M7.98926 9.58545C7.99612 9.58515 8.0029 9.58518 8.00977 9.58545M8.00977 9.58545C8.02285 9.58661 8.0331 9.58659 8.03809 9.5874C8.04474 9.58867 8.05563 9.59043 8.05957 9.59131C8.0621 9.59189 8.06663 9.59284 8.06836 9.59326C8.07173 9.5941 8.07514 9.59494 8.07617 9.59521L8.05371 9.59033L8.00977 9.58545ZM7.51758 3.96924C7.83529 3.89952 8.16471 3.89952 8.48242 3.96924C8.88774 4.05831 9.2367 4.28488 9.46582 4.42236L13.6426 6.92822C14.0192 7.1542 14.25 7.56156 14.25 8.00049C14.2498 8.43985 14.0184 8.84621 13.6426 9.07178L9.46582 11.5786C9.23669 11.7161 8.88755 11.9427 8.48242 12.0317C8.16477 12.1014 7.83523 12.1014 7.51758 12.0317C7.11245 11.9427 6.76331 11.7161 6.53418 11.5786L2.35742 9.07178C1.98158 8.84621 1.75018 8.43985 1.75 8.00049C1.75 7.56156 1.98079 7.1542 2.35742 6.92822L6.53418 4.42236C6.7633 4.28488 7.11226 4.05831 7.51758 3.96924ZM7.74316 9.73096C7.70222 9.78599 7.67205 9.8485 7.64941 9.9126C7.66905 9.92433 7.68783 9.93459 7.70508 9.94482C7.70654 9.86227 7.72019 9.78754 7.74316 9.73096ZM8.25586 9.73096C8.27892 9.78757 8.29248 9.86211 8.29395 9.94482C8.3112 9.93459 8.32997 9.92434 8.34961 9.9126C8.32691 9.84843 8.29691 9.78602 8.25586 9.73096ZM7.86035 9.61572C7.86179 9.61509 7.86328 9.61515 7.86426 9.61475C7.8693 9.61274 7.87759 9.61009 7.88086 9.60889C7.88646 9.60685 7.89136 9.60539 7.89258 9.60498C7.89561 9.60396 7.8982 9.6031 7.89844 9.60303L7.89062 9.60498C7.88212 9.60789 7.87579 9.6103 7.87207 9.61182C7.87543 9.6102 7.88129 9.60737 7.88965 9.60303C7.90163 9.5968 7.91374 9.58796 7.92871 9.57959C7.92474 9.57957 7.92081 9.57953 7.91699 9.57959C7.89706 9.59054 7.87817 9.60269 7.86035 9.61572ZM7.81934 6.56592L5.42773 7.99951L7.81934 9.43408C7.89648 9.48037 7.95537 9.51237 8 9.53857C8.04463 9.51237 8.10352 9.48037 8.18066 9.43408L10.5703 7.99951L8.18066 6.56592C8.10397 6.5199 8.04514 6.48671 8 6.46045C7.95486 6.48671 7.89603 6.5199 7.81934 6.56592Z" stroke="var(--stroke-0, #E6E6E6)"/>
<path id="Vector 262" d="M8.82319 10.5061L13 8.00003L8.8232 5.49392C8.5239 5.31434 8.37425 5.22455 8.21449 5.18947C8.07318 5.15844 7.92682 5.15844 7.78551 5.18947C7.62575 5.22455 7.4761 5.31434 7.1768 5.49392L3 8.00003L7.17681 10.5061C7.47611 10.6857 7.62576 10.7755 7.78551 10.8105C7.92682 10.8416 8.07318 10.8416 8.21449 10.8105C8.37424 10.7755 8.52389 10.6857 8.82319 10.5061Z" fill="var(--fill-0, #DEF8FF)" stroke="var(--stroke-0, #1F3AB5)" stroke-width="1.5" stroke-linecap="round" stroke-linejoin="round"/>
</g>
</svg>
