<svg preserveAspectRatio="none" width="100%" height="100%" overflow="visible" style="display: block;" viewBox="0 0 16 16" fill="none" xmlns="http://www.w3.org/2000/svg">
<g id="jbs/tuflow/tuflow-tools">
<path id="icon" d="M2.21968 3.22013C2.51257 2.92724 2.98733 2.92724 3.28022 3.22013L9.00288 8.94279C9.13986 8.8207 9.31549 8.75046 9.49995 8.75041C9.69875 8.75045 9.88962 8.82959 10.0302 8.97013L12.5302 11.4692C12.8231 11.7621 12.8231 12.2378 12.5302 12.5307L11.5302 13.5297C11.3896 13.6703 11.1987 13.7493 10.9999 13.7494C10.8011 13.7494 10.6103 13.6703 10.4697 13.5297L7.96968 11.0307C7.6871 10.748 7.67747 10.2959 7.94038 10.0014L2.21968 4.28068C1.92683 3.98783 1.92691 3.51304 2.21968 3.22013ZM5.248 9.22013C5.54088 8.92727 6.01565 8.92728 6.30854 9.22013C6.60143 9.51302 6.60142 9.98779 6.30854 10.2807L3.30952 13.2797C3.01663 13.5726 2.54187 13.5726 2.24897 13.2797C1.95612 12.9868 1.95609 12.512 2.24897 12.2192L5.248 9.22013ZM11.0126 2.03849C11.4054 1.90776 11.8308 2.12037 11.9619 2.5131C12.0926 2.90583 11.8799 3.33025 11.4873 3.46134L10.3427 3.8422L10.1083 4.54728L10.9521 5.39103L11.6562 5.15666L12.039 4.01213C12.1704 3.61984 12.5947 3.40772 12.9873 3.53849C13.3801 3.66954 13.5919 4.09481 13.4609 4.48771L12.9609 5.98771C12.8861 6.21143 12.7101 6.38675 12.4863 6.46134L10.9873 6.96134C10.7178 7.05103 10.4205 6.98051 10.2197 6.7797L9.99995 6.55998L9.28022 7.28068C8.98734 7.57331 8.5125 7.57342 8.21968 7.28068C7.92686 6.98786 7.92702 6.51305 8.21968 6.22013L8.9394 5.49943L8.71968 5.28068C8.51889 5.07986 8.44831 4.78253 8.53804 4.5131L9.03804 3.0131C9.11267 2.78928 9.28886 2.61319 9.51265 2.53849L11.0126 2.03849Z" fill="var(--fill-0, #0A7DFF)"/>
</g>
</svg>
