<svg preserveAspectRatio="none" width="100%" height="100%" overflow="visible" style="display: block;" viewBox="0 0 16 16" fill="none" xmlns="http://www.w3.org/2000/svg">
<g id="jbs/fm2d/mod-imesh" clip-path="url(#clip0_0_7049)">
<path id="icon" d="M7 1.24989C7.41417 1.24989 7.74993 1.58573 7.75 1.99989C7.75 2.4141 7.41421 2.74989 7 2.74989H2.75V13.2499H13.25V8.99989C13.2501 8.58574 13.5858 8.2499 14 8.24989C14.4142 8.24989 14.7499 8.58573 14.75 8.99989V13.9999C14.75 14.4141 14.4142 14.7499 14 14.7499H2C1.80109 14.7499 1.61038 14.6708 1.46973 14.5302C1.32912 14.3895 1.25 14.1988 1.25 13.9999V1.99989C1.25007 1.58574 1.58584 1.2499 2 1.24989H7ZM12.7764 0.167858C13.0709 -0.0723818 13.5057 -0.0549067 13.7803 0.219616L15.7803 2.21962C16.0731 2.51249 16.0731 2.98726 15.7803 3.28016L7.78027 11.2802C7.63962 11.4208 7.44891 11.4999 7.25 11.4999H5.25C4.83579 11.4999 4.5 11.1641 4.5 10.7499V8.74989C4.50003 8.55102 4.57911 8.36024 4.71973 8.21962L12.7197 0.219616L12.7764 0.167858ZM6 9.06044V9.99989H6.93945L14.1895 2.74989L13.25 1.81044L6 9.06044Z" fill="var(--fill-0, #0A7DFF)"/>
</g>
<defs>
<clipPath id="clip0_0_7049">
<rect width="16" height="16" fill="white"/>
</clipPath>
</defs>
</svg>
