<svg preserveAspectRatio="none" width="100%" height="100%" overflow="visible" style="display: block;" viewBox="0 0 16 16" fill="none" xmlns="http://www.w3.org/2000/svg">
<g id="jbs/tuflow/tuflow-import-layers">
<path id="icon" d="M8.00001 12C8.82843 12 9.50001 12.6716 9.50001 13.5C9.50001 14.3284 8.82843 15 8.00001 15C7.17158 15 6.50001 14.3284 6.50001 13.5C6.50001 12.6716 7.17158 12 8.00001 12ZM3.00001 12C3.55229 12 4.00001 12.4477 4.00001 13C4.00001 13.5523 3.55229 14 3.00001 14C2.44772 14 2.00001 13.5523 2.00001 13C2.00001 12.4477 2.44772 12 3.00001 12ZM13 12C13.5523 12 14 12.4477 14 13C14 13.5523 13.5523 14 13 14C12.4477 14 12 13.5523 12 13C12 12.4477 12.4477 12 13 12ZM5.00001 5.25C5.41422 5.25 5.75001 5.58579 5.75001 6C5.75001 6.41421 5.41422 6.75 5.00001 6.75H4.25001V10C4.25001 10.4142 3.91422 10.75 3.50001 10.75C3.08579 10.75 2.75001 10.4142 2.75001 10V6.75H2.00001C1.58579 6.75 1.25001 6.41421 1.25001 6C1.25001 5.58579 1.58579 5.25 2.00001 5.25H5.00001ZM9.22266 5.25C9.63667 5.25024 9.97266 5.58593 9.97266 6C9.97266 6.41407 9.63667 6.74976 9.22266 6.75H8.61133C8.07312 6.75 7.52735 7.24688 7.52735 8C7.52735 8.75312 8.07312 9.25 8.61133 9.25H9.22266C9.63667 9.25024 9.97266 9.58593 9.97266 10C9.97266 10.4141 9.63667 10.7498 9.22266 10.75H8.61133C7.1245 10.75 6.02735 9.45602 6.02735 8C6.02735 6.54398 7.1245 5.25 8.61133 5.25H9.22266ZM13.5 5.25C13.9142 5.25 14.25 5.58579 14.25 6C14.25 6.41421 13.9142 6.75 13.5 6.75H12.25V7.75H13C13.4142 7.75 13.75 8.08579 13.75 8.5C13.75 8.91421 13.4142 9.25 13 9.25H12.25V10C12.25 10.4142 11.9142 10.75 11.5 10.75C11.0858 10.75 10.75 10.4142 10.75 10V6C10.75 5.58579 11.0858 5.25 11.5 5.25H13.5ZM3.00001 2C3.55229 2 4.00001 2.44772 4.00001 3C4.00001 3.55228 3.55229 4 3.00001 4C2.44772 4 2.00001 3.55228 2.00001 3C2.00001 2.44772 2.44772 2 3.00001 2ZM8.00001 1C8.82843 1 9.50001 1.67158 9.50001 2.5C9.50001 3.32842 8.82843 4 8.00001 4C7.17158 4 6.50001 3.32843 6.50001 2.5C6.50001 1.67157 7.17158 1 8.00001 1ZM13 2C13.5523 2 14 2.44772 14 3C14 3.55228 13.5523 4 13 4C12.4477 4 12 3.55228 12 3C12 2.44772 12.4477 2 13 2Z" fill="var(--fill-0, #0A7DFF)"/>
</g>
</svg>
