<svg preserveAspectRatio="none" width="100%" height="100%" overflow="visible" style="display: block;" viewBox="0 0 16 16" fill="none" xmlns="http://www.w3.org/2000/svg">
<g id="jbs/swmm/SWMM-edit-node" clip-path="url(#clip0_0_6584)">
<path id="icon" d="M8.00017 1.24989C8.41427 1.24998 8.75011 1.58578 8.75017 1.99989C8.75017 2.41405 8.41431 2.7498 8.00017 2.74989C6.96189 2.74989 5.9465 3.05785 5.08318 3.63466C4.21994 4.2115 3.54693 5.03192 3.14958 5.9911C2.75235 6.9503 2.64823 8.00604 2.85076 9.0243C3.05335 10.0427 3.55406 10.9776 4.28826 11.7118C5.02245 12.446 5.95742 12.9467 6.97576 13.1493C7.994 13.3518 9.04978 13.2477 10.009 12.8505C10.9681 12.4531 11.7886 11.7801 12.3654 10.9169C12.9422 10.0536 13.2502 9.03818 13.2502 7.99989C13.2502 7.58573 13.586 7.24989 14.0002 7.24989C14.4143 7.24998 14.7501 7.58578 14.7502 7.99989C14.7502 9.33485 14.3541 10.6399 13.6125 11.7499C12.8708 12.8599 11.8165 13.7253 10.5832 14.2362C9.34999 14.747 7.99292 14.8803 6.68376 14.62C5.37441 14.3596 4.17073 13.7173 3.22673 12.7733C2.28273 11.8293 1.6405 10.6257 1.38005 9.3163C1.11974 8.00712 1.25306 6.6501 1.76384 5.41688C2.27474 4.18355 3.14019 3.12925 4.25017 2.38759C5.36016 1.64596 6.66522 1.24989 8.00017 1.24989ZM12.7765 0.167859C13.0711 -0.0723102 13.5059 -0.0549364 13.7804 0.219616L15.7804 2.21962C15.9211 2.36024 16.0001 2.55103 16.0002 2.74989C16.0002 2.94873 15.921 3.13953 15.7804 3.28016L8.53044 10.5302C8.38983 10.6708 8.19902 10.7498 8.00017 10.7499H6.00017C5.58596 10.7499 5.25018 10.4141 5.25017 9.99989V7.99989C5.2502 7.80103 5.32928 7.61024 5.4699 7.46962L12.7199 0.219616L12.7765 0.167859ZM6.75017 8.31044V9.24989H7.68962L14.1896 2.74989L13.2502 1.81044L6.75017 8.31044Z" fill="var(--fill-0, #0A7DFF)"/>
</g>
<defs>
<clipPath id="clip0_0_6584">
<rect width="16" height="16" fill="white"/>
</clipPath>
</defs>
</svg>
