<svg preserveAspectRatio="none" width="100%" height="100%" overflow="visible" style="display: block;" viewBox="0 0 16 16" fill="none" xmlns="http://www.w3.org/2000/svg">
<g id="jbs/general/settings-outline">
<path id="icon" d="M6.59177 2.35055C7.29119 1.40256 8.70869 1.40263 9.40817 2.35055C9.52729 2.51208 9.63648 2.75921 9.75192 3.00973C9.78571 3.08306 9.80541 3.12678 9.82126 3.15915C9.83599 3.18921 9.83963 3.19377 9.83688 3.18942C9.89332 3.2783 9.99975 3.32261 10.1025 3.29977C10.0979 3.30082 10.1038 3.29961 10.1347 3.28903C10.1689 3.27734 10.2141 3.26039 10.29 3.23239C10.5488 3.13686 10.8005 3.0397 10.999 3.00973C12.1639 2.83393 13.1659 3.836 12.9902 5.00094C12.9602 5.19936 12.8631 5.45119 12.7675 5.70993C12.7395 5.7858 12.7226 5.83108 12.7109 5.8652C12.7045 5.88397 12.7022 5.8938 12.7011 5.89743C12.6782 6.00024 12.7216 6.10654 12.8105 6.16305C12.8137 6.16487 12.8226 6.16977 12.8408 6.17868C12.8732 6.19453 12.9169 6.21425 12.9902 6.24802C13.2408 6.36347 13.4879 6.47262 13.6494 6.59177C14.5975 7.29121 14.5975 8.70871 13.6494 9.40817C13.4878 9.52733 13.2408 9.63645 12.9902 9.75192C12.9168 9.78574 12.8732 9.8054 12.8408 9.82126C12.8226 9.83018 12.8137 9.83505 12.8105 9.83688C12.7216 9.89335 12.6782 9.9997 12.7011 10.1025C12.7021 10.106 12.7045 10.1159 12.7109 10.1347C12.7226 10.1689 12.7396 10.2142 12.7675 10.29C12.8631 10.5488 12.9602 10.8005 12.9902 10.999C13.166 12.164 12.164 13.166 10.999 12.9902C10.8005 12.9602 10.5488 12.8631 10.29 12.7675C10.2142 12.7396 10.1689 12.7226 10.1347 12.7109C10.1159 12.7045 10.106 12.7021 10.1025 12.7011C9.9997 12.6782 9.89335 12.7216 9.83688 12.8105C9.83505 12.8137 9.83017 12.8226 9.82126 12.8408C9.8054 12.8732 9.78573 12.9168 9.75192 12.9902C9.63645 13.2408 9.52733 13.4878 9.40817 13.6494C8.70871 14.5975 7.29121 14.5975 6.59177 13.6494C6.47262 13.4879 6.36347 13.2408 6.24802 12.9902C6.21424 12.9169 6.19453 12.8732 6.17868 12.8408C6.16977 12.8226 6.16487 12.8137 6.16305 12.8105C6.10654 12.7216 6.00024 12.6782 5.89743 12.7011C5.8938 12.7022 5.88397 12.7045 5.8652 12.7109C5.83108 12.7226 5.7858 12.7395 5.70993 12.7675C5.45119 12.8631 5.19936 12.9602 5.00094 12.9902C3.836 13.1659 2.83393 12.1639 3.00973 10.999C3.0397 10.8005 3.13686 10.5488 3.23239 10.29C3.26039 10.2141 3.27734 10.1689 3.28903 10.1347C3.29961 10.1038 3.30082 10.0979 3.29977 10.1025C3.32261 9.99975 3.2783 9.89332 3.18942 9.83688C3.19377 9.83963 3.18921 9.83599 3.15915 9.82126C3.12678 9.80541 3.08306 9.78571 3.00973 9.75192C2.75921 9.63648 2.51208 9.52729 2.35055 9.40817C1.40263 8.70869 1.40256 7.29119 2.35055 6.59177C2.5121 6.47261 2.75914 6.36349 3.00973 6.24802C3.08317 6.21418 3.12676 6.19454 3.15915 6.17868C3.17736 6.16976 3.18622 6.16489 3.18942 6.16305C3.27836 6.1066 3.32267 6.00024 3.29977 5.89743C3.30086 5.90224 3.29974 5.89649 3.28903 5.8652C3.27735 5.83109 3.26039 5.78577 3.23239 5.70993C3.13689 5.45123 3.03971 5.19934 3.00973 5.00094C2.83404 3.83607 3.83607 2.83404 5.00094 3.00973C5.19933 3.03971 5.45123 3.13689 5.70993 3.23239C5.78577 3.26039 5.83109 3.27735 5.8652 3.28903C5.89649 3.29974 5.90224 3.30086 5.89743 3.29977C6.00024 3.32267 6.1066 3.27836 6.16305 3.18942C6.1649 3.18622 6.16976 3.17736 6.17868 3.15915C6.19455 3.12675 6.21418 3.08317 6.24802 3.00973C6.36349 2.75913 6.47261 2.5121 6.59177 2.35055ZM8.20114 3.24118C8.1012 3.1058 7.8987 3.10575 7.7988 3.24118C7.81005 3.22593 7.80223 3.23348 7.76364 3.31149C7.7275 3.38458 7.68056 3.48522 7.61032 3.63766C7.55547 3.7567 7.49898 3.88384 7.42966 3.99313C7.0343 4.61615 6.29038 4.92449 5.57028 4.76364C5.44395 4.73537 5.3134 4.68502 5.1904 4.63962C5.03327 4.58162 4.92966 4.54365 4.85251 4.51755C4.76968 4.48953 4.75854 4.4903 4.77731 4.49313C4.61087 4.468 4.468 4.61087 4.49313 4.77731C4.4903 4.75854 4.48953 4.76968 4.51755 4.85251C4.54365 4.92966 4.58162 5.03327 4.63962 5.1904C4.68502 5.3134 4.73537 5.44395 4.76364 5.57028C4.92449 6.29038 4.61615 7.0343 3.99313 7.42966C3.88384 7.49898 3.75671 7.55547 3.63766 7.61032C3.48522 7.68056 3.38459 7.7275 3.31149 7.76364C3.23348 7.80223 3.22593 7.81005 3.24118 7.7988C3.10575 7.8987 3.1058 8.1012 3.24118 8.20114C3.22603 8.18997 3.23336 8.19864 3.31149 8.23727C3.38458 8.27341 3.48527 8.3194 3.63766 8.38962C3.75673 8.44448 3.88384 8.50095 3.99313 8.57028C4.61634 8.96573 4.9248 9.71034 4.76364 10.4306C4.73536 10.5569 4.685 10.6866 4.63962 10.8095C4.58161 10.9667 4.54366 11.0703 4.51755 11.1474C4.48958 11.2301 4.49031 11.2413 4.49313 11.2226C4.46806 11.389 4.61092 11.5329 4.77731 11.5078C4.75864 11.5106 4.76978 11.5104 4.85251 11.4824C4.92967 11.4563 5.03324 11.4183 5.1904 11.3603C5.31342 11.3149 5.44393 11.2655 5.57028 11.2373C6.29054 11.0763 7.03431 11.3845 7.42966 12.0078C7.49883 12.1169 7.55556 12.2434 7.61032 12.3623C7.68055 12.5147 7.7275 12.6154 7.76364 12.6884C7.80218 12.7664 7.80994 12.7739 7.7988 12.7588C7.89874 12.8941 8.10124 12.8942 8.20114 12.7588C8.18989 12.774 8.19855 12.7668 8.23727 12.6884C8.2734 12.6154 8.3194 12.5147 8.38962 12.3623C8.44438 12.2434 8.5011 12.1169 8.57028 12.0078C8.9657 11.3844 9.71025 11.0761 10.4306 11.2373C10.5569 11.2656 10.6867 11.315 10.8095 11.3603C10.9666 11.4183 11.0703 11.4563 11.1474 11.4824C11.23 11.5103 11.2412 11.5106 11.2226 11.5078C11.389 11.5328 11.5328 11.389 11.5078 11.2226C11.5106 11.2412 11.5103 11.23 11.4824 11.1474C11.4563 11.0703 11.4183 10.9666 11.3603 10.8095C11.315 10.6867 11.2656 10.5569 11.2373 10.4306C11.0761 9.71025 11.3844 8.9657 12.0078 8.57028C12.117 8.50109 12.2434 8.44439 12.3623 8.38962C12.5147 8.3194 12.6154 8.27341 12.6884 8.23727C12.7668 8.19854 12.774 8.18989 12.7588 8.20114C12.8942 8.10124 12.8941 7.89874 12.7588 7.7988C12.7739 7.80994 12.7664 7.80218 12.6884 7.76364C12.6154 7.72751 12.5147 7.68055 12.3623 7.61032C12.2434 7.55556 12.1169 7.49883 12.0078 7.42966C11.3845 7.03431 11.0763 6.29054 11.2373 5.57028C11.2655 5.44393 11.3149 5.31342 11.3603 5.1904C11.4183 5.03324 11.4563 4.92967 11.4824 4.85251C11.5104 4.76978 11.5106 4.75864 11.5078 4.77731C11.5329 4.61092 11.389 4.46806 11.2226 4.49313C11.2413 4.49031 11.2301 4.48958 11.1474 4.51755C11.0703 4.54366 10.9667 4.58161 10.8095 4.63962C10.6866 4.685 10.5569 4.73536 10.4306 4.76364C9.71034 4.9248 8.96573 4.61634 8.57028 3.99313C8.50095 3.88384 8.44448 3.75673 8.38962 3.63766C8.3194 3.48527 8.27341 3.38458 8.23727 3.31149C8.19864 3.23336 8.18997 3.22603 8.20114 3.24118ZM7.99997 5.24997C9.51867 5.25002 10.7499 6.48128 10.75 7.99997C10.7499 9.51868 9.51868 10.7499 7.99997 10.75C6.48128 10.7499 5.25002 9.51867 5.24997 7.99997C5.25004 6.48129 6.48129 5.25004 7.99997 5.24997ZM7.99997 6.74997C7.30972 6.75004 6.75004 7.30972 6.74997 7.99997C6.75002 8.69024 7.3097 9.2499 7.99997 9.24997C8.69025 9.24992 9.24992 8.69025 9.24997 7.99997C9.2499 7.3097 8.69024 6.75002 7.99997 6.74997Z" fill="var(--fill-0, #0A7DFF)"/>
</g>
</svg>
