<svg width="16" height="16" viewBox="0 0 16 16" fill="none" xmlns="http://www.w3.org/2000/svg">
<path d="M6.79297 2.4989C7.39247 1.68633 8.60747 1.6864 9.20703 2.4989C9.3067 2.63402 9.4028 2.84808 9.52539 3.11414C9.59671 3.26892 9.61255 3.30193 9.62598 3.32312C9.73894 3.50119 9.95143 3.58885 10.1572 3.54285C10.1817 3.53737 10.2169 3.52576 10.377 3.46667C10.6515 3.36534 10.8702 3.28179 11.0361 3.25671C12.0348 3.10593 12.8939 3.96512 12.7432 4.96375C12.7181 5.12977 12.6346 5.34908 12.5332 5.6239C12.4743 5.78358 12.4625 5.81819 12.457 5.84265C12.411 6.0484 12.4988 6.26089 12.6768 6.3739C12.6979 6.38734 12.7308 6.40405 12.8857 6.47546C13.1517 6.59803 13.3659 6.6932 13.501 6.79285C14.3137 7.39236 14.3137 8.60736 13.501 9.20691C13.3659 9.30658 13.1518 9.40267 12.8857 9.52527C12.7309 9.59661 12.6979 9.61242 12.6768 9.62585C12.4988 9.73882 12.4111 9.95136 12.457 10.1571C12.4625 10.1816 12.4741 10.2167 12.5332 10.3768C12.6345 10.6514 12.7181 10.8701 12.7432 11.036C12.894 12.0347 12.0348 12.8938 11.0361 12.743C10.8702 12.718 10.6515 12.6344 10.377 12.5331C10.2169 12.474 10.1817 12.4624 10.1572 12.4569C9.95148 12.4109 9.73894 12.4986 9.62598 12.6766C9.61255 12.6978 9.59672 12.7308 9.52539 12.8856C9.4028 13.1517 9.3067 13.3657 9.20703 13.5009C8.60748 14.3136 7.39248 14.3136 6.79297 13.5009C6.69332 13.3658 6.59814 13.1516 6.47559 12.8856C6.40418 12.7307 6.38746 12.6978 6.37402 12.6766C6.26101 12.4987 6.04852 12.4109 5.84277 12.4569C5.81831 12.4624 5.7837 12.4741 5.62402 12.5331C5.3492 12.6345 5.12989 12.718 4.96387 12.743C3.96524 12.8938 3.10605 12.0346 3.25684 11.036C3.28191 10.8701 3.36546 10.6513 3.4668 10.3768C3.52589 10.2168 3.53749 10.1816 3.54297 10.1571C3.58897 9.95131 3.50132 9.73881 3.32324 9.62585C3.30205 9.61243 3.26904 9.59659 3.11426 9.52527C2.8482 9.40268 2.63414 9.30658 2.49902 9.20691C1.68653 8.60735 1.68645 7.39235 2.49902 6.79285C2.63409 6.69321 2.84834 6.59799 3.11426 6.47546C3.26924 6.40405 3.30206 6.38734 3.32324 6.3739C3.50132 6.26092 3.58902 6.04846 3.54297 5.84265C3.53748 5.81819 3.52572 5.78354 3.4668 5.6239C3.36535 5.34908 3.2819 5.12977 3.25684 4.96375C3.10613 3.96517 3.96529 3.10601 4.96387 3.25671C5.12989 3.28178 5.3492 3.36523 5.62402 3.46667C5.78366 3.5256 5.81831 3.53736 5.84277 3.54285C6.04859 3.58889 6.26104 3.5012 6.37402 3.32312C6.38746 3.30194 6.40417 3.26912 6.47559 3.11414C6.59812 2.84821 6.69334 2.63397 6.79297 2.4989ZM8 6.49988C7.17168 6.49995 6.50007 7.17156 6.5 7.99988C6.5 8.82826 7.17163 9.49981 8 9.49988C8.82843 9.49988 9.5 8.8283 9.5 7.99988C9.49993 7.17151 8.82838 6.49988 8 6.49988Z" fill="#666666" stroke="#E6E6E6"/>
</svg>
