<svg preserveAspectRatio="none" width="100%" height="100%" overflow="visible" style="display: block;" viewBox="0 0 16 16" fill="none" xmlns="http://www.w3.org/2000/svg">
<g id="fm-v8-tuflow-sim">
<path id="icon" d="M3.63281 1.84583C3.86937 1.71316 4.15917 1.71913 4.39062 1.86048L13.3906 7.36048C13.6135 7.49673 13.75 7.73887 13.75 8.00013C13.75 8.26135 13.6135 8.50355 13.3906 8.63977L4.39062 14.1398C4.15919 14.2811 3.86934 14.287 3.63281 14.1544C3.39633 14.0217 3.25005 13.7713 3.25 13.5001V8.75013H2C1.58583 8.75013 1.25007 8.41428 1.25 8.00013C1.25 7.58591 1.58579 7.25013 2 7.25013H6C6.41421 7.25013 6.75 7.58591 6.75 8.00013C6.74993 8.41428 6.41417 8.75013 6 8.75013H4.75V12.1632L11.5625 8.00013L4.75 3.83606V5.00013C4.74993 5.41428 4.41417 5.75013 4 5.75013C3.58583 5.75013 3.25007 5.41428 3.25 5.00013V2.50013L3.25684 2.39954C3.28811 2.1682 3.42591 1.96196 3.63281 1.84583Z" fill="var(--fill-0, #0A7DFF)"/>
</g>
</svg>
