<svg width="18" height="14" viewBox="0 0 18 14" fill="none" xmlns="http://www.w3.org/2000/svg">
<g clip-path="url(#clip0_2535_10499)">
<path d="M1 2C1 1.44772 1.44772 1 2 1H16C16.5523 1 17 1.44772 17 2V12C17 12.5523 16.5523 13 16 13H2C1.44772 13 1 12.5523 1 12V2Z" fill="white"/>
<path d="M1 1H17V7H9.5H1V1Z" fill="#D7D7D7"/>
<path d="M17.75 6.25V13.75H0.25V6.25H17.75Z" fill="#FF6100" stroke="white" stroke-width="1.5"/>
</g>
<path d="M16 0.5C16.8284 0.5 17.5 1.17157 17.5 2V12C17.5 12.8284 16.8284 13.5 16 13.5H2C1.17157 13.5 0.5 12.8284 0.5 12V2C0.5 1.17157 1.17157 0.5 2 0.5H16Z" stroke="#E6E6E6"/>
<defs>
<clipPath id="clip0_2535_10499">
<path d="M1 2C1 1.44772 1.44772 1 2 1H16C16.5523 1 17 1.44772 17 2V12C17 12.5523 16.5523 13 16 13H2C1.44772 13 1 12.5523 1 12V2Z" fill="white"/>
</clipPath>
</defs>
</svg>
