<svg width="18" height="18" viewBox="0 0 18 18" fill="none" xmlns="http://www.w3.org/2000/svg">
<g clip-path="url(#clip0_2535_10479)">
<path d="M1 2C1 1.44772 1.44772 1 2 1H16C16.5523 1 17 1.44772 17 2V16C17 16.5523 16.5523 17 16 17H2C1.44772 17 1 16.5523 1 16V2Z" fill="white"/>
<path d="M17.75 4.25V17.75H0.25V4.25H17.75Z" fill="#0A7DFF" stroke="white" stroke-width="1.5"/>
<path d="M1 1H17V3.5H1V1Z" fill="#D7D7D7"/>
<mask id="path-5-outside-1_2535_10479" maskUnits="userSpaceOnUse" x="-1" y="7" width="20" height="12" fill="black">
<rect fill="white" x="-1" y="7" width="20" height="12"/>
<path fill-rule="evenodd" clip-rule="evenodd" d="M4 14C4 12.3431 2.65685 11 1 11V9H4H6H12H14H17V11C15.3443 11 14.0018 12.3413 14 13.9966V17H12V14C12 13.9986 12 13.9972 12 13.9957C11.9977 12.3408 10.6554 11 9 11C7.34315 11 6 12.3431 6 14V17H4V14Z"/>
</mask>
<path fill-rule="evenodd" clip-rule="evenodd" d="M4 14C4 12.3431 2.65685 11 1 11V9H4H6H12H14H17V11C15.3443 11 14.0018 12.3413 14 13.9966V17H12V14C12 13.9986 12 13.9972 12 13.9957C11.9977 12.3408 10.6554 11 9 11C7.34315 11 6 12.3431 6 14V17H4V14Z" fill="#333333"/>
<path d="M1 11H-0.5V12.5H1V11ZM1 9V7.5H-0.5V9H1ZM17 9H18.5V7.5H17V9ZM17 11V12.5H18.5V11H17ZM14 13.9966L12.5 13.9949V13.9966H14ZM14 17V18.5H15.5V17H14ZM12 17H10.5V18.5H12V17ZM12 13.9957L13.5 13.9937L13.5 13.9936L12 13.9957ZM6 17V18.5H7.5V17H6ZM4 17H2.5V18.5H4V17ZM1 11V12.5C1.82843 12.5 2.5 13.1716 2.5 14H4H5.5C5.5 11.5147 3.48528 9.5 1 9.5V11ZM1 9H-0.5V11H1H2.5V9H1ZM4 9V7.5H1V9V10.5H4V9ZM6 9V7.5H4V9V10.5H6V9ZM12 9V7.5H6V9V10.5H12V9ZM14 9V7.5H12V9V10.5H14V9ZM17 9V7.5H14V9V10.5H17V9ZM17 11H18.5V9H17H15.5V11H17ZM14 13.9966L15.5 13.9983C15.5009 13.1707 16.1722 12.5 17 12.5V11V9.5C14.5164 9.5 12.5028 11.5119 12.5 13.9949L14 13.9966ZM14 17H15.5V13.9966H14H12.5V17H14ZM12 17V18.5H14V17V15.5H12V17ZM12 14H10.5V17H12H13.5V14H12ZM12 13.9957L10.5 13.9977C10.5 13.9985 10.5 13.9992 10.5 14H12H13.5C13.5 13.9979 13.5 13.9958 13.5 13.9937L12 13.9957ZM9 11V12.5C9.8277 12.5 10.4988 13.1704 10.5 13.9978L12 13.9957L13.5 13.9936C13.4965 11.5113 11.4832 9.5 9 9.5V11ZM6 14H7.5C7.5 13.1716 8.17157 12.5 9 12.5V11V9.5C6.51472 9.5 4.5 11.5147 4.5 14H6ZM6 17H7.5V14H6H4.5V17H6ZM4 17V18.5H6V17V15.5H4V17ZM4 14H2.5V17H4H5.5V14H4Z" fill="white" mask="url(#path-5-outside-1_2535_10479)"/>
</g>
<path d="M16 0.5C16.8284 0.5 17.5 1.17157 17.5 2V16C17.5 16.8284 16.8284 17.5 16 17.5H2C1.17157 17.5 0.5 16.8284 0.5 16V2C0.5 1.17157 1.17157 0.5 2 0.5H16Z" stroke="#E6E6E6"/>
<defs>
<clipPath id="clip0_2535_10479">
<path d="M1 2C1 1.44772 1.44772 1 2 1H16C16.5523 1 17 1.44772 17 2V16C17 16.5523 16.5523 17 16 17H2C1.44772 17 1 16.5523 1 16V2Z" fill="white"/>
</clipPath>
</defs>
</svg>
