<svg preserveAspectRatio="none" width="100%" height="100%" overflow="visible" style="display: block;" viewBox="0 0 12 12" fill="none" xmlns="http://www.w3.org/2000/svg">
<g id="jbs/general/cancel">
<path id="icon" d="M7.8527 3.35268C8.07237 3.13302 8.42795 3.13302 8.64762 3.35268C8.86711 3.57236 8.86722 3.92799 8.64762 4.1476L6.79508 6.00014L8.64762 7.85268C8.86712 8.07236 8.86723 8.42799 8.64762 8.6476C8.42801 8.8672 8.07238 8.86709 7.8527 8.6476L6.00016 6.79506L4.14762 8.6476C3.92801 8.86721 3.57238 8.8671 3.3527 8.6476C3.13303 8.42793 3.13303 8.07235 3.3527 7.85268L5.20524 6.00014L3.3527 4.1476C3.13304 3.92794 3.13304 3.57235 3.3527 3.35268C3.57237 3.13301 3.92795 3.13302 4.14762 3.35268L6.00016 5.20522L7.8527 3.35268Z" fill="var(--fill-0, black)"/>
</g>
</svg>
