<svg preserveAspectRatio="none" width="100%" height="100%" overflow="visible" style="display: block;" viewBox="0 0 12 12" fill="none" xmlns="http://www.w3.org/2000/svg">
<g id="jbs/arrows/new-window">
<path id="icon" d="M3.4502 3.1875C3.76076 3.18761 4.01269 3.43941 4.0127 3.75C4.0127 4.0606 3.76077 4.31239 3.4502 4.3125H3C2.89645 4.3125 2.8125 4.39645 2.8125 4.5V9C2.8125 9.10355 2.89645 9.1875 3 9.1875H7.5C7.60355 9.1875 7.6875 9.10355 7.6875 9V8.5498C7.68761 8.23924 7.93941 7.9873 8.25 7.9873C8.56059 7.9873 8.81239 8.23924 8.8125 8.5498V9C8.8125 9.72487 8.22487 10.3125 7.5 10.3125H3C2.27513 10.3125 1.6875 9.72487 1.6875 9V4.5C1.6875 3.77513 2.27513 3.1875 3 3.1875H3.4502ZM9.72949 1.6875C9.87866 1.6875 10.0215 1.74708 10.127 1.85254C10.2324 1.95803 10.292 2.10082 10.292 2.25V5.25C10.292 5.56066 10.0402 5.8125 9.72949 5.8125C9.41886 5.81247 9.16699 5.56064 9.16699 5.25V3.60742L6.37695 6.39746C6.15728 6.61709 5.80169 6.61712 5.58203 6.39746C5.36242 6.1778 5.36241 5.8222 5.58203 5.60254L8.37207 2.8125H6.62109C6.31043 2.8125 6.05859 2.56066 6.05859 2.25C6.05859 1.93934 6.31043 1.6875 6.62109 1.6875H9.72949Z" fill="var(--fill-0, #999999)"/>
</g>
</svg>
