<svg preserveAspectRatio="none" width="100%" height="100%" overflow="visible" style="display: block;" viewBox="0 0 12 12" fill="none" xmlns="http://www.w3.org/2000/svg">
<g id="LHS icon">
<path id="icon" d="M7.69488 0.93995C8.1462 0.964816 8.57452 1.07549 8.96441 1.25147C9.13333 1.32776 9.25417 1.48229 9.28765 1.66456C9.321 1.84702 9.26248 2.03432 9.1314 2.16554L7.54742 3.74854L8.24859 4.44972L9.83258 2.86671L9.88433 2.82081C10.0104 2.7224 10.1741 2.68149 10.3336 2.71046C10.5158 2.74376 10.6702 2.86498 10.7466 3.0337C10.9481 3.47938 11.0649 3.97536 11.065 4.49952C11.065 6.40684 9.56674 7.96452 7.68316 8.06007L7.49957 8.06495C7.11707 8.0649 6.74968 8.00187 6.40582 7.89015L3.77398 10.5239C3.13918 11.1586 2.11003 11.1588 1.47515 10.5239C0.840872 9.88909 0.840616 8.85981 1.47515 8.22511L4.10699 5.59132C3.9959 5.24797 3.93414 4.88086 3.93414 4.49952C3.9344 2.53096 5.53111 0.934358 7.49957 0.934091L7.69488 0.93995ZM7.49957 2.06495C6.15507 2.0652 5.06526 3.15513 5.065 4.49952L5.07867 4.76319C5.10714 5.02225 5.17719 5.26989 5.28082 5.49952C5.37749 5.71362 5.33161 5.96518 5.16558 6.13136L2.27398 9.02393C2.08067 9.21735 2.08091 9.53153 2.27398 9.72511C2.46745 9.91857 2.78151 9.91864 2.97515 9.72511L5.86676 6.83253L5.93316 6.77589C6.09545 6.65735 6.31139 6.63292 6.49859 6.71729C6.80561 6.85612 7.14385 6.93402 7.49957 6.93409C8.84438 6.93409 9.93414 5.84433 9.93414 4.49952L9.9273 4.36964L8.64898 5.64893C8.54304 5.75487 8.39939 5.81493 8.24957 5.81495C8.09981 5.81488 7.95605 5.75483 7.85015 5.64893L6.35015 4.14893C6.12991 3.9283 6.12972 3.57065 6.35015 3.35011L7.6275 2.07081C7.58517 2.06856 7.54244 2.06495 7.49957 2.06495Z" fill="var(--fill-0, #0A7DFF)"/>
</g>
</svg>
