<svg width="16" height="16" viewBox="0 0 16 16" fill="none" xmlns="http://www.w3.org/2000/svg">
<rect width="16" height="16" fill="#1E1E1E"/>
<g id="Flood Iconography">
<g id="Ribbon">
<path d="M-88 -449C-88 -451.209 -86.2091 -453 -84 -453H548C550.209 -453 552 -451.209 552 -449V1716C552 1718.21 550.209 1720 548 1720H-84C-86.2091 1720 -88 1718.21 -88 1716V-449Z" fill="white"/>
<g id="Bridges dropdown">
<g id="jbs/fm1d/bridges/USBPR" clip-path="url(#clip0_1_136)">
<rect width="16" height="16" fill="white"/>
<path id="Rectangle 250" d="M0 0H16V3H0V0Z" fill="#D7D7D7"/>
<path id="Vector 160" d="M14 16H2V12H14V16Z" fill="#468AF3"/>
<path id="Subtract" d="M16.75 3.25V16.75H13.25V8.75H2.75V16.75H-0.75V3.25H16.75Z" fill="#333333" stroke="white" stroke-width="1.5"/>
</g>
</g>
</g>
</g>
<defs>
<clipPath id="clip0_1_136">
<rect width="16" height="16" fill="white"/>
</clipPath>
</defs>
</svg>
