<svg width="16" height="16" viewBox="0 0 16 16" fill="none" xmlns="http://www.w3.org/2000/svg">
<path fill-rule="evenodd" clip-rule="evenodd" d="M7.99978 9C10.2114 9.00016 12.0875 10.4363 12.7468 12.4268C12.8651 12.7837 12.9246 12.9626 12.8533 13.2451C12.8015 13.4499 12.5987 13.7303 12.4207 13.8438C12.1749 14.0003 11.916 14 11.3992 14H4.59939C4.08249 14 3.82371 14.0003 3.5779 13.8438C3.39991 13.7303 3.1981 13.4498 3.14626 13.2451C3.07492 12.9626 3.1335 12.7837 3.25173 12.4268C3.91108 10.4362 5.78803 9 7.99978 9ZM7.99978 3C9.38032 3.0002 10.4998 4.11941 10.4998 5.5C10.4998 6.88059 9.38032 7.9998 7.99978 8C6.61907 8 5.49978 6.88071 5.49978 5.5C5.49978 4.11929 6.61907 3 7.99978 3Z" fill="#333333"/>
</svg>
