<svg preserveAspectRatio="none" width="100%" height="100%" overflow="visible" style="display: block;" viewBox="0 0 16 16" fill="none" xmlns="http://www.w3.org/2000/svg">
<g id="jbs/fm-2d/z-polyline">
<path id="Vector 265 (Stroke)" d="M6.99909 4.25071C7.37808 3.74355 8.08756 3.59486 8.64264 3.92746L13.6426 6.92746C14.1246 7.21664 14.3541 7.79245 14.2042 8.33371C14.0542 8.87497 13.562 9.2497 13.0001 9.24973H7.51276L8.64264 9.92746C9.19724 10.2602 9.402 10.9564 9.13288 11.53L9.07233 11.6433C8.71734 12.2347 7.94958 12.4269 7.35749 12.072L2.35749 9.072C1.87559 8.78286 1.64617 8.20792 1.79596 7.66672C1.94593 7.12545 2.43809 6.74973 3.00006 6.74973H8.48737L7.35749 6.072C6.76592 5.71705 6.57285 4.94932 6.9278 4.35715L6.99909 4.25071Z" stroke="var(--stroke-0, #E6E6E6)"/>
<path id="Vector 262" d="M8 11L3 8.00003H13L8 5" stroke="var(--stroke-0, #1F3AB5)" stroke-width="1.5" stroke-linecap="round" stroke-linejoin="round"/>
</g>
</svg>
