<svg preserveAspectRatio="none" width="100%" height="100%" overflow="visible" style="display: block;" viewBox="0 0 16 16" fill="none" xmlns="http://www.w3.org/2000/svg">
<g id="jbs/fm-2d/z-import">
<path id="Vector 263 (Stroke)" d="M8.1084 11.6885C8.11734 11.6915 8.12408 11.6937 8.12793 11.6953C8.12457 11.6937 8.11871 11.6909 8.11035 11.6865C8.09817 11.6802 8.0856 11.6716 8.07031 11.6631C8.07462 11.6631 8.07887 11.663 8.08301 11.6631C8.1027 11.6739 8.12105 11.6864 8.13867 11.6992C8.13758 11.6987 8.13653 11.6986 8.13574 11.6982C8.1307 11.6962 8.12241 11.6936 8.11914 11.6924C8.11354 11.6904 8.10864 11.6889 8.10742 11.6885C8.10439 11.6875 8.1018 11.6866 8.10156 11.6865C8.10248 11.6868 8.10446 11.6872 8.10547 11.6875C8.10647 11.6878 8.10745 11.6882 8.1084 11.6885ZM8.11035 11.6865L8.1084 11.6885M8.11035 11.6865L8.1084 11.6885M8.00977 11.6689C8.00665 11.6687 8.00341 11.6682 8 11.668C7.99624 11.6683 7.99266 11.6686 7.98926 11.6689L7.94629 11.6738C7.937 11.6759 7.92893 11.6771 7.92285 11.6787L7.94043 11.6748C7.94437 11.6739 7.95526 11.6722 7.96191 11.6709C7.96678 11.6701 7.97664 11.6701 7.98926 11.6689M7.98926 11.6689C7.99612 11.6686 8.0029 11.6687 8.00977 11.6689M8.00977 11.6689C8.02285 11.6701 8.0331 11.6701 8.03809 11.6709C8.04474 11.6722 8.05563 11.6739 8.05957 11.6748C8.0621 11.6754 8.06663 11.6763 8.06836 11.6768C8.07173 11.6776 8.07514 11.6784 8.07617 11.6787L8.05371 11.6738L8.00977 11.6689ZM7.51758 6.05273C7.83529 5.98302 8.16471 5.98302 8.48242 6.05273C8.88774 6.14181 9.2367 6.36837 9.46582 6.50586L13.6426 9.01172C14.0192 9.2377 14.25 9.64505 14.25 10.084C14.2498 10.5233 14.0184 10.9297 13.6426 11.1553L9.46582 13.6621C9.23669 13.7996 8.88755 14.0262 8.48242 14.1152C8.16477 14.1849 7.83523 14.1849 7.51758 14.1152C7.11245 14.0262 6.76331 13.7996 6.53418 13.6621L2.35742 11.1553C1.98158 10.9297 1.75018 10.5233 1.75 10.084C1.75 9.64505 1.98079 9.2377 2.35742 9.01172L6.53418 6.50586C6.7633 6.36837 7.11226 6.14181 7.51758 6.05273ZM7.74316 11.8145C7.70222 11.8695 7.67205 11.932 7.64941 11.9961C7.66905 12.0078 7.68783 12.0181 7.70508 12.0283C7.70654 11.9458 7.72019 11.871 7.74316 11.8145ZM8.25586 11.8145C8.27892 11.8711 8.29248 11.9456 8.29395 12.0283C8.3112 12.0181 8.32997 12.0078 8.34961 11.9961C8.32691 11.9319 8.29691 11.8695 8.25586 11.8145ZM7.86035 11.6992C7.86179 11.6986 7.86328 11.6986 7.86426 11.6982C7.8693 11.6962 7.87759 11.6936 7.88086 11.6924C7.88646 11.6904 7.89136 11.6889 7.89258 11.6885C7.89561 11.6875 7.8982 11.6866 7.89844 11.6865L7.89062 11.6885C7.88212 11.6914 7.87579 11.6938 7.87207 11.6953C7.87543 11.6937 7.88129 11.6909 7.88965 11.6865C7.90163 11.6803 7.91374 11.6715 7.92871 11.6631C7.92474 11.6631 7.92081 11.663 7.91699 11.6631C7.89706 11.674 7.87817 11.6862 7.86035 11.6992ZM7.81934 8.64941L5.42773 10.083L7.81934 11.5176C7.89648 11.5639 7.95537 11.5959 8 11.6221C8.04463 11.5959 8.10352 11.5639 8.18066 11.5176L10.5703 10.083L8.18066 8.64941C8.10397 8.6034 8.04514 8.57021 8 8.54395C7.95486 8.57021 7.89603 8.6034 7.81934 8.64941Z" stroke="var(--stroke-0, #E6E6E6)"/>
<path id="Vector 262" d="M8.82319 12.5896L13 10.0835L8.8232 7.57742C8.5239 7.39784 8.37425 7.30805 8.21449 7.27296C8.07318 7.24193 7.92682 7.24193 7.78551 7.27296C7.62575 7.30805 7.4761 7.39784 7.1768 7.57742L3 10.0835L7.17681 12.5896C7.47611 12.7692 7.62576 12.859 7.78551 12.894C7.92682 12.9251 8.07318 12.9251 8.21449 12.894C8.37424 12.859 8.52389 12.7692 8.82319 12.5896Z" fill="var(--fill-0, #1F3AB5)" stroke="var(--stroke-0, #1F3AB5)" stroke-width="1.5" stroke-linecap="round" stroke-linejoin="round"/>
<g id="Union">
<mask id="path-3-outside-1_0_264" maskUnits="userSpaceOnUse" x="4.00003" y="1.5" width="8" height="9" fill="black">
<rect fill="white" x="4.00003" y="1.5" width="8" height="9"/>
<path d="M8.00003 2.5C8.41418 2.50007 8.75003 2.83583 8.75003 3.25V6.18945L9.71975 5.21973C10.0126 4.92687 10.4874 4.92687 10.7803 5.21973C11.0731 5.51262 11.0731 5.98741 10.7803 6.28027L8.5303 8.53027C8.38968 8.6709 8.19889 8.74997 8.00003 8.75C7.80116 8.75 7.6104 8.67087 7.46975 8.53027L5.21975 6.28027C4.92687 5.98738 4.92686 5.51262 5.21975 5.21973C5.51265 4.92687 5.98742 4.92684 6.2803 5.21973L7.25003 6.18945V3.25C7.25003 2.83579 7.58581 2.5 8.00003 2.5Z"/>
</mask>
<path d="M8.00003 2.5C8.41418 2.50007 8.75003 2.83583 8.75003 3.25V6.18945L9.71975 5.21973C10.0126 4.92687 10.4874 4.92687 10.7803 5.21973C11.0731 5.51262 11.0731 5.98741 10.7803 6.28027L8.5303 8.53027C8.38968 8.6709 8.19889 8.74997 8.00003 8.75C7.80116 8.75 7.6104 8.67087 7.46975 8.53027L5.21975 6.28027C4.92687 5.98738 4.92686 5.51262 5.21975 5.21973C5.51265 4.92687 5.98742 4.92684 6.2803 5.21973L7.25003 6.18945V3.25C7.25003 2.83579 7.58581 2.5 8.00003 2.5Z" fill="var(--fill-0, #333333)"/>
<path d="M8.00003 2.5L8.00019 1.5H8.00003V2.5ZM8.75003 6.18945H7.75003L7.75003 8.60367L9.45713 6.89656L8.75003 6.18945ZM9.71975 5.21973L9.01269 4.51258L9.01265 4.51262L9.71975 5.21973ZM10.7803 5.21973L11.4875 4.51274L11.4874 4.51258L10.7803 5.21973ZM10.7803 6.28027L11.4874 6.98738L11.4874 6.98734L10.7803 6.28027ZM8.00003 8.75L8.00002 9.75H8.00019L8.00003 8.75ZM7.46975 8.53027L6.76265 9.23738L6.76276 9.23749L7.46975 8.53027ZM5.21975 6.28027L4.51264 6.98737L4.51265 6.98738L5.21975 6.28027ZM5.21975 5.21973L4.5127 4.51257L4.51265 4.51262L5.21975 5.21973ZM6.2803 5.21973L5.57318 5.92682L5.57319 5.92683L6.2803 5.21973ZM7.25003 6.18945L6.54292 6.89656L8.25003 8.60367V6.18945H7.25003ZM8.00003 2.5L7.99986 3.5C7.86203 3.49998 7.75003 3.38827 7.75003 3.25H8.75003H9.75003C9.75003 2.28338 8.96634 1.50016 8.00019 1.5L8.00003 2.5ZM8.75003 3.25H7.75003V6.18945H8.75003H9.75003V3.25H8.75003ZM8.75003 6.18945L9.45713 6.89656L10.4269 5.92683L9.71975 5.21973L9.01265 4.51262L8.04292 5.48235L8.75003 6.18945ZM9.71975 5.21973L10.4268 5.92687C10.3292 6.02449 10.1709 6.02449 10.0732 5.92687L10.7803 5.21973L11.4874 4.51258C10.804 3.82926 9.69609 3.82926 9.01269 4.51258L9.71975 5.21973ZM10.7803 5.21973L10.0731 5.92671C9.97558 5.82919 9.97544 5.67094 10.0732 5.57321L10.7803 6.28027L11.4874 6.98734C12.1708 6.30388 12.1706 5.19605 11.4875 4.51274L10.7803 5.21973ZM10.7803 6.28027L10.0732 5.57317L7.82319 7.82317L8.5303 8.53027L9.23741 9.23738L11.4874 6.98738L10.7803 6.28027ZM8.5303 8.53027L7.82319 7.82317C7.87 7.77636 7.93347 7.75001 7.99986 7.75L8.00003 8.75L8.00019 9.75C8.46432 9.74992 8.90936 9.56543 9.23741 9.23738L8.5303 8.53027ZM8.00003 8.75L8.00003 7.75C8.06676 7.75 8.13018 7.7765 8.17675 7.82305L7.46975 8.53027L6.76276 9.23749C7.09062 9.56525 7.53555 9.75 8.00002 9.75L8.00003 8.75ZM7.46975 8.53027L8.17686 7.82317L5.92686 5.57317L5.21975 6.28027L4.51265 6.98738L6.76265 9.23738L7.46975 8.53027ZM5.21975 6.28027L5.92687 5.57318C6.02449 5.6708 6.0245 5.82919 5.92686 5.92683L5.21975 5.21973L4.51265 4.51262C3.82922 5.19604 3.82925 6.30396 4.51264 6.98737L5.21975 6.28027ZM5.21975 5.21973L5.92681 5.92688C5.82926 6.02442 5.67089 6.02453 5.57318 5.92682L6.2803 5.21973L6.98742 4.51263C6.30395 3.82915 5.19605 3.82931 4.5127 4.51257L5.21975 5.21973ZM6.2803 5.21973L5.57319 5.92683L6.54292 6.89656L7.25003 6.18945L7.95713 5.48235L6.98741 4.51262L6.2803 5.21973ZM7.25003 6.18945H8.25003V3.25L7.25003 3.25H6.25003V6.18945H7.25003ZM7.25003 3.25L8.25003 3.25C8.25003 3.38807 8.1381 3.5 8.00003 3.5V2.5V1.5C7.03353 1.5 6.25003 2.2835 6.25003 3.25H7.25003Z" fill="var(--stroke-0, #E6E6E6)" mask="url(#path-3-outside-1_0_264)"/>
</g>
</g>
</svg>
