<svg width="16" height="16" viewBox="0 0 16 16" fill="none" xmlns="http://www.w3.org/2000/svg">
<path d="M7 2C9.76142 2 12 4.23858 12 7C12 8.11033 11.6367 9.13511 11.0244 9.96484C11.0262 9.96662 11.0285 9.96793 11.0303 9.96973L13.5303 12.4697C13.8232 12.7626 13.8232 13.2374 13.5303 13.5303C13.2374 13.8232 12.7626 13.8232 12.4697 13.5303L9.96973 11.0303C9.96793 11.0285 9.96662 11.0262 9.96484 11.0244C9.13511 11.6367 8.11033 12 7 12C4.23858 12 2 9.76142 2 7C2 4.23858 4.23858 2 7 2ZM7 3.5C5.067 3.5 3.5 5.067 3.5 7C3.5 8.933 5.067 10.5 7 10.5C8.933 10.5 10.5 8.933 10.5 7C10.5 5.067 8.933 3.5 7 3.5ZM7 4.75C7.41421 4.75 7.75 5.08579 7.75 5.5V6.25H8.5C8.91421 6.25 9.25 6.58579 9.25 7C9.25 7.41421 8.91421 7.75 8.5 7.75H7.75V8.5C7.75 8.91421 7.41421 9.25 7 9.25C6.58579 9.25 6.25 8.91421 6.25 8.5V7.75H5.5C5.08579 7.75 4.75 7.41421 4.75 7C4.75 6.58579 5.08579 6.25 5.5 6.25H6.25V5.5C6.25 5.08579 6.58579 4.75 7 4.75Z" fill="#333333"/>
</svg>
